<mxfile host="Electron" modified="2023-08-11T00:06:19.511Z" agent="Mozilla/5.0 (Windows NT 10.0; Win64; x64) AppleWebKit/537.36 (KHTML, like Gecko) draw.io/21.6.5 Chrome/114.0.5735.243 Electron/25.3.1 Safari/537.36" etag="xmtzKOGcvit6ih0ppXMk" version="21.6.5" type="device" pages="5">
  <diagram name="Pantallas principales de la aplicaci칩n " id="l_3kHbSaGL0pgOsSIsXy">
    <mxGraphModel dx="670" dy="508" grid="1" gridSize="10" guides="1" tooltips="1" connect="1" arrows="1" fold="1" page="1" pageScale="1" pageWidth="827" pageHeight="1169" math="0" shadow="0">
      <root>
        <mxCell id="0" />
        <mxCell id="1" parent="0" />
        <mxCell id="1DbYmDpJq_CyL0GNrneF-1" value="Pantalla de Login" style="swimlane;whiteSpace=wrap;html=1;startSize=20;" parent="1" vertex="1">
          <mxGeometry x="100" y="60" width="240" height="400" as="geometry">
            <mxRectangle x="120" y="60" width="140" height="30" as="alternateBounds" />
          </mxGeometry>
        </mxCell>
        <mxCell id="1DbYmDpJq_CyL0GNrneF-2" value="" style="whiteSpace=wrap;html=1;" parent="1DbYmDpJq_CyL0GNrneF-1" vertex="1">
          <mxGeometry x="10" y="120" width="220" height="30" as="geometry" />
        </mxCell>
        <mxCell id="1DbYmDpJq_CyL0GNrneF-3" value="Usuario:" style="text;html=1;strokeColor=none;fillColor=none;align=center;verticalAlign=middle;whiteSpace=wrap;rounded=0;" parent="1DbYmDpJq_CyL0GNrneF-1" vertex="1">
          <mxGeometry x="20" y="120" width="80" height="30" as="geometry" />
        </mxCell>
        <mxCell id="1DbYmDpJq_CyL0GNrneF-4" value="" style="rounded=1;whiteSpace=wrap;html=1;" parent="1DbYmDpJq_CyL0GNrneF-1" vertex="1">
          <mxGeometry x="10" y="172.5" width="220" height="25" as="geometry" />
        </mxCell>
        <mxCell id="1DbYmDpJq_CyL0GNrneF-5" value="Contrase침a:" style="text;html=1;strokeColor=none;fillColor=none;align=center;verticalAlign=middle;whiteSpace=wrap;rounded=0;" parent="1DbYmDpJq_CyL0GNrneF-1" vertex="1">
          <mxGeometry x="-10" y="167.5" width="140" height="30" as="geometry" />
        </mxCell>
        <mxCell id="1DbYmDpJq_CyL0GNrneF-6" value="" style="rounded=1;whiteSpace=wrap;html=1;" parent="1DbYmDpJq_CyL0GNrneF-1" vertex="1">
          <mxGeometry x="50" y="230" width="120" height="30" as="geometry" />
        </mxCell>
        <mxCell id="1DbYmDpJq_CyL0GNrneF-7" value="Ingresar" style="text;html=1;strokeColor=none;fillColor=none;align=center;verticalAlign=middle;whiteSpace=wrap;rounded=0;" parent="1DbYmDpJq_CyL0GNrneF-1" vertex="1">
          <mxGeometry x="60" y="230" width="100" height="30" as="geometry" />
        </mxCell>
        <mxCell id="1DbYmDpJq_CyL0GNrneF-8" value="" style="rounded=1;whiteSpace=wrap;html=1;" parent="1DbYmDpJq_CyL0GNrneF-1" vertex="1">
          <mxGeometry x="15" y="40" width="210" height="60" as="geometry" />
        </mxCell>
        <mxCell id="1DbYmDpJq_CyL0GNrneF-9" value="Titulo de la Aplicaci칩n" style="text;html=1;strokeColor=none;fillColor=none;align=center;verticalAlign=middle;whiteSpace=wrap;rounded=0;" parent="1DbYmDpJq_CyL0GNrneF-1" vertex="1">
          <mxGeometry x="30" y="50" width="180" height="30" as="geometry" />
        </mxCell>
        <mxCell id="1DbYmDpJq_CyL0GNrneF-10" value="Registrarse" style="text;html=1;strokeColor=#005700;fillColor=#008a00;align=center;verticalAlign=middle;whiteSpace=wrap;rounded=0;fontColor=#ffffff;" parent="1DbYmDpJq_CyL0GNrneF-1" vertex="1">
          <mxGeometry x="20" y="300" width="190" height="30" as="geometry" />
        </mxCell>
        <mxCell id="1DbYmDpJq_CyL0GNrneF-34" value="Olvide mi contrase침a" style="text;html=1;strokeColor=none;fillColor=none;align=center;verticalAlign=middle;whiteSpace=wrap;rounded=0;" parent="1DbYmDpJq_CyL0GNrneF-1" vertex="1">
          <mxGeometry x="20" y="350" width="200" height="30" as="geometry" />
        </mxCell>
        <mxCell id="1DbYmDpJq_CyL0GNrneF-68" value="Solo administradores" style="text;html=1;strokeColor=none;fillColor=none;align=center;verticalAlign=middle;whiteSpace=wrap;rounded=0;" parent="1DbYmDpJq_CyL0GNrneF-1" vertex="1">
          <mxGeometry y="20" width="230" height="20" as="geometry" />
        </mxCell>
        <mxCell id="1DbYmDpJq_CyL0GNrneF-13" value="Pantalla de Registro de Usuario" style="swimlane;whiteSpace=wrap;html=1;fillColor=#008a00;fontColor=#ffffff;strokeColor=#005700;" parent="1" vertex="1">
          <mxGeometry x="360" y="60" width="240" height="400" as="geometry" />
        </mxCell>
        <mxCell id="1DbYmDpJq_CyL0GNrneF-14" value="" style="rounded=1;whiteSpace=wrap;html=1;" parent="1DbYmDpJq_CyL0GNrneF-13" vertex="1">
          <mxGeometry x="80" y="70" width="150" height="30" as="geometry" />
        </mxCell>
        <mxCell id="1DbYmDpJq_CyL0GNrneF-20" value="Nombre:" style="text;html=1;strokeColor=none;fillColor=none;align=center;verticalAlign=middle;whiteSpace=wrap;rounded=0;" parent="1DbYmDpJq_CyL0GNrneF-13" vertex="1">
          <mxGeometry y="70" width="90" height="30" as="geometry" />
        </mxCell>
        <mxCell id="1DbYmDpJq_CyL0GNrneF-23" value="Email" style="text;html=1;strokeColor=none;fillColor=none;align=center;verticalAlign=middle;whiteSpace=wrap;rounded=0;" parent="1DbYmDpJq_CyL0GNrneF-13" vertex="1">
          <mxGeometry y="220" width="90" height="30" as="geometry" />
        </mxCell>
        <mxCell id="1DbYmDpJq_CyL0GNrneF-22" value="Dni:" style="text;html=1;strokeColor=none;fillColor=none;align=center;verticalAlign=middle;whiteSpace=wrap;rounded=0;" parent="1DbYmDpJq_CyL0GNrneF-13" vertex="1">
          <mxGeometry y="170" width="90" height="30" as="geometry" />
        </mxCell>
        <mxCell id="1DbYmDpJq_CyL0GNrneF-21" value="Apellido:" style="text;html=1;strokeColor=none;fillColor=none;align=center;verticalAlign=middle;whiteSpace=wrap;rounded=0;" parent="1DbYmDpJq_CyL0GNrneF-13" vertex="1">
          <mxGeometry y="120" width="90" height="30" as="geometry" />
        </mxCell>
        <mxCell id="1DbYmDpJq_CyL0GNrneF-26" value="" style="rounded=1;whiteSpace=wrap;html=1;" parent="1DbYmDpJq_CyL0GNrneF-13" vertex="1">
          <mxGeometry x="80" y="220" width="150" height="30" as="geometry" />
        </mxCell>
        <mxCell id="1DbYmDpJq_CyL0GNrneF-25" value="" style="rounded=1;whiteSpace=wrap;html=1;" parent="1DbYmDpJq_CyL0GNrneF-13" vertex="1">
          <mxGeometry x="80" y="170" width="150" height="30" as="geometry" />
        </mxCell>
        <mxCell id="1DbYmDpJq_CyL0GNrneF-24" value="" style="rounded=1;whiteSpace=wrap;html=1;" parent="1DbYmDpJq_CyL0GNrneF-13" vertex="1">
          <mxGeometry x="80" y="120" width="150" height="30" as="geometry" />
        </mxCell>
        <mxCell id="1DbYmDpJq_CyL0GNrneF-28" value="PassWord" style="text;html=1;strokeColor=none;fillColor=none;align=center;verticalAlign=middle;whiteSpace=wrap;rounded=0;" parent="1DbYmDpJq_CyL0GNrneF-13" vertex="1">
          <mxGeometry y="310" width="90" height="30" as="geometry" />
        </mxCell>
        <mxCell id="1DbYmDpJq_CyL0GNrneF-27" value="Usuario:" style="text;html=1;strokeColor=none;fillColor=none;align=center;verticalAlign=middle;whiteSpace=wrap;rounded=0;" parent="1DbYmDpJq_CyL0GNrneF-13" vertex="1">
          <mxGeometry y="270" width="90" height="30" as="geometry" />
        </mxCell>
        <mxCell id="1DbYmDpJq_CyL0GNrneF-30" value="" style="rounded=1;whiteSpace=wrap;html=1;" parent="1DbYmDpJq_CyL0GNrneF-13" vertex="1">
          <mxGeometry x="80" y="310" width="150" height="30" as="geometry" />
        </mxCell>
        <mxCell id="1DbYmDpJq_CyL0GNrneF-29" value="" style="rounded=1;whiteSpace=wrap;html=1;" parent="1DbYmDpJq_CyL0GNrneF-13" vertex="1">
          <mxGeometry x="80" y="270" width="150" height="30" as="geometry" />
        </mxCell>
        <mxCell id="1DbYmDpJq_CyL0GNrneF-31" value="" style="rounded=1;whiteSpace=wrap;html=1;" parent="1DbYmDpJq_CyL0GNrneF-13" vertex="1">
          <mxGeometry x="30" y="360" width="170" height="30" as="geometry" />
        </mxCell>
        <mxCell id="1DbYmDpJq_CyL0GNrneF-32" value="Registrar" style="text;html=1;strokeColor=none;fillColor=none;align=center;verticalAlign=middle;whiteSpace=wrap;rounded=0;" parent="1DbYmDpJq_CyL0GNrneF-13" vertex="1">
          <mxGeometry x="80" y="360" width="60" height="30" as="geometry" />
        </mxCell>
        <mxCell id="1DbYmDpJq_CyL0GNrneF-35" value="Pantalla principal&amp;nbsp; visitantes" style="swimlane;whiteSpace=wrap;html=1;" parent="1" vertex="1">
          <mxGeometry x="20" y="480" width="335" height="300" as="geometry" />
        </mxCell>
        <mxCell id="pXBf0psvy3-2KTC4WIde-1" value="" style="rounded=0;whiteSpace=wrap;html=1;" vertex="1" parent="1DbYmDpJq_CyL0GNrneF-35">
          <mxGeometry y="30" width="90" height="30" as="geometry" />
        </mxCell>
        <mxCell id="pXBf0psvy3-2KTC4WIde-2" value="Tematicas" style="text;html=1;strokeColor=#6F0000;fillColor=#a20025;align=center;verticalAlign=middle;whiteSpace=wrap;rounded=0;fontColor=#ffffff;" vertex="1" parent="1DbYmDpJq_CyL0GNrneF-35">
          <mxGeometry y="30" width="80" height="30" as="geometry" />
        </mxCell>
        <mxCell id="pXBf0psvy3-2KTC4WIde-5" value="" style="rounded=0;whiteSpace=wrap;html=1;" vertex="1" parent="1DbYmDpJq_CyL0GNrneF-35">
          <mxGeometry x="100" y="30" width="80" height="30" as="geometry" />
        </mxCell>
        <mxCell id="pXBf0psvy3-2KTC4WIde-6" value="Quienes Somos" style="text;html=1;strokeColor=#2D7600;fillColor=#60a917;align=center;verticalAlign=middle;whiteSpace=wrap;rounded=0;fontColor=#ffffff;" vertex="1" parent="1DbYmDpJq_CyL0GNrneF-35">
          <mxGeometry x="90" y="30" width="80" height="30" as="geometry" />
        </mxCell>
        <mxCell id="pXBf0psvy3-2KTC4WIde-8" value="Quienes Somos" style="text;html=1;strokeColor=none;fillColor=none;align=center;verticalAlign=middle;whiteSpace=wrap;rounded=0;" vertex="1" parent="1DbYmDpJq_CyL0GNrneF-35">
          <mxGeometry x="175" y="30" width="80" height="30" as="geometry" />
        </mxCell>
        <mxCell id="pXBf0psvy3-2KTC4WIde-10" value="Objetivos de APP" style="rounded=1;whiteSpace=wrap;html=1;fillColor=#e51400;fontColor=#ffffff;strokeColor=#B20000;" vertex="1" parent="1DbYmDpJq_CyL0GNrneF-35">
          <mxGeometry x="180" y="30" width="70" height="30" as="geometry" />
        </mxCell>
        <mxCell id="pXBf0psvy3-2KTC4WIde-11" value="" style="rounded=1;whiteSpace=wrap;html=1;" vertex="1" parent="1DbYmDpJq_CyL0GNrneF-35">
          <mxGeometry x="255" y="30" width="75" height="30" as="geometry" />
        </mxCell>
        <mxCell id="pXBf0psvy3-2KTC4WIde-12" value="Salir" style="rounded=1;whiteSpace=wrap;html=1;fillColor=#6d8764;fontColor=#ffffff;strokeColor=#3A5431;" vertex="1" parent="1DbYmDpJq_CyL0GNrneF-35">
          <mxGeometry x="257.5" y="30" width="70" height="30" as="geometry" />
        </mxCell>
        <mxCell id="pXBf0psvy3-2KTC4WIde-13" value="" style="rounded=1;whiteSpace=wrap;html=1;" vertex="1" parent="1DbYmDpJq_CyL0GNrneF-35">
          <mxGeometry x="80" y="110" width="170" height="90" as="geometry" />
        </mxCell>
        <mxCell id="pXBf0psvy3-2KTC4WIde-14" value="Descripcion o presentacion&amp;nbsp;&lt;br&gt;" style="text;html=1;strokeColor=none;fillColor=none;align=center;verticalAlign=middle;whiteSpace=wrap;rounded=0;" vertex="1" parent="1DbYmDpJq_CyL0GNrneF-35">
          <mxGeometry x="135" y="135" width="60" height="35" as="geometry" />
        </mxCell>
        <mxCell id="1DbYmDpJq_CyL0GNrneF-54" value="Tem치ticas&amp;nbsp;" style="swimlane;whiteSpace=wrap;html=1;fillColor=#a20025;fontColor=#ffffff;strokeColor=#6F0000;" parent="1" vertex="1">
          <mxGeometry x="360" y="480" width="240" height="300" as="geometry" />
        </mxCell>
        <mxCell id="1DbYmDpJq_CyL0GNrneF-55" value="" style="rounded=1;whiteSpace=wrap;html=1;" parent="1DbYmDpJq_CyL0GNrneF-54" vertex="1">
          <mxGeometry x="10" y="45" width="100" height="60" as="geometry" />
        </mxCell>
        <mxCell id="1DbYmDpJq_CyL0GNrneF-56" value="Saludos" style="text;html=1;strokeColor=none;fillColor=none;align=center;verticalAlign=middle;whiteSpace=wrap;rounded=0;" parent="1DbYmDpJq_CyL0GNrneF-54" vertex="1">
          <mxGeometry x="17" y="60" width="86" height="30" as="geometry" />
        </mxCell>
        <mxCell id="1DbYmDpJq_CyL0GNrneF-58" value="" style="rounded=1;whiteSpace=wrap;html=1;" parent="1DbYmDpJq_CyL0GNrneF-54" vertex="1">
          <mxGeometry x="120" y="45" width="100" height="60" as="geometry" />
        </mxCell>
        <mxCell id="1DbYmDpJq_CyL0GNrneF-59" value="Abecedario&amp;nbsp;" style="text;html=1;strokeColor=none;fillColor=none;align=center;verticalAlign=middle;whiteSpace=wrap;rounded=0;" parent="1DbYmDpJq_CyL0GNrneF-54" vertex="1">
          <mxGeometry x="127" y="60" width="86" height="30" as="geometry" />
        </mxCell>
        <mxCell id="1DbYmDpJq_CyL0GNrneF-60" value="" style="rounded=1;whiteSpace=wrap;html=1;" parent="1DbYmDpJq_CyL0GNrneF-54" vertex="1">
          <mxGeometry x="7" y="120" width="103" height="60" as="geometry" />
        </mxCell>
        <mxCell id="1DbYmDpJq_CyL0GNrneF-61" value="Provincias" style="text;html=1;strokeColor=none;fillColor=none;align=center;verticalAlign=middle;whiteSpace=wrap;rounded=0;" parent="1DbYmDpJq_CyL0GNrneF-54" vertex="1">
          <mxGeometry x="15.5" y="135" width="86" height="30" as="geometry" />
        </mxCell>
        <mxCell id="1DbYmDpJq_CyL0GNrneF-62" value="" style="rounded=1;whiteSpace=wrap;html=1;" parent="1DbYmDpJq_CyL0GNrneF-54" vertex="1">
          <mxGeometry x="120" y="120" width="100" height="60" as="geometry" />
        </mxCell>
        <mxCell id="1DbYmDpJq_CyL0GNrneF-63" value="" style="rounded=1;whiteSpace=wrap;html=1;" parent="1DbYmDpJq_CyL0GNrneF-54" vertex="1">
          <mxGeometry x="7" y="200" width="100" height="60" as="geometry" />
        </mxCell>
        <mxCell id="1DbYmDpJq_CyL0GNrneF-64" value="" style="rounded=1;whiteSpace=wrap;html=1;" parent="1DbYmDpJq_CyL0GNrneF-54" vertex="1">
          <mxGeometry x="120" y="200" width="100" height="60" as="geometry" />
        </mxCell>
        <mxCell id="1DbYmDpJq_CyL0GNrneF-67" value="Paises" style="text;html=1;strokeColor=none;fillColor=none;align=center;verticalAlign=middle;whiteSpace=wrap;rounded=0;" parent="1DbYmDpJq_CyL0GNrneF-54" vertex="1">
          <mxGeometry x="127" y="135" width="86" height="30" as="geometry" />
        </mxCell>
        <mxCell id="1DbYmDpJq_CyL0GNrneF-66" value="Profesiones" style="text;html=1;strokeColor=none;fillColor=none;align=center;verticalAlign=middle;whiteSpace=wrap;rounded=0;" parent="1DbYmDpJq_CyL0GNrneF-54" vertex="1">
          <mxGeometry x="127" y="215" width="86" height="30" as="geometry" />
        </mxCell>
        <mxCell id="1DbYmDpJq_CyL0GNrneF-65" value="Localidades&amp;nbsp;" style="text;html=1;strokeColor=none;fillColor=none;align=center;verticalAlign=middle;whiteSpace=wrap;rounded=0;" parent="1DbYmDpJq_CyL0GNrneF-54" vertex="1">
          <mxGeometry x="15.5" y="215" width="86" height="30" as="geometry" />
        </mxCell>
        <mxCell id="1DbYmDpJq_CyL0GNrneF-69" value="Quienes Somos" style="swimlane;whiteSpace=wrap;html=1;fillColor=#60a917;fontColor=#ffffff;strokeColor=#2D7600;" parent="1" vertex="1">
          <mxGeometry x="100" y="810" width="240" height="310" as="geometry" />
        </mxCell>
        <mxCell id="1DbYmDpJq_CyL0GNrneF-70" value="Presentacion de cada miembro de la instituci칩n en un video el cual se encontrar치 editado con subtitulos" style="text;html=1;strokeColor=none;fillColor=none;align=center;verticalAlign=middle;whiteSpace=wrap;rounded=0;" parent="1DbYmDpJq_CyL0GNrneF-69" vertex="1">
          <mxGeometry x="20" y="40" width="200" height="140" as="geometry" />
        </mxCell>
        <mxCell id="1DbYmDpJq_CyL0GNrneF-71" value="Obejtivos" style="swimlane;whiteSpace=wrap;html=1;fillColor=#fa6800;fontColor=#000000;strokeColor=#C73500;" parent="1" vertex="1">
          <mxGeometry x="360" y="810" width="240" height="310" as="geometry" />
        </mxCell>
        <mxCell id="1DbYmDpJq_CyL0GNrneF-73" value="En esta vista tendremos los objetivos de la aplicacion, estar치 puesto en videos con subtitulos para oyentes" style="text;html=1;strokeColor=none;fillColor=none;align=center;verticalAlign=middle;whiteSpace=wrap;rounded=0;" parent="1DbYmDpJq_CyL0GNrneF-71" vertex="1">
          <mxGeometry x="43" y="50" width="167" height="110" as="geometry" />
        </mxCell>
        <mxCell id="1DbYmDpJq_CyL0GNrneF-72" value="Text" style="text;html=1;strokeColor=none;fillColor=none;align=center;verticalAlign=middle;whiteSpace=wrap;rounded=0;" parent="1" vertex="1">
          <mxGeometry x="370" y="760" width="60" height="30" as="geometry" />
        </mxCell>
        <mxCell id="1DbYmDpJq_CyL0GNrneF-74" value="Pantalla principal admin" style="swimlane;whiteSpace=wrap;html=1;" parent="1" vertex="1">
          <mxGeometry x="620" y="60" width="200" height="400" as="geometry" />
        </mxCell>
        <mxCell id="1DbYmDpJq_CyL0GNrneF-75" value="Men칰&amp;nbsp;" style="swimlane;whiteSpace=wrap;html=1;" parent="1DbYmDpJq_CyL0GNrneF-74" vertex="1">
          <mxGeometry y="30" width="110" height="160" as="geometry">
            <mxRectangle y="20" width="80" height="30" as="alternateBounds" />
          </mxGeometry>
        </mxCell>
        <mxCell id="1DbYmDpJq_CyL0GNrneF-76" value="Tem치ticas" style="text;html=1;strokeColor=#B20000;fillColor=#e51400;align=center;verticalAlign=middle;whiteSpace=wrap;rounded=0;fontColor=#ffffff;" parent="1DbYmDpJq_CyL0GNrneF-75" vertex="1">
          <mxGeometry y="30" width="110" height="30" as="geometry" />
        </mxCell>
        <mxCell id="1DbYmDpJq_CyL0GNrneF-79" value="Cerrar Sesi칩n&amp;nbsp;" style="text;html=1;strokeColor=#3A5431;fillColor=#6d8764;align=center;verticalAlign=middle;whiteSpace=wrap;rounded=0;fontColor=#ffffff;" parent="1DbYmDpJq_CyL0GNrneF-75" vertex="1">
          <mxGeometry y="60" width="110" height="30" as="geometry" />
        </mxCell>
        <mxCell id="1DbYmDpJq_CyL0GNrneF-80" value="Tem치ticas Admin" style="swimlane;whiteSpace=wrap;html=1;fillColor=#e51400;fontColor=#ffffff;strokeColor=#B20000;" parent="1" vertex="1">
          <mxGeometry x="620" y="480" width="200" height="300" as="geometry" />
        </mxCell>
        <mxCell id="1DbYmDpJq_CyL0GNrneF-88" value="" style="rounded=1;whiteSpace=wrap;html=1;" parent="1DbYmDpJq_CyL0GNrneF-80" vertex="1">
          <mxGeometry x="10" y="30" width="80" height="50" as="geometry" />
        </mxCell>
        <mxCell id="1DbYmDpJq_CyL0GNrneF-87" value="" style="rounded=1;whiteSpace=wrap;html=1;" parent="1DbYmDpJq_CyL0GNrneF-80" vertex="1">
          <mxGeometry x="110" y="30" width="80" height="50" as="geometry" />
        </mxCell>
        <mxCell id="1DbYmDpJq_CyL0GNrneF-92" value="" style="rounded=1;whiteSpace=wrap;html=1;" parent="1DbYmDpJq_CyL0GNrneF-80" vertex="1">
          <mxGeometry x="110" y="170" width="80" height="50" as="geometry" />
        </mxCell>
        <mxCell id="1DbYmDpJq_CyL0GNrneF-91" value="" style="rounded=1;whiteSpace=wrap;html=1;" parent="1DbYmDpJq_CyL0GNrneF-80" vertex="1">
          <mxGeometry x="10" y="170" width="80" height="50" as="geometry" />
        </mxCell>
        <mxCell id="1DbYmDpJq_CyL0GNrneF-90" value="" style="rounded=1;whiteSpace=wrap;html=1;" parent="1DbYmDpJq_CyL0GNrneF-80" vertex="1">
          <mxGeometry x="10" y="105" width="80" height="55" as="geometry" />
        </mxCell>
        <mxCell id="1DbYmDpJq_CyL0GNrneF-89" value="" style="rounded=1;whiteSpace=wrap;html=1;" parent="1DbYmDpJq_CyL0GNrneF-80" vertex="1">
          <mxGeometry x="110" y="105" width="80" height="55" as="geometry" />
        </mxCell>
        <mxCell id="1DbYmDpJq_CyL0GNrneF-93" value="" style="rounded=1;whiteSpace=wrap;html=1;" parent="1DbYmDpJq_CyL0GNrneF-80" vertex="1">
          <mxGeometry x="10" y="240" width="180" height="30" as="geometry" />
        </mxCell>
        <mxCell id="1DbYmDpJq_CyL0GNrneF-94" value="Carga o modificaci칩n&amp;nbsp;" style="text;html=1;strokeColor=none;fillColor=none;align=center;verticalAlign=middle;whiteSpace=wrap;rounded=0;" parent="1DbYmDpJq_CyL0GNrneF-80" vertex="1">
          <mxGeometry x="30" y="240" width="140" height="30" as="geometry" />
        </mxCell>
        <mxCell id="1DbYmDpJq_CyL0GNrneF-96" value="Familia" style="swimlane;whiteSpace=wrap;html=1;fillColor=#e51400;fontColor=#ffffff;strokeColor=#B20000;" parent="1" vertex="1">
          <mxGeometry x="620" y="810" width="200" height="310" as="geometry" />
        </mxCell>
        <mxCell id="1DbYmDpJq_CyL0GNrneF-97" value="" style="rounded=1;whiteSpace=wrap;html=1;" parent="1DbYmDpJq_CyL0GNrneF-96" vertex="1">
          <mxGeometry x="10" y="30" width="80" height="50" as="geometry" />
        </mxCell>
        <mxCell id="1DbYmDpJq_CyL0GNrneF-98" value="" style="rounded=1;whiteSpace=wrap;html=1;" parent="1DbYmDpJq_CyL0GNrneF-96" vertex="1">
          <mxGeometry x="110" y="30" width="80" height="50" as="geometry" />
        </mxCell>
        <mxCell id="1DbYmDpJq_CyL0GNrneF-99" value="" style="rounded=1;whiteSpace=wrap;html=1;" parent="1DbYmDpJq_CyL0GNrneF-96" vertex="1">
          <mxGeometry x="110" y="170" width="80" height="50" as="geometry" />
        </mxCell>
        <mxCell id="1DbYmDpJq_CyL0GNrneF-100" value="" style="rounded=1;whiteSpace=wrap;html=1;" parent="1DbYmDpJq_CyL0GNrneF-96" vertex="1">
          <mxGeometry x="10" y="170" width="80" height="50" as="geometry" />
        </mxCell>
        <mxCell id="1DbYmDpJq_CyL0GNrneF-101" value="" style="rounded=1;whiteSpace=wrap;html=1;" parent="1DbYmDpJq_CyL0GNrneF-96" vertex="1">
          <mxGeometry x="10" y="100" width="80" height="55" as="geometry" />
        </mxCell>
        <mxCell id="1DbYmDpJq_CyL0GNrneF-102" value="" style="rounded=1;whiteSpace=wrap;html=1;" parent="1DbYmDpJq_CyL0GNrneF-96" vertex="1">
          <mxGeometry x="110" y="100" width="80" height="55" as="geometry" />
        </mxCell>
        <mxCell id="1DbYmDpJq_CyL0GNrneF-115" value="" style="rounded=1;whiteSpace=wrap;html=1;" parent="1DbYmDpJq_CyL0GNrneF-96" vertex="1">
          <mxGeometry x="10" y="230" width="80" height="50" as="geometry" />
        </mxCell>
        <mxCell id="1DbYmDpJq_CyL0GNrneF-114" value="" style="rounded=1;whiteSpace=wrap;html=1;" parent="1DbYmDpJq_CyL0GNrneF-96" vertex="1">
          <mxGeometry x="110" y="230" width="80" height="50" as="geometry" />
        </mxCell>
        <mxCell id="1DbYmDpJq_CyL0GNrneF-116" value="Mam치" style="text;html=1;strokeColor=none;fillColor=none;align=center;verticalAlign=middle;whiteSpace=wrap;rounded=0;" parent="1DbYmDpJq_CyL0GNrneF-96" vertex="1">
          <mxGeometry x="20" y="40" width="60" height="30" as="geometry" />
        </mxCell>
        <mxCell id="1DbYmDpJq_CyL0GNrneF-122" value="Pap치" style="text;html=1;strokeColor=none;fillColor=none;align=center;verticalAlign=middle;whiteSpace=wrap;rounded=0;" parent="1DbYmDpJq_CyL0GNrneF-96" vertex="1">
          <mxGeometry x="120" y="40" width="60" height="30" as="geometry" />
        </mxCell>
        <mxCell id="1DbYmDpJq_CyL0GNrneF-121" value="Primo" style="text;html=1;strokeColor=none;fillColor=none;align=center;verticalAlign=middle;whiteSpace=wrap;rounded=0;" parent="1DbYmDpJq_CyL0GNrneF-96" vertex="1">
          <mxGeometry x="20" y="112.5" width="60" height="30" as="geometry" />
        </mxCell>
        <mxCell id="1DbYmDpJq_CyL0GNrneF-120" value="Abuela" style="text;html=1;strokeColor=none;fillColor=none;align=center;verticalAlign=middle;whiteSpace=wrap;rounded=0;" parent="1DbYmDpJq_CyL0GNrneF-96" vertex="1">
          <mxGeometry x="120" y="112.5" width="60" height="30" as="geometry" />
        </mxCell>
        <mxCell id="1DbYmDpJq_CyL0GNrneF-119" value="Tios" style="text;html=1;strokeColor=none;fillColor=none;align=center;verticalAlign=middle;whiteSpace=wrap;rounded=0;" parent="1DbYmDpJq_CyL0GNrneF-96" vertex="1">
          <mxGeometry x="20" y="180" width="60" height="30" as="geometry" />
        </mxCell>
        <mxCell id="1DbYmDpJq_CyL0GNrneF-118" value="Abuelo" style="text;html=1;strokeColor=none;fillColor=none;align=center;verticalAlign=middle;whiteSpace=wrap;rounded=0;" parent="1DbYmDpJq_CyL0GNrneF-96" vertex="1">
          <mxGeometry x="120" y="180" width="60" height="30" as="geometry" />
        </mxCell>
        <mxCell id="1DbYmDpJq_CyL0GNrneF-117" value="Hermana" style="text;html=1;strokeColor=none;fillColor=none;align=center;verticalAlign=middle;whiteSpace=wrap;rounded=0;" parent="1DbYmDpJq_CyL0GNrneF-96" vertex="1">
          <mxGeometry x="20" y="240" width="60" height="30" as="geometry" />
        </mxCell>
        <mxCell id="1DbYmDpJq_CyL0GNrneF-123" value="Hermanos" style="text;html=1;strokeColor=none;fillColor=none;align=center;verticalAlign=middle;whiteSpace=wrap;rounded=0;" parent="1DbYmDpJq_CyL0GNrneF-96" vertex="1">
          <mxGeometry x="120" y="240" width="60" height="30" as="geometry" />
        </mxCell>
      </root>
    </mxGraphModel>
  </diagram>
  <diagram name="Copia de Pantallas principales de la aplicaci칩n " id="X4mNkTNmc36KHDNwID1I">
    <mxGraphModel dx="670" dy="508" grid="1" gridSize="10" guides="1" tooltips="1" connect="1" arrows="1" fold="1" page="1" pageScale="1" pageWidth="827" pageHeight="1169" math="0" shadow="0">
      <root>
        <mxCell id="4Ike_zhJzEvBmacQG7lJ-0" />
        <mxCell id="4Ike_zhJzEvBmacQG7lJ-1" parent="4Ike_zhJzEvBmacQG7lJ-0" />
        <mxCell id="4Ike_zhJzEvBmacQG7lJ-35" value="Tem치ticas&amp;nbsp;" style="swimlane;whiteSpace=wrap;html=1;fillColor=#a20025;fontColor=#ffffff;strokeColor=#6F0000;" parent="4Ike_zhJzEvBmacQG7lJ-1" vertex="1">
          <mxGeometry x="60" y="390" width="240" height="300" as="geometry" />
        </mxCell>
        <mxCell id="4Ike_zhJzEvBmacQG7lJ-36" value="" style="rounded=1;whiteSpace=wrap;html=1;" parent="4Ike_zhJzEvBmacQG7lJ-35" vertex="1">
          <mxGeometry x="10" y="45" width="100" height="60" as="geometry" />
        </mxCell>
        <mxCell id="4Ike_zhJzEvBmacQG7lJ-37" value="Profesiones" style="text;html=1;strokeColor=none;fillColor=none;align=center;verticalAlign=middle;whiteSpace=wrap;rounded=0;" parent="4Ike_zhJzEvBmacQG7lJ-35" vertex="1">
          <mxGeometry x="17" y="60" width="86" height="30" as="geometry" />
        </mxCell>
        <mxCell id="4Ike_zhJzEvBmacQG7lJ-38" value="" style="rounded=1;whiteSpace=wrap;html=1;" parent="4Ike_zhJzEvBmacQG7lJ-35" vertex="1">
          <mxGeometry x="120" y="45" width="100" height="60" as="geometry" />
        </mxCell>
        <mxCell id="4Ike_zhJzEvBmacQG7lJ-39" value="Alimentos" style="text;html=1;strokeColor=none;fillColor=none;align=center;verticalAlign=middle;whiteSpace=wrap;rounded=0;" parent="4Ike_zhJzEvBmacQG7lJ-35" vertex="1">
          <mxGeometry x="127" y="60" width="86" height="30" as="geometry" />
        </mxCell>
        <mxCell id="4Ike_zhJzEvBmacQG7lJ-40" value="" style="rounded=1;whiteSpace=wrap;html=1;" parent="4Ike_zhJzEvBmacQG7lJ-35" vertex="1">
          <mxGeometry x="7" y="120" width="103" height="60" as="geometry" />
        </mxCell>
        <mxCell id="4Ike_zhJzEvBmacQG7lJ-41" value="Tecnologias" style="text;html=1;strokeColor=none;fillColor=none;align=center;verticalAlign=middle;whiteSpace=wrap;rounded=0;" parent="4Ike_zhJzEvBmacQG7lJ-35" vertex="1">
          <mxGeometry x="15.5" y="135" width="86" height="30" as="geometry" />
        </mxCell>
        <mxCell id="4Ike_zhJzEvBmacQG7lJ-42" value="" style="rounded=1;whiteSpace=wrap;html=1;" parent="4Ike_zhJzEvBmacQG7lJ-35" vertex="1">
          <mxGeometry x="120" y="120" width="100" height="60" as="geometry" />
        </mxCell>
        <mxCell id="4Ike_zhJzEvBmacQG7lJ-43" value="" style="rounded=1;whiteSpace=wrap;html=1;" parent="4Ike_zhJzEvBmacQG7lJ-35" vertex="1">
          <mxGeometry x="7" y="200" width="100" height="60" as="geometry" />
        </mxCell>
        <mxCell id="4Ike_zhJzEvBmacQG7lJ-44" value="" style="rounded=1;whiteSpace=wrap;html=1;" parent="4Ike_zhJzEvBmacQG7lJ-35" vertex="1">
          <mxGeometry x="120" y="200" width="100" height="60" as="geometry" />
        </mxCell>
        <mxCell id="4Ike_zhJzEvBmacQG7lJ-45" value="Diferencias" style="text;html=1;strokeColor=none;fillColor=none;align=center;verticalAlign=middle;whiteSpace=wrap;rounded=0;" parent="4Ike_zhJzEvBmacQG7lJ-35" vertex="1">
          <mxGeometry x="127" y="135" width="86" height="30" as="geometry" />
        </mxCell>
        <mxCell id="4Ike_zhJzEvBmacQG7lJ-46" value="Casa" style="text;html=1;strokeColor=none;fillColor=none;align=center;verticalAlign=middle;whiteSpace=wrap;rounded=0;" parent="4Ike_zhJzEvBmacQG7lJ-35" vertex="1">
          <mxGeometry x="127" y="215" width="86" height="30" as="geometry" />
        </mxCell>
        <mxCell id="4Ike_zhJzEvBmacQG7lJ-47" value="Hospital Salud" style="text;html=1;strokeColor=none;fillColor=none;align=center;verticalAlign=middle;whiteSpace=wrap;rounded=0;" parent="4Ike_zhJzEvBmacQG7lJ-35" vertex="1">
          <mxGeometry x="15.5" y="215" width="86" height="30" as="geometry" />
        </mxCell>
        <mxCell id="WclL4bVT5DtBBkO-e7R2-0" value="Tem치ticas&amp;nbsp;" style="swimlane;whiteSpace=wrap;html=1;fillColor=#a20025;fontColor=#ffffff;strokeColor=#6F0000;" parent="4Ike_zhJzEvBmacQG7lJ-1" vertex="1">
          <mxGeometry x="60" y="60" width="240" height="300" as="geometry" />
        </mxCell>
        <mxCell id="WclL4bVT5DtBBkO-e7R2-1" value="" style="rounded=1;whiteSpace=wrap;html=1;" parent="WclL4bVT5DtBBkO-e7R2-0" vertex="1">
          <mxGeometry x="10" y="45" width="100" height="60" as="geometry" />
        </mxCell>
        <mxCell id="WclL4bVT5DtBBkO-e7R2-2" value="Abecedario&amp;nbsp;" style="text;html=1;strokeColor=none;fillColor=none;align=center;verticalAlign=middle;whiteSpace=wrap;rounded=0;" parent="WclL4bVT5DtBBkO-e7R2-0" vertex="1">
          <mxGeometry x="17" y="60" width="86" height="30" as="geometry" />
        </mxCell>
        <mxCell id="WclL4bVT5DtBBkO-e7R2-3" value="" style="rounded=1;whiteSpace=wrap;html=1;" parent="WclL4bVT5DtBBkO-e7R2-0" vertex="1">
          <mxGeometry x="120" y="45" width="100" height="60" as="geometry" />
        </mxCell>
        <mxCell id="WclL4bVT5DtBBkO-e7R2-4" value="ESI" style="text;html=1;strokeColor=none;fillColor=none;align=center;verticalAlign=middle;whiteSpace=wrap;rounded=0;" parent="WclL4bVT5DtBBkO-e7R2-0" vertex="1">
          <mxGeometry x="127" y="60" width="86" height="30" as="geometry" />
        </mxCell>
        <mxCell id="WclL4bVT5DtBBkO-e7R2-5" value="" style="rounded=1;whiteSpace=wrap;html=1;" parent="WclL4bVT5DtBBkO-e7R2-0" vertex="1">
          <mxGeometry x="7" y="120" width="103" height="60" as="geometry" />
        </mxCell>
        <mxCell id="WclL4bVT5DtBBkO-e7R2-6" value="Calendario" style="text;html=1;strokeColor=none;fillColor=none;align=center;verticalAlign=middle;whiteSpace=wrap;rounded=0;" parent="WclL4bVT5DtBBkO-e7R2-0" vertex="1">
          <mxGeometry x="15.5" y="135" width="86" height="30" as="geometry" />
        </mxCell>
        <mxCell id="WclL4bVT5DtBBkO-e7R2-7" value="" style="rounded=1;whiteSpace=wrap;html=1;" parent="WclL4bVT5DtBBkO-e7R2-0" vertex="1">
          <mxGeometry x="120" y="120" width="100" height="60" as="geometry" />
        </mxCell>
        <mxCell id="WclL4bVT5DtBBkO-e7R2-8" value="" style="rounded=1;whiteSpace=wrap;html=1;" parent="WclL4bVT5DtBBkO-e7R2-0" vertex="1">
          <mxGeometry x="7" y="200" width="100" height="60" as="geometry" />
        </mxCell>
        <mxCell id="WclL4bVT5DtBBkO-e7R2-9" value="" style="rounded=1;whiteSpace=wrap;html=1;" parent="WclL4bVT5DtBBkO-e7R2-0" vertex="1">
          <mxGeometry x="120" y="200" width="100" height="60" as="geometry" />
        </mxCell>
        <mxCell id="WclL4bVT5DtBBkO-e7R2-10" value="Campamento" style="text;html=1;strokeColor=none;fillColor=none;align=center;verticalAlign=middle;whiteSpace=wrap;rounded=0;" parent="WclL4bVT5DtBBkO-e7R2-0" vertex="1">
          <mxGeometry x="127" y="135" width="86" height="30" as="geometry" />
        </mxCell>
        <mxCell id="WclL4bVT5DtBBkO-e7R2-11" value="Cumplea침os" style="text;html=1;strokeColor=none;fillColor=none;align=center;verticalAlign=middle;whiteSpace=wrap;rounded=0;" parent="WclL4bVT5DtBBkO-e7R2-0" vertex="1">
          <mxGeometry x="127" y="215" width="86" height="30" as="geometry" />
        </mxCell>
        <mxCell id="WclL4bVT5DtBBkO-e7R2-12" value="Cuerpo Humano" style="text;html=1;strokeColor=none;fillColor=none;align=center;verticalAlign=middle;whiteSpace=wrap;rounded=0;" parent="WclL4bVT5DtBBkO-e7R2-0" vertex="1">
          <mxGeometry x="15.5" y="215" width="86" height="30" as="geometry" />
        </mxCell>
        <mxCell id="WclL4bVT5DtBBkO-e7R2-13" value="Tem치ticas&amp;nbsp;" style="swimlane;whiteSpace=wrap;html=1;fillColor=#a20025;fontColor=#ffffff;strokeColor=#6F0000;" parent="4Ike_zhJzEvBmacQG7lJ-1" vertex="1">
          <mxGeometry x="330" y="60" width="240" height="300" as="geometry" />
        </mxCell>
        <mxCell id="WclL4bVT5DtBBkO-e7R2-14" value="" style="rounded=1;whiteSpace=wrap;html=1;" parent="WclL4bVT5DtBBkO-e7R2-13" vertex="1">
          <mxGeometry x="10" y="45" width="100" height="60" as="geometry" />
        </mxCell>
        <mxCell id="WclL4bVT5DtBBkO-e7R2-15" value="Donde Vivo" style="text;html=1;strokeColor=none;fillColor=none;align=center;verticalAlign=middle;whiteSpace=wrap;rounded=0;" parent="WclL4bVT5DtBBkO-e7R2-13" vertex="1">
          <mxGeometry x="17" y="60" width="86" height="30" as="geometry" />
        </mxCell>
        <mxCell id="WclL4bVT5DtBBkO-e7R2-16" value="" style="rounded=1;whiteSpace=wrap;html=1;" parent="WclL4bVT5DtBBkO-e7R2-13" vertex="1">
          <mxGeometry x="120" y="45" width="100" height="60" as="geometry" />
        </mxCell>
        <mxCell id="WclL4bVT5DtBBkO-e7R2-17" value="Que Hora es?" style="text;html=1;strokeColor=none;fillColor=none;align=center;verticalAlign=middle;whiteSpace=wrap;rounded=0;" parent="WclL4bVT5DtBBkO-e7R2-13" vertex="1">
          <mxGeometry x="127" y="60" width="86" height="30" as="geometry" />
        </mxCell>
        <mxCell id="WclL4bVT5DtBBkO-e7R2-18" value="" style="rounded=1;whiteSpace=wrap;html=1;" parent="WclL4bVT5DtBBkO-e7R2-13" vertex="1">
          <mxGeometry x="7" y="120" width="103" height="60" as="geometry" />
        </mxCell>
        <mxCell id="WclL4bVT5DtBBkO-e7R2-19" value="Deportes" style="text;html=1;strokeColor=none;fillColor=none;align=center;verticalAlign=middle;whiteSpace=wrap;rounded=0;" parent="WclL4bVT5DtBBkO-e7R2-13" vertex="1">
          <mxGeometry x="15.5" y="135" width="86" height="30" as="geometry" />
        </mxCell>
        <mxCell id="WclL4bVT5DtBBkO-e7R2-20" value="" style="rounded=1;whiteSpace=wrap;html=1;" parent="WclL4bVT5DtBBkO-e7R2-13" vertex="1">
          <mxGeometry x="120" y="120" width="100" height="60" as="geometry" />
        </mxCell>
        <mxCell id="WclL4bVT5DtBBkO-e7R2-21" value="" style="rounded=1;whiteSpace=wrap;html=1;" parent="WclL4bVT5DtBBkO-e7R2-13" vertex="1">
          <mxGeometry x="7" y="200" width="100" height="60" as="geometry" />
        </mxCell>
        <mxCell id="WclL4bVT5DtBBkO-e7R2-22" value="" style="rounded=1;whiteSpace=wrap;html=1;" parent="WclL4bVT5DtBBkO-e7R2-13" vertex="1">
          <mxGeometry x="120" y="200" width="100" height="60" as="geometry" />
        </mxCell>
        <mxCell id="WclL4bVT5DtBBkO-e7R2-23" value="Educaci칩n&amp;nbsp;" style="text;html=1;strokeColor=none;fillColor=none;align=center;verticalAlign=middle;whiteSpace=wrap;rounded=0;" parent="WclL4bVT5DtBBkO-e7R2-13" vertex="1">
          <mxGeometry x="127" y="135" width="86" height="30" as="geometry" />
        </mxCell>
        <mxCell id="WclL4bVT5DtBBkO-e7R2-24" value="Medidas" style="text;html=1;strokeColor=none;fillColor=none;align=center;verticalAlign=middle;whiteSpace=wrap;rounded=0;" parent="WclL4bVT5DtBBkO-e7R2-13" vertex="1">
          <mxGeometry x="127" y="215" width="86" height="30" as="geometry" />
        </mxCell>
        <mxCell id="WclL4bVT5DtBBkO-e7R2-25" value="Juegos" style="text;html=1;strokeColor=none;fillColor=none;align=center;verticalAlign=middle;whiteSpace=wrap;rounded=0;" parent="WclL4bVT5DtBBkO-e7R2-13" vertex="1">
          <mxGeometry x="15.5" y="215" width="86" height="30" as="geometry" />
        </mxCell>
        <mxCell id="WclL4bVT5DtBBkO-e7R2-26" value="Tem치ticas&amp;nbsp;" style="swimlane;whiteSpace=wrap;html=1;fillColor=#a20025;fontColor=#ffffff;strokeColor=#6F0000;" parent="4Ike_zhJzEvBmacQG7lJ-1" vertex="1">
          <mxGeometry x="587" y="60" width="240" height="300" as="geometry" />
        </mxCell>
        <mxCell id="WclL4bVT5DtBBkO-e7R2-27" value="" style="rounded=1;whiteSpace=wrap;html=1;" parent="WclL4bVT5DtBBkO-e7R2-26" vertex="1">
          <mxGeometry x="10" y="45" width="100" height="60" as="geometry" />
        </mxCell>
        <mxCell id="WclL4bVT5DtBBkO-e7R2-28" value="N칰meros&amp;nbsp;" style="text;html=1;strokeColor=none;fillColor=none;align=center;verticalAlign=middle;whiteSpace=wrap;rounded=0;" parent="WclL4bVT5DtBBkO-e7R2-26" vertex="1">
          <mxGeometry x="17" y="60" width="86" height="30" as="geometry" />
        </mxCell>
        <mxCell id="WclL4bVT5DtBBkO-e7R2-29" value="" style="rounded=1;whiteSpace=wrap;html=1;" parent="WclL4bVT5DtBBkO-e7R2-26" vertex="1">
          <mxGeometry x="120" y="45" width="100" height="60" as="geometry" />
        </mxCell>
        <mxCell id="WclL4bVT5DtBBkO-e7R2-30" value="Sentimientos" style="text;html=1;strokeColor=none;fillColor=none;align=center;verticalAlign=middle;whiteSpace=wrap;rounded=0;" parent="WclL4bVT5DtBBkO-e7R2-26" vertex="1">
          <mxGeometry x="127" y="60" width="86" height="30" as="geometry" />
        </mxCell>
        <mxCell id="WclL4bVT5DtBBkO-e7R2-31" value="" style="rounded=1;whiteSpace=wrap;html=1;" parent="WclL4bVT5DtBBkO-e7R2-26" vertex="1">
          <mxGeometry x="7" y="120" width="103" height="60" as="geometry" />
        </mxCell>
        <mxCell id="WclL4bVT5DtBBkO-e7R2-32" value="Paseando" style="text;html=1;strokeColor=none;fillColor=none;align=center;verticalAlign=middle;whiteSpace=wrap;rounded=0;" parent="WclL4bVT5DtBBkO-e7R2-26" vertex="1">
          <mxGeometry x="15.5" y="135" width="86" height="30" as="geometry" />
        </mxCell>
        <mxCell id="WclL4bVT5DtBBkO-e7R2-33" value="" style="rounded=1;whiteSpace=wrap;html=1;" parent="WclL4bVT5DtBBkO-e7R2-26" vertex="1">
          <mxGeometry x="120" y="120" width="100" height="60" as="geometry" />
        </mxCell>
        <mxCell id="WclL4bVT5DtBBkO-e7R2-34" value="" style="rounded=1;whiteSpace=wrap;html=1;" parent="WclL4bVT5DtBBkO-e7R2-26" vertex="1">
          <mxGeometry x="7" y="200" width="100" height="60" as="geometry" />
        </mxCell>
        <mxCell id="WclL4bVT5DtBBkO-e7R2-35" value="" style="rounded=1;whiteSpace=wrap;html=1;" parent="WclL4bVT5DtBBkO-e7R2-26" vertex="1">
          <mxGeometry x="120" y="200" width="100" height="60" as="geometry" />
        </mxCell>
        <mxCell id="WclL4bVT5DtBBkO-e7R2-36" value="Presentandonos" style="text;html=1;strokeColor=none;fillColor=none;align=center;verticalAlign=middle;whiteSpace=wrap;rounded=0;" parent="WclL4bVT5DtBBkO-e7R2-26" vertex="1">
          <mxGeometry x="127" y="135" width="86" height="30" as="geometry" />
        </mxCell>
        <mxCell id="WclL4bVT5DtBBkO-e7R2-37" value="Mascotas" style="text;html=1;strokeColor=none;fillColor=none;align=center;verticalAlign=middle;whiteSpace=wrap;rounded=0;" parent="WclL4bVT5DtBBkO-e7R2-26" vertex="1">
          <mxGeometry x="127" y="215" width="86" height="30" as="geometry" />
        </mxCell>
        <mxCell id="WclL4bVT5DtBBkO-e7R2-38" value="Colores" style="text;html=1;strokeColor=none;fillColor=none;align=center;verticalAlign=middle;whiteSpace=wrap;rounded=0;" parent="WclL4bVT5DtBBkO-e7R2-26" vertex="1">
          <mxGeometry x="15.5" y="215" width="86" height="30" as="geometry" />
        </mxCell>
        <mxCell id="WclL4bVT5DtBBkO-e7R2-39" value="Tem치ticas&amp;nbsp;" style="swimlane;whiteSpace=wrap;html=1;fillColor=#a20025;fontColor=#ffffff;strokeColor=#6F0000;" parent="4Ike_zhJzEvBmacQG7lJ-1" vertex="1">
          <mxGeometry x="330" y="390" width="240" height="300" as="geometry" />
        </mxCell>
        <mxCell id="WclL4bVT5DtBBkO-e7R2-40" value="" style="rounded=1;whiteSpace=wrap;html=1;" parent="WclL4bVT5DtBBkO-e7R2-39" vertex="1">
          <mxGeometry x="10" y="45" width="100" height="60" as="geometry" />
        </mxCell>
        <mxCell id="WclL4bVT5DtBBkO-e7R2-41" value="Saludos" style="text;html=1;strokeColor=none;fillColor=none;align=center;verticalAlign=middle;whiteSpace=wrap;rounded=0;" parent="WclL4bVT5DtBBkO-e7R2-39" vertex="1">
          <mxGeometry x="17" y="60" width="86" height="30" as="geometry" />
        </mxCell>
        <mxCell id="WclL4bVT5DtBBkO-e7R2-42" value="" style="rounded=1;whiteSpace=wrap;html=1;" parent="WclL4bVT5DtBBkO-e7R2-39" vertex="1">
          <mxGeometry x="120" y="45" width="100" height="60" as="geometry" />
        </mxCell>
        <mxCell id="WclL4bVT5DtBBkO-e7R2-43" value="Abecedario&amp;nbsp;" style="text;html=1;strokeColor=none;fillColor=none;align=center;verticalAlign=middle;whiteSpace=wrap;rounded=0;" parent="WclL4bVT5DtBBkO-e7R2-39" vertex="1">
          <mxGeometry x="127" y="60" width="86" height="30" as="geometry" />
        </mxCell>
        <mxCell id="WclL4bVT5DtBBkO-e7R2-44" value="" style="rounded=1;whiteSpace=wrap;html=1;" parent="WclL4bVT5DtBBkO-e7R2-39" vertex="1">
          <mxGeometry x="7" y="120" width="103" height="60" as="geometry" />
        </mxCell>
        <mxCell id="WclL4bVT5DtBBkO-e7R2-45" value="Escuela&amp;nbsp;" style="text;html=1;strokeColor=none;fillColor=none;align=center;verticalAlign=middle;whiteSpace=wrap;rounded=0;" parent="WclL4bVT5DtBBkO-e7R2-39" vertex="1">
          <mxGeometry x="15.5" y="135" width="86" height="30" as="geometry" />
        </mxCell>
        <mxCell id="WclL4bVT5DtBBkO-e7R2-46" value="" style="rounded=1;whiteSpace=wrap;html=1;" parent="WclL4bVT5DtBBkO-e7R2-39" vertex="1">
          <mxGeometry x="120" y="120" width="100" height="60" as="geometry" />
        </mxCell>
        <mxCell id="WclL4bVT5DtBBkO-e7R2-47" value="" style="rounded=1;whiteSpace=wrap;html=1;" parent="WclL4bVT5DtBBkO-e7R2-39" vertex="1">
          <mxGeometry x="7" y="200" width="100" height="60" as="geometry" />
        </mxCell>
        <mxCell id="WclL4bVT5DtBBkO-e7R2-48" value="" style="rounded=1;whiteSpace=wrap;html=1;" parent="WclL4bVT5DtBBkO-e7R2-39" vertex="1">
          <mxGeometry x="120" y="200" width="100" height="60" as="geometry" />
        </mxCell>
        <mxCell id="WclL4bVT5DtBBkO-e7R2-49" value="Familia" style="text;html=1;strokeColor=none;fillColor=none;align=center;verticalAlign=middle;whiteSpace=wrap;rounded=0;" parent="WclL4bVT5DtBBkO-e7R2-39" vertex="1">
          <mxGeometry x="127" y="135" width="86" height="30" as="geometry" />
        </mxCell>
        <mxCell id="WclL4bVT5DtBBkO-e7R2-50" value="Ropa" style="text;html=1;strokeColor=none;fillColor=none;align=center;verticalAlign=middle;whiteSpace=wrap;rounded=0;" parent="WclL4bVT5DtBBkO-e7R2-39" vertex="1">
          <mxGeometry x="127" y="215" width="86" height="30" as="geometry" />
        </mxCell>
        <mxCell id="WclL4bVT5DtBBkO-e7R2-51" value="Playa" style="text;html=1;strokeColor=none;fillColor=none;align=center;verticalAlign=middle;whiteSpace=wrap;rounded=0;" parent="WclL4bVT5DtBBkO-e7R2-39" vertex="1">
          <mxGeometry x="15.5" y="215" width="86" height="30" as="geometry" />
        </mxCell>
        <mxCell id="WclL4bVT5DtBBkO-e7R2-52" value="Tem치ticas&amp;nbsp;" style="swimlane;whiteSpace=wrap;html=1;fillColor=#a20025;fontColor=#ffffff;strokeColor=#6F0000;" parent="4Ike_zhJzEvBmacQG7lJ-1" vertex="1">
          <mxGeometry x="587" y="390" width="240" height="300" as="geometry" />
        </mxCell>
        <mxCell id="WclL4bVT5DtBBkO-e7R2-53" value="" style="rounded=1;whiteSpace=wrap;html=1;" parent="WclL4bVT5DtBBkO-e7R2-52" vertex="1">
          <mxGeometry x="10" y="45" width="100" height="60" as="geometry" />
        </mxCell>
        <mxCell id="WclL4bVT5DtBBkO-e7R2-54" value="Animales" style="text;html=1;strokeColor=none;fillColor=none;align=center;verticalAlign=middle;whiteSpace=wrap;rounded=0;" parent="WclL4bVT5DtBBkO-e7R2-52" vertex="1">
          <mxGeometry x="17" y="60" width="86" height="30" as="geometry" />
        </mxCell>
        <mxCell id="WclL4bVT5DtBBkO-e7R2-55" value="" style="rounded=1;whiteSpace=wrap;html=1;" parent="WclL4bVT5DtBBkO-e7R2-52" vertex="1">
          <mxGeometry x="120" y="45" width="100" height="60" as="geometry" />
        </mxCell>
        <mxCell id="WclL4bVT5DtBBkO-e7R2-56" value="Barrios&amp;nbsp;" style="text;html=1;strokeColor=none;fillColor=none;align=center;verticalAlign=middle;whiteSpace=wrap;rounded=0;" parent="WclL4bVT5DtBBkO-e7R2-52" vertex="1">
          <mxGeometry x="127" y="60" width="86" height="30" as="geometry" />
        </mxCell>
        <mxCell id="WclL4bVT5DtBBkO-e7R2-57" value="" style="rounded=1;whiteSpace=wrap;html=1;" parent="WclL4bVT5DtBBkO-e7R2-52" vertex="1">
          <mxGeometry x="7" y="120" width="103" height="60" as="geometry" />
        </mxCell>
        <mxCell id="WclL4bVT5DtBBkO-e7R2-58" value="Localidades" style="text;html=1;strokeColor=none;fillColor=none;align=center;verticalAlign=middle;whiteSpace=wrap;rounded=0;" parent="WclL4bVT5DtBBkO-e7R2-52" vertex="1">
          <mxGeometry x="15.5" y="135" width="86" height="30" as="geometry" />
        </mxCell>
        <mxCell id="WclL4bVT5DtBBkO-e7R2-59" value="" style="rounded=1;whiteSpace=wrap;html=1;" parent="WclL4bVT5DtBBkO-e7R2-52" vertex="1">
          <mxGeometry x="120" y="120" width="100" height="60" as="geometry" />
        </mxCell>
        <mxCell id="WclL4bVT5DtBBkO-e7R2-60" value="" style="rounded=1;whiteSpace=wrap;html=1;" parent="WclL4bVT5DtBBkO-e7R2-52" vertex="1">
          <mxGeometry x="7" y="200" width="100" height="60" as="geometry" />
        </mxCell>
        <mxCell id="WclL4bVT5DtBBkO-e7R2-61" value="" style="rounded=1;whiteSpace=wrap;html=1;" parent="WclL4bVT5DtBBkO-e7R2-52" vertex="1">
          <mxGeometry x="120" y="200" width="100" height="60" as="geometry" />
        </mxCell>
        <mxCell id="WclL4bVT5DtBBkO-e7R2-62" value="Fiestas Patrias" style="text;html=1;strokeColor=none;fillColor=none;align=center;verticalAlign=middle;whiteSpace=wrap;rounded=0;" parent="WclL4bVT5DtBBkO-e7R2-52" vertex="1">
          <mxGeometry x="127" y="135" width="86" height="30" as="geometry" />
        </mxCell>
        <mxCell id="WclL4bVT5DtBBkO-e7R2-63" value="Comidas" style="text;html=1;strokeColor=none;fillColor=none;align=center;verticalAlign=middle;whiteSpace=wrap;rounded=0;" parent="WclL4bVT5DtBBkO-e7R2-52" vertex="1">
          <mxGeometry x="127" y="215" width="86" height="30" as="geometry" />
        </mxCell>
        <mxCell id="WclL4bVT5DtBBkO-e7R2-64" value="Plantas" style="text;html=1;strokeColor=none;fillColor=none;align=center;verticalAlign=middle;whiteSpace=wrap;rounded=0;" parent="WclL4bVT5DtBBkO-e7R2-52" vertex="1">
          <mxGeometry x="15.5" y="215" width="86" height="30" as="geometry" />
        </mxCell>
      </root>
    </mxGraphModel>
  </diagram>
  <diagram id="zrMsnCuq4izR2l7xYGY3" name="Caso de Uso">
    <mxGraphModel dx="670" dy="508" grid="1" gridSize="10" guides="1" tooltips="1" connect="1" arrows="1" fold="1" page="1" pageScale="1" pageWidth="827" pageHeight="1169" math="0" shadow="0">
      <root>
        <mxCell id="0" />
        <mxCell id="1" parent="0" />
        <mxCell id="39mSCXfNu7TNWKa0yEvW-5" value="" style="shape=image;verticalLabelPosition=bottom;labelBackgroundColor=default;verticalAlign=top;aspect=fixed;imageAspect=0;image=data:image/png,iVBORw0KGgoAAAANSUhEUgAAAeoAAAGaCAYAAADATwD7AAAgAElEQVR4Xu29C3xV1Zk2/iQ6Jh/8SBWIoOdYL3H+U+CjBkWILbdyERQVgki1UK6KwiDFGT8piloElEs6ZYBCQRFEHRjBAKIWFKoIrQlgCXWE2pnQOiZaDOAIH3yEQvJfa5/snJNzTs5t39be+9n99Uc8e6/b875rP/t91/uuldW+7VX1iLj+7u8u1v7rb387H/mz9neie/J+frvWqDl6Iq1ybC8+1sQzfR2kfnL+Rb98+H7h+8UsnXDy/ZJFog6L0UlBxHzd8MMn7Y9Fyo9EbdZLmR/K/FBOR5es1hcSdYreBKsFQaJO7YOJFhItpHReoNQX6osX9IVETaJuRIBLF+kt99CCpwVvFgnQEKAFn0iXsq664toma9QXXRxao75wPvalleieLNO67aU4cex/YozDTOtke8QzWpky1SXqZ/pzmvOP84/zL4yAk/OBRB2hiU4KIp7rmx8+6X0sUn4kFhKLGsTC91lqckjV8KDrm65vur4zzHSg65uub7q+U4stoWvfmGufRE2iJlGTqNOOsOeL19iLN57FyRgRxohE6kWkIUCiJlGTqEnUJOo4zEniJHE2R5x2f2iRqEnUJGoSNYmaRN2IQKYpbVwKsm4piERNoiZRk6hJ1CRqErVAINOPFKuXghj1zajvRgQYZc4o80i+YhQ9o+gZRZ9a9LZ8ysr3J4naRKKe9cyTMd/lWdnZ2m/1dXVp3ZMP5+Regtqz59Iqx/biY00809fBRLpEPIln9IvJL/pS9XkVlv9yRcx72VKi5l7fYbyNrrGsWrMSo0eOjxdnwN+IABEgAkTAAwisffXFuO95K4MPuUYdoTgkag/MIg6BCBABImAhAiTqKHCNEme6R3UabY8WtYWzg1UTASJABBRAgERNolZADdkFIkAEiAARaA4BEjWJmrODCBABIkAEFEaARE2iVlg92TUiQASIABFwhKg7dypscsxldnaWJom6uiY/a78luifvt2iZizOnz4q/9LKyrnpRLpSilG6dbmtvYckCRn1zHhMBIkAEPIzAug0vY+qUaTEjtJL/GPUdATeDyTw8uzg0IkAEiIAJCDhiUZubR90GNUePx0CR6bZsyYlTrfYY9W3CLGAVRIAIEAGFEWieqK3jI1rUtKgVnhLsGhEgAkRALQQ8YFFbd3pIPFFZuRNMJu3RolZrQrE3RIAIEAGzEfAAUVtn+scnTrXaI1GbPSVYHxEgAkRALQQccX1fdcW1TcK7E52Yw9N0Ep+ms/KFZYz6VmtOsTdEgAgQAVMRePnfVmP8mAdi6rT0UA4SdRhvox8iJGpT5wMrIwJEgAgoh4AjRG1u1DfXqHl6lnLzih0iAkSACJiGgAfWqEnUJGrT5gMrIgJEgAgohwCJOkokyfOo1fowYDCZcnOKHSICRIAImIoAiZpEbapCsTIiQASIABEwFwESNYnaXI1ibUSACBABImAqAo4QNaO+wzJk1Lep+szKiAARIAKeQ8CRqG8SNYnaczOJAyICRIAIWISAI0TN9KywNI0GrzGYzKKZwWqJABEgAoog4Ijrm0RNolZE/9kNIkAEiIDyCJCoo0Rk1ML929/Oxwg90yM3ZUXJDgGhRa38HGMHiQARIAKGECBRk6gNKRALEwEiQASIgLUIkKhJ1NZqGGsnAkSACBABQwg4QtSM+g7LjOlZhvSXhYkAESACnkfAkahvEjWJ2vMziwMkAoogEAhciUAwAPmvvALB0L/a34FA49/V1dXa39VVX0T89gX2lu9TZCT+7YYjRM2o77DCGQ1eYzCZfycvR04EIhHQCblb966NJNyt+83YVLq5kYCrqyNIuCpEzE3qEIQeIvAwmcs6tN8EwUsSl8Qt6yGB26d/jri+SdQkavtUnC0RAe8iIAm1+O4hjZaxtIr3lu+3jERlezpxy38leW96fUsjeXsXaWdHRqKOwt+ohcv0LGcVmq0TAa8joJNz8bChmrVsJTEnw1InbknauvXuZH+S9det90nUJGq36i77TQR8g0A0OUsrNtKNrQoQej8laUvX+NLFy1Xpmqv7QaImUbtagdl5IuBlBCIJeuniZcKC3uKK4UZa2tIdT8I2JjYSNYnamAaxNBEgAqYjoBO0rFhV6znVQRcPG6K5xSVhu30sqY7Z7OccIerOnQrrIweSnZ2l/WddXZOftd8S3ZP3W7TMxZnTZ8VfellZV70ol51RnW5rb2HJAoweOd5svWB9RIAIOITAlKmTtOAwaUGr6N7OFBb58TFl6mSNsGlhp4fiug0vY+qUaTGFrOS/LEZ9h/E2GrzG9Kz0FJ5PEwFVEZBE9tyCORqJeTn1SX6IyEC40SPHeepDxEq9csSiNpeo26Dm6PEYjDI9CCM5carVHonayunBuomAPQjoVvSM6TPtadDhVmhdpyeA5onaOj6iRR0ho+QfBq3Fh8iJZj9ESNTpKTyfJgIqIeAXK7o5zGldp6aNHrCoExOZ3XnNdrdHok5N0fkUEVANAUnSa19djX59BqrWNVv7o3+szHhsJl3hzSDvAaK2zvSPh1l+O7XaI1Hb+k5hY0TAFARkFLS0JhkIGoKTZJ1YrRxxffNQjrBQeHqWKe89VkIEXIMASTq+qEjWzauwI4dykKhJ1K55q7KjRMBEBEjSicEkWcfHxxGiNjfqm2vUdJ+Z+CZlVUTAQgSac2Fa2KTrqubafazIPLBGTaImUbvuXcQO+xAB+bL1eo60WWKVu5nJk7m4MUoIURJ1lGYZTZdi1LdZU5X1EAHvIBA6XaoriScNkT43f462t7mXN39JFQ4SNYk6VV3hc0SACGSIAF3e6QNHF3gYMxI1iTr9GcQSRIAIpIwALcOUoYp5ULrA5eWWU8MyH2niko4QNaO+w0JhepZVqs16iYAaCEii9svWoGYjrkeB+z0Ox5GobxI1idrsCc36iICKCNAiNC4VuTHM3vL9vl6rdoSomZ4VVl6jwWvcmcz4i4A1EAGrEODatHFk9QM8/OyVcMT1TaImURufvqyBCKiNAAnGPPn4ffmARB2lS0YtXKZnmTc5WRMRcDMCdHubJz2/u79J1CRq82YTayICRKARAWkFLl28zIIToe7Divf/GUWtI8CuLMUNxc8aQD+AkdOH4Zv5S9Bl02tA8QjMNlCb2UVlHrr0UPg1+ptETaI2e06xPiJABAQC1rtrZ+Gt3wew8cb7sVoifnV3DOjSBucq38auj4EOfXviW2dy0LZ9LSo3H8PlQ68FGu6J86pQdNsNaJtzStzbjcOdH8b6Rd1R9sR0bG9xHfAb8ZuoskPf21GQcxwVvy5Hlf7feedw7MAOlH0mfujcE3cUtMKpxnqtEb3fN4xxhKgZ9R1WZqZnWTOxWSsRcBqBne9vt/is6Qii7jELpfMKUVN2BPldr8OhZ0T+8fT9KKrZjUMtC9E7WIMDu04i2DsXG28eBbzyHoaf34uKC98Rlvlu9Hi1Fd7650JUvvgsTg5/HBg4BJVrtmFk7mFUnO2AQqzDzGPDUFJwBGVV+SjqWIN5T5/DpFltcPgAUNg3D+/eOALzLQLd7+v9jkR9k6hJ1BbNZ1ZLBJRBwFaLep7YavO7R/DBoXPANd1QdGIh3r96KvJmD8LUv38BO/rtRv9RL2HO9i0aCc/sex+m9ytE4Oob0Du/HDcMPII123ti18D7UaA9sx7BnYNR0W8UFqEDiopOoux0Bzw0fACuD16LXh1PYvm9f8SdGwcj59MKlL2zErPXShvcusvPEfSOEDWjvsPKbDR4jelZ1r0YWDMRMIKA9cQSYVHP3YI97Usxb2sNcH1HdPpkHVpNWxYi5XEv4C1B1IMbiXoF8nZOBTYsxusVvfHkrLPon5Cox+DJp07hXJeH0f3ASix/pxVGzu2GXeNLca4HUHVRAX40fhhyXvwBxq41gljistZ/+FjXd6M1O+L6JlGTqI0qLssTAdURsJ5YIoj66jFY89JY5FVVIueafBx4Srq+G6znGKIWQWdvz0OXLytQc0UhOrY4jGf6vIlb35+JjofWoKxgsEbw7worfW6XU2JtOoBWB57CxvZPaK7wypwO6BI8ideH70V3YVHj00rkFQjX973C9S3XrS24pOu7+O4hvj3UhEQdpVRGLVymZ1kwS1klEXAhAtZFfbsQDINd9nuqG4maRG1wCrE4ESAC8RDwe+6vmVpBon4R8fY7z2/XGjVHT8RAncjgTPVeFl3fdH2bOYlZFxFQEQG/5/6aKRO/eydoUdOiNnM+sS4iQAQaEOB5yuapgvXr/eb11YqaHCHqzp0K6yMHk52dpf1nXV2Tn7XfEt2T91u0zMWZ02fFX3pZWVe9KJedUZ1ua29hyYK4LhErlIV1EgEikB4CdH+nh1e8p/3u9paYrNvwMqZOmRYDj5X8R9d3BNxGg9eYnmX8RcAaiIBVCPh9ow4zcLU+zc2MXlpbhyMWtblr1G3EYvrxGJRSXTCPLpicONVqj0Rt7QRh7UTAKAJ+d9sawY8fOiH0midq6/iIFjUtaiNzl2WJgKsQkEFl0n3r5/OUMxWYJKgZj8204GCTTHvkTDkPWNTWhafHE4mV4fCZtEeL2pmJw1aJQDoIcK06HbRCz0rMqqu+8O2JWZGIeYCorTP94xOnWu2RqNN/AbAEEbAbAenCfW7BHAZ+pgg88WoKlCOubx7KERYCT89KcebyMSLgcgToAk9dgHR5N8XKkUM5SNQk6tSnLJ8kAt5BQLpz5bV08XLvDMrkkcjgu02l4jSw8n0m1+ze6hwhanOjvrlGHW9rOfeqJHtOBLyNAMm6eflKkpYELYmaVxgBD6xRk6hJ1JzSRMBdCJCsY+UlyUh6GmhJx8eGe31H4JI8j1qtDwMGk7nrBc3e+hMBGRwVCAaakBDJuqnFSJJufm7Qoo7ChkTtzxcpR00ErEBAEvSMmdPRf0BfLR842qXrd7LWo7tJ0om1j0RNorbi/cQ6iYCvEZAEfPsdt6Ft2zbIy8vDf3/237i13+C4mMhocPm838hKbgIzZepkbSMYursVJGpGfYeFwvQsX7/POXgPIiBJt5+woIOBgDgeqF4jaklEiWJJpGWpHYsZvNLzEeG6FS0xYfR7ahPAkahvEjWJOjX15FNEwL0ISIvx3h+NwLXXXYODFR/jgfEPJR2M161rWtFJVSDuA44QNdOzwrIwuibOYLLMFJ+liICVCOiEK9eld+7aHnd9urn2pcVZfPcQBIRF7pV8YullkJjQis5M67hGzTXqzDSHpYgAEYiLgCTata+uRr8+A7X7Mjd46eJlaR8soRN28bChWnk35haToM2ZJCRqErU5msRaiAARaCRmMy1hnbDdYpF64QNDNVUmUZOoVdNJ9ocIuBYBKzftiAw400l7b/l+JSKmoz8mVOmXaxUpquMkahK1V3SZ4yACjiJg5x7V+gYqMjhLv8y04pMBqbffrXtXcdb2UOGW3yw+GNT4aEjWdzfed4SoGfUdVhWmZ7lx2rDPRKApApIwnUyt0q1taWnLS/ZFnuUsg7eqq0P/ZnJFErJWrwhw06356upqpldlAmoGZRyJ+iZRk6gz0FUWIQJKIqBHeKu0574kWHnpxK3naEvyliQeeem/yX91ktfvy98kIdNadlb1HCFqpmeFhc70LGcnAFsnAkYQ0DfvUImkjYyHZdVEwBHXN4maRK3mdGCviEDqCEiS1rfATL0UnyQC6SNAoo7CzKiF+7e/nY+RQqI6jbbHDU/SV3qWIAJmIGBlhLcZ/WMd3kGARE2i9o42cyREwCYESNI2Ac1mNARI1CRqTgUiQATSQEDutiWDrNy4U1gaw+SjCiFAolaYqLOystD28stQc/REs+50ur4Vmk3siucRkNHTMhVLHs3IiwjYhYAjRN25U2F95ACzs7O0/6yra/Kz9luie/J+i5a5OHP6rPhLLyvrqhflsjOq023tLSxZkPD4PLsUie0QAa8joGIaltcx5/hCCKzb8DKmTpkWA4eV/JfFqO8w3gwm41QkAuojEH3Qhvo9Zg+9hIAjFrW5RN1GuIaPx8gk00jr5MSpVnsvrF6BMaMmeEknORYioBwCmZ6ApdxA2CFXItA8UVvHR7SoI1Ql+YdB64Rr1JKox/74ftTXxy4buFIj2WkioBgCjPBWTCA+7I4HLOrERGZ3XrOd7cl1+JWrlpOofThxOWR7ELDzoA17RsRW3IiAB4jaOtM/nkDz26nVHl3fbpx27LMbEHD6oA03YMQ+2oOAI65vHsoRFq6R07Nk+tbyFUswYeyDuHDhgj0aw1aIgA8QYIS3D4TsoiE6cigHido8ov7VyqUMJnPRhGNX1UeAB22oLyO/9dARojY36tu/a9RSWbnhid+mLMdrJQIkaSvRZd2ZIuCBNWoSNY/Yy1T9WY4INEWAEd7UCBURIFFHScVoupSdUd+0qFWcUuyTWxEgSbtVct7vN4maRO19LecIiUASBHjQBlVEZQRI1CRqlfWTfSMCliPAgzYsh5gNGETAEaJm1HdYakbSs2QtK19YxkM5DE4CFvcvAkzD8q/s3TRyR6K+SdQkajdNEvbVmwjwoA1vytWLo3KEqJmeFVYlo8FrTM/y4rTkmOxAgAdt2IEy2zADAUdc3yRqErUZyss6iECmCDDCO1PkWM4JBEjUUagbtXCZnuWEGrNNIpA6AjxoI3Ws+KQaCJCoSdRqaCJ7QQRsQIAHbdgAMpswHQESNYnadKVihURARQQY4a2iVNinVBBwhKgZ9R0WDdOzUlFTPkMEjCHAPbyN4cfSziLgSNQ3iZpE7azas3U/IeB3kpbjDwQDkP/KKxAM/av9HQg0/l1dXa39XV31RcRvX2Bv+T4/qYuSY3WEqBn1HdYFo8FrTM9Scl6xUwoh4JcIb52Qu3Xv2kjC0t2/qXRzIwFXV0eQcFWImCMvSeghAg+TuaxDJ3hJ4pK4ZT0kcPuU3BHXN4maRG2firMlPyPgdZKWhFp895BGy1haxXvL91tGorI9nbjlv9I63/T6lkby9rOuWTl2EnUUukYtXKZnWamurJsIpI6AVw/a0Mm5eNhQzVq2kpiToa0TtyRt3Xp3sj/J+uvW+yRqErVbdZf9JgLNIuC1gzaiyVlasZFubFVUQe+nxF+6xpcuXq5K11zdDxI1idrVCszOE4FoBLyUhhVJ0EsXLxMW9BZXCDzS0pbueBK2MbGRqEnUxjSIpYmAQgh45aANnaAltKpaz6mKXW4yIz+eJGG7fSypjtns5xwh6s6dCusjB5KdnaX9Z11dk5+13xLdk/dbtMzFmdNnxV96WVlXvSiX3Vhn+yvaY+DAW1FfX48rr7wCFRUH8c72dyxrL1pIVo5vYckCzx5zybQSs6e7vfU5IT+5Lu12MpBjkGlT0oJW0b2dqRZJfZgydbJG2LSw00Nx3YaXMXXKtJhCqfBfpnyUZWfU9x13DtaUY8b0mdqaiVSW7kU3Y6gIxJATITrFgMFk6SmQGU8zrcQMFJ2rg/IzB3s931uSmJdTn+SHiAyEGz1ynKc+RMzRgvi1OGJRm0vUbVBz9HjM6CTh3jX0TnTtepNG0tGX7lqKjlBMTtTNtyfbMD/qO3F7bsujzsrK0jwbTCuxclpbXzflZy7GuhUd711lbktq1EbrOj05NE/U1vGRLRb11dd8G7Pn/iyhWzjejkXJibq1+DA4EffDwBqiTtyem4ha4j1s+FDcedcdeGPLVqaVpDdXHX+aaUHmi8AvVnRzyNG6Tk2nPGBRxyeyu+8pRt2FuqRRklJRIq1qEnVqipPqU/rLfWjxEC3nc8umrZq7S1rVKl1MK4kvDaYFWaelXgl8M4qQ/rEy47GZdIU3A6YHiDq+6T9v4VwsWfTLpIIPJep3bQxuSE7U1rka4skov507Xd9MKzH6+nK2POVnLf5eSiEzAymSdWIUHXF923Eox6QpD+H110qTErVMHci+KBtvbN6qIWX0NKsL58/HIJ6oTqPtrXxhmVJR30wrMeO15VwdlJ/12JOkm/fePLdgDmhZx+LjyKEcdhD1ZEHUH/6uPGn0pHR9b33jLXzRsFm9UeL0M1EzrcT6l7yVLVB+VqIbqpsknRhjWtbx8XGEqM2N+o6/Rs1gMutfOnoLfgmI8WrgC+Vn31xpzoVpXw/Ub4lr97Ey8sAadfNR0TI96wqx2Um85PrmXk7J16gZ9R2pRkwrUf/Fl6iHlJ998vP6SV5mIimXJOXJXNwYJYSqp4laDrDLjV3EhidNdyvSNuwXR8ON/lFswj2JOrXp5hcrrDk03G5dU372broRHbSa2izz91PPzZ+jZe14efOXVCXseaKWG5DoOyfJrzR5bX3jTezbuz/tzUlk2fx2tKjpmgpNL7eup1F+9suPLu9UKSn8HPU0jIUviFofrp4zfeD3B7Sf0t1FjETNYJjo143byJrBTE0laIf8aBmmT9J6Cd24csupYZmPNHFJR4jajqjveNHbk/7xQezf9xF+//sKDZV0I7RlmdZtL8WJY/8Tg2qmKVhGo8ztTM/iSz7+ZLLjZW/GC4Dyc0Z+kqit3ho0OHI+Fk/qhssvygFOluOVRx/Brz6ON97HUboJGFb8rBkqZXkd8XaPtLxRBRtwJOrbbKLu2bMXbr75pibwZjWcnlVfV9f4+83dumou73j39If0e5vF2oh8NvryK1HzJZ949qpO1pSfM/KzxSK8+lFBvj1x6NEhmPkbIPjAC1g/5hwW9ZiMT/r2BH6zG4fRAb37ArvE/dC/h4Gru2NAlzY4V/k2dglSDxb1RPD0ObQqaIVTB3ag7LMQZh363o6CnOOo+HU5qsR/B4v6o7A9cCziGSu5LXr3SCvbUrVuR4jajvSseEFhdH1nroZcY0uOncprapSfM/KzBffHX8Oejm+hx6iXGgYZQMnOV9BqyQ9QM2kLMFAQOGbhre3A4IEI/TsbKJ1XiJqyI8jveh0OPTMElePfw6T8SpT9KQ83dq7GvD6PIH/VNoxseRgVZzug8OJ1GFvWE2v6nUJFVQBFDc+8mRxaQ0/IeaWfgGioIhcXdsT1TaIOa4zRKHM7DuVgWknqM1zFtBLKzxn52UYwc0Vk9NWl6NZI1MCc7b9DcP33UHVvM0R9oBB7v3sEHxw6B1zTDUUnFmJVi6kYuH8Q7l00Bmu298SugbvR+8P7kPvbg8KSbiUs67b44NlqDJjeAcf+UI6yzSuxaGt16uAaeNKO5QMD3bO8KIk6CmKjxJlugJrR9qwmaqaVpD8HVQoeovyck58tbm85vB7zsWNhK/zqlsmomjYLd5wGOk4swDs3j0Jw+zbkThyERyGeWXkW/XWLen8h9rQvxbytNcD1HdHpk3X4auQy9N45BGNX60S9E73fL0bVojUoQz46dRQu863nUCAI/qtWt2PShEIculla69Zffnd/k6hJ1AlnmS2uO+vnua0tqOQCp/zSF71Z8pMfbEsXL0t63kD6PYwt0fup17DwzjzUiBN484MB4E/r8My0Z5E7fRse61iLmgv5CJ5/FzfoRD3xCNa8NBZ5VZXIuSYfB56Sru8tUUR9P47M24K5XWrwX2cKEPxmDca+WYg1wqKu+vQkrr+iGov6PYKNZgwgSR3yg1PKxa/R3yRqEnWzU0Qly9CGd4GpTdhmTSXoNeWXuUjNkJ+T7toOox9G0ZElWL0ncwxUKul3z5AjRG121Heq6VJMz0pv6lnzorkPK6Q7rc8IiHgWh68ZIlo2y5JUFRXSSrwvP+tSjcyQ3873t6NfH2HC8jKMgG3r/YZ7ak0FjkR9k6jDwlQ1j9oMiyK+yor1r98PQ9WNQ/CqTB0RS2QFBUDlZplCIi4tZUSkh1SeQk7LKuz6MojeV4jf21+Cr8Qzp7TUkNrw85174g6ZTtKQYiL2C0PRbTegbc6p8DMNHcnOvgrdB3ZGm8Z7P8Ob27Jw521Po77e/Anm5LqaF+UXK1s9kvlp84UnajQqP2s+lCwZqisq9fMyjiNEzajv8LxQNZjMukkRJmps348+p/ai7P9eh17f2oFuxTVY8/59wP7DyOvaE5dXLUGPnT2x5+EgvvrTQRyuvBa9uxxDWWVbFBYcxuxnc/HYrDY4LDaaK+ybh3dvHIFvXnkPw8/vRcWF76D7ZSJq9e6fo06ycFYWHlq7E3df2Ic/XPgH3JS3B33uadWQsmLNi95JK8AL8itqvRs9iksaJ8tDEbIN3VNbftbJwBW8anon/fzh44jrm0StNlFbSzCRRL0NebMHYeqeBstofQA7+u1Gf5lmoueGCqLeMfgg+g9foqWcdKkUlvcZsenC97vhm1VvIf/Bwcj5tAJl76zE7LXCJu97H6b3K0Tg6hvQO79cBM9EkHDEve9dVo4isfV76Rt1uOv2Waa/VPQKnXi5+EF+Idk25ARHythkSRqRn5GyJg/D9dVJnZYHKfn1NC0SdZQKG7VwvZCeZZ3bVIIdSdRROZ6vCqK+K0TKQRFtWhoUuaGCqN8S5D1YkPect99D/oaF2Pq1zCjpiE/eP4TLrwWqLirAj8YPQ86LC3FyzFRgw2K8XtEbT86S6Sg6Ud+OxTseBjYu0e7N/NlZ3Hob8MbbdcL1bR1RG3WfZvKG9az8dkbL1nqiNiI/O6O+G/Wk76NY88RgXN8itJXoqomPYHXDDmOZ6JIqZazVaVVG2Xw/SNQk6hjtsPYFk4CoB+7AnK3PoM8lJ3G2dQB5n/wc3Xb1ayRquTXimjF5qPpLDq5vXYEnJp3CTzYOBj6tRF6BcH3f+3O0Wj4PXb6sQM0VhejY4jCe6TMZoZ2Tuguij75Xg4d+Ddw1eBbqIraaNXPaOpFW4if5TdJ227Jm6ULqgRH5GSH5THXwofXv4dYDozBsfjWCImVr/XWb0GPsusbtQvHXg3i3TNyT24WKRtq2zxFbgQpPVMcb0Orr0D15aduG5kXGeYgtSIdei1Yn/4w35fajNl8k6hcxeuT4GNStPM0xi65vtV3fjrnsuj6KFY1ByBEAACAASURBVBNrMXviEhQsE/mfXw/C4CeseSNkiTXrerF2Lf6xJJBM77VVaSXSFSjrjpdX6gf5WaMVsbUakZ8Rks90fEVil7LFfWtxQOzv/e7WUmzUiFd8HIvYj9yPD+Jsx57I23kPtnZ8BZNaV+KDr4Lo9V3gyG8P45KiDjjyyCBsvG0LSrpUa7EgcpvQRX3Wo+jtWWh76CDQRZR/53viQyDTHmZWztqPz8z6ZGcpWtS0qGP0zbm0kgBGlszH3QWXACf24l8nlGCXnbPBgrasXC+WL6+evb6Pz/77c2z899cbSZvyM0+QRuRn1sYp6Y4mWDQMw4ffjgHf74hvHVqBHntEnIce+zF0GfZMrMGqE90btgsV8SE7c/Fgv+kY8Epow5Oqext2MxMu8+lb30OHDaNwuHgD7sw5hN+X7cTyZ9aFMjRsvBz7+LRxjImacoSoO3cqbJIMk50tzBpx1dXF5sgkuifLtGiZizOnz4q/9LKyrnpkN5yeFVnnuPFjUXGgAgcPii9DG9rTgbdyfAtLFsR1iRjRL79PCiPYxStrVfSvTgSB4JX4+sTXOHXqFA4f/lTMhzOWH6toNkYq12dEfva6v/ujZPtEnJ04AjPluvTVYtvQVy/B/JWtML0h9gPjXsCeYX/Eqm96NuxCFk5xG6cT9T0iyPNZGeQZEAGcryB/+ShszeslgkFEbMjIMRh+0Ushd7pNl9/d3hLmdRtextQp02IQT4f/0uUjR1zf+gYGsrMTxk7U+pxu4JcsY+WaQDy9T9aeFXt9G3kx2TR3XdWMkQ8fqbfyCohtIbt17xr6OyC2iBSXdK0eO3YMNxQK36W4qqu+0AhakkO89SxXgaZQZ43Kz86Tn7QjLicV4Ju/nkROfj6ObXoE9z57iYjPeAZdTgo3eEEANStHYVdvfV/vWKKeeXEoFuRYTT6uy/kA/+f2lSjaJCxqHMJ/5RUI17lYAxeHc9h18X0EOGJRm7tG3QY1R4/H6Ex09LY+2eSLb+q0f8TMx5/OkKhTay+yQ4kiyZNHmSduzwqiNvJismvyuqWdZGklyYh4b/k+sVd06KW4t3y/IOPqJntHf7jvA1x00UU4WPExHhj/kPYc5WeediSTn2wpmdVMeWQuDyNLD5m3ql7J5onaOj6y3aKOPuZv+IhhuPLKK7B40S+TEnz0A8ks3HSt9ORE3Vp8iIid9qMuvZxVRG3XYQLR4xq58jX02jMCD66Vd1TabjSzyasfeylJNp5FHE3EIULel1Jj0qL+16U/x0+m/HOTMs4G3kiZPYxvvXOPsORCHxjaRiVnVqL/RPvcpSkBmMJDqbhdJZns3LUdH310AI/9009jDuGQcpL1SG8Hr/QQkO/uGY/NtOVgk/R6Zu/THrCoExNZlxu7aC/IyER5SXJy3++yD/fGvBSNEqdbiFq+XKqrv4irbcksBCtVVF8nG7tathJO5Zqpbw2K46j4dblYLhPpImI3stqcNmhbK1JGatqKrUQjtiKV90U6ySUN6ShW9jlR3fIFLV/U0iqWZJ0OESfrs6w3Hqk7Kb9QhPHD6HiqFMPufFbIaSLW75mItn9ZEtrIJkouWprQ6XNoJbeBPbADZWJttYPcWlZELR/WZCyOVnQgHUjHXpdfJM6R80Z6OOT1s9lPaYF9Mlbg/fc+iDk1y1mZJNMkNe9LzORyjl9PzIqUigeIunnT/0pBRrPn/ixmvU6ScaJ7EqB4hCt/z29nnash3nRJ1l6mFvW/Lv0XtGjRAs+vWBXzsncirUQf+7hXtmF4rdguVGxqAnlY/a0BHPiuOIJvzTaMzD2MirMdtO1Gh4ntI1d80h014iUutxsNHqvAB9+IVJOLxSYp99YKq+4+fEtLR7kBWD8BY5+3b00tUo5OWLdOyk8j6u0DkHvhEnwySRy8UvwKSouAHHHE4uBRiJHLrt4iTSi/EmV/ysONIhVoXp9HULQ9aiMcC/Okk1GUfgKZfE5fptD+FgF8od9C8QK3fL8I7du30/6WwXz/+Z//hX/6yf9p/Bg245CPZH310n3i1VSajri+7TqU45k5T+OJnz4Zo7/6QRjt2l2OycKyluvV+mX0kIwL5883216692RFrdteikSng618YVlGgUNyIrz9zhuora0VrWThuTnzG79cnUorkeOVRD3w48V45VP5Xx0x6qme+K8bSxEUO5Tt6nc/VuN2rNjzIGp6VKDL+3mYLV7sHUSZ3rsGCTIOb0W6Z0wuyvYLcr7sO+h1+W50uzO8Z7SdLzQn1iedlF+IqHui4lA+en09GR90/AWCZSfRoavYXU7u2x4ll+Xf9G9IEwqV2zXwfhQoRtSpuKx//4dynNfmfhbWrnk57laXdIGnPvPo8m6KlSOHcthB1KvXvoBfLX8e5R+WJyTOIcV3aevVy3+5QnvOS0QdGagU+vrXI4hD/w4fcXejFXDy5En8+chfGq0Ap1x18V3f6wVRD0ZFv1FYJIngw8E4fMth9GrYlSpcpoGo5Vak94iNGlYJ2V/WEZ2wG/NXx+pB6q+NzJ4cKnRLbqyyedMb2uYqdl5OyU8n6l2zj2Pk4wEcqxVyeKMNnpTbwL4j8nmj5PJVv8cb0oQiibohjxcivWhl5DawdiIIbV1ZXslcr9I7dcv3ipp87DbXUykXefl1z+pUJMhz1GNRcoSozY36jl2jll+uRbd008g3lTXjyJeaKmvUOqm2zr8U/yunZQzJyjxx+UzXm7tq659yLUd3x0kxy//W/m2IGNZ/i1xf+8k/PYybbuoCSdI7332vSbCLU9GWza1Rvyv2/p7b5ZRY87wOwS9X4N6x12FFc0QttyKV6SgnKlF7TRAnX7Lf9X3RxRfhxTUrMfbH99tO0vpHmZ1pQeFXi064z6PTzhfQYZ/YXe5T8QGl7dd+JEYu4TShMFGfkrvSdaxFzYV8BIXLvMnBKqm86U16JtW0oETxHvG6QrJuXkCSpGU8QLKPI5NE7JpqPLBG3ZSo9bWNdHKlI9dDzCDqpmtZAVwsXtpyTfzC+Qsxa1vBqwL4QgR1XSGs+shLEq0k2RYt/5dY8/p/EcQbIuCjR49q5TJdo5Z1hNx1FzBl0k/iBiU54bZ1zcxJ0tGrr/427p84Hk/NnOUIUcvuUX6Za5PVH6ok61jZRGfnZC4975X0HFHrL6d0c5f1ifnUzJ9pUr788su1TSZ060T7VwSQ6MQpg0jkf+uWqyRceUkXZ7Q1+9e/HtXu/fdnn2v/6pGi0ro1+mGQKVGnElHJNbXMJ/zqtc/jqSdm4fPPxXZODl2UX+bA27FGSrIOy4cknVhXPUXUkcJOl6glTHJN6qpvBzWXuZ7WFSJWad2GLNlLL2uFTz7+Y0xqUybtyfqcIupUX2HOrXWm2kP1npOYVX1ejS2btzpmTeuoUH7p60cqH7Hp1xq/hN/JWvdmyjX7VPcPMAt7N9XjGaKOPuUmU+KUu5bt3/cRfvfbsrhy9MOGJ5EDZ5pEetNZNbxU6096aNr/tBN4yXeXJGy/kZU0jPQ4CpK0gha12VHfuTktMOfZWRg/5oHG0SaK3k5076pvXwWZ1jVu9P1xkUuWLpVuCpbRKPNM07PSeQXShZo6Wna4TFPvTehJyi91xJySn/xA0PLfxXKa1yPC9Y8hSc5eH2vqmpf4SUeivs0m6h/+8IeN6VX6cDMlallOpmvdKKKht4i0mujLj0QtMfC7iy6VCadyWgnll1yCKsjP69Y1rejkehjvCUeI2ur0LDnQTF3fRteMU0kHixSE0fYyDSbLRF34sm8eNTeklVB+7pCffhCIDFiVaUpecAtL3dO3vKUVnf7b1zNr1NFDJ1GnrwyplODLPhYlN0WsUn7ukZ9O2MXDhmp7h7sxt5gEncpbNfkzJOoojIxauF62qHWo+LIPK42bSJrycw9JR/ZUJ2y3WKRe+MBITp32PkGiJlFnpHF+J2u3p5VQflfiuQVzXBVpHRlwppO2PJFNBdd49MeEKv3K6OWmYCESNYk6Y7X0euBLc8B4JSCG8pupBMllMgElMcoNmfT9yGUddq5n6+3LI4Sla35T6WbtGFcVPhoywVP1Mo4QtdlR34lOl7I7Xcru9uxIz0qkxEwrUX2KJ+4f5edu+em91+UoP77kpe+aKIlTbtaUKYFGErJWrwhw0615ucUxA8Ps0R9Hor4zJuobnsZrC1ph/cBHUarhcxt+uW0cjr13FB2u3oMRk/+9ETUtPetHi7CuaDdGbAjg0W//C0rkufXiSpa6FfjhTzDk1M+xJDY7K+mxk34jah1wr1tnXrGim3utUH72vHDtakU/b0Anbj1HO/rwHtkf/Td96+Pow30kIdNatkty8dtxhKgzT88K4MmtqxB8aRAe3CgGNHwZ3ptwDD9+6C0UXFGFXWIzsaLbbkBbHMd/7PgI1d/uhu/l16L2h3Mx5+K5ePjh3Th8dXfc1vVyXHLqz9jyzn8gWNQTwdPn0KqgFU4d2IGPvvjfeHh9Cbp9+DQeLRFHIxb1R2H7WlRuFmVFk37bmSwd9WRaSTpoqfcs5aeeTNgjIiARcMT1nTlRA8GnXsOaq9ej/4RSjHtlGwb/x48w/OgC7Ri9rbgPt359EFXBbuh09F8waP9QbO7zF2xEX0zILcWi4bW448NhyPrwDzj3v7uhzc4+2Nr5PUzKr0TZn/JwY+dqLBzwW3R/awpu+HQ1Np4cjAldjqGssi0KCw5j9u1P41C72GM1JZBOpYPZmUed6pTxQtSnn9NKvCI/fe2U7tlUZy6fUxUB1xE1MBHrd3bD9n57MXBPL+y7eyp+fnuIqFefvE+cY3sMB35bjrdfXI63f7BCEPUHGFw1DG9hCAb/FOg9+lEMLAwicFNPtP3wJmwMbsPA/YNw76LQebh77ngIWFOKHjvuQtW9v0OXSmFJnxEfCN/vhm/m/wAzPyRRp6rMTCtJFSk1n3O7/HQXLolaTf1ir1JHwIVEDc2SHnjmGNpeVIr7Hn8fNQ1E/eg753Djn2rQ6s6JmHDjp/je61c2JeqyX2DHwyI6ctkWHPz+TzHj3CBB1FvQe+cQjF0dh6jveQ/5GxZi69fA9R074pNXS1BxlkSdunqFnmRaSbqIqfW8m+Xn9zQ0tTSJvckUAVcStVyb3jP3OpRNGIT5/ymIM9Ki/ocqHDpTgKuqfylc37eFiPrjwdg79Bze2VSJLsWF+OKjYwgUdsAlh+bg1RYPxhB1zZI38cR3DmPjq61w65g8VP0lB9e3rsATdH1nqmeN5ZhWYhhCRytwo/xI1o6qDBs3AQF3EnXEwFUL7vLDzmQm6F0T4g4dUcq0EjNxtasut6QFyah9qWMzps+0Cxq2QwRMQ8ARou7cqbA+cgTZ2Vnaf9bVNflZ+y3RPXm/RctcnDl9Vvyll5V11Yty2RnV6bb2FpYswOiR401TCKcrYlqJ0xIw1r4R+UkilalA8pKpQmanBcm+rX11Nfr1GWhskCxNBGxGYN2GlzF1yrSYVq3kvywjUd/RPaVFvdJTRG2z/rM5hRCQVq/V5zHrW7/OeGymthEILyLgBgQcsajNJeo2qDl6PAZr69Kl1GpPxfQsNyg++6gmAvK4UHlSlJUkSrJWU/bsVfMINE/U1vERLeoIeRg9rYtEzentJQQkiU6ZOtnytWSStZe0xvtj8YBFrVa6FIPJvD9pOEJrEZBWtR0HTLj9BDRrpcDaVULAA0RtnekfT1D57dRqjxa1StOJfTEDATuDvnQLXh5aIT8OeBEBFRFwxPWd8aEccRBs3fZS8PQs70R9qzhJ2Cf7EdCPb7SDPP10gpj9kmSLZiDgyKEcJOqw6BKd5CWfSvYh4vQxl2YoIesgAtEI2LVWrbdLsqYOqoyAI0RtbtQ316i9lEet8mRh3+xFQOZVS8vazk1KuIuZvTJma6kh4IE1ahI1iTo1ZedT7kPAjnStaFRI1u7TE6/3mEQdJWGj6VKM+vb6lOH47ETAbhe4PjaStZ1SZlvJECBRk6iT6QjvEwFHEZCkubd8v/j/Plv7wf3BbYWbjSVAgERNouYEIQJKI6DnOzuxxCPXyaX7nfuDK60inu+cI0TNqO+wXjHq2/NzjAM0AQE707Wiu6vndY8eOc7SrU1NgIlVeBQBR6K+SdQkao/OJw7LIgScWqvWh8MtRy0SLKtNCQFHiJrpWWHZGA1e485kKek5H/IAAk6ka0XCRrL2gBK5dAiOuL5J1CRql84XdtthBOzaB7y5YZKsHVYAnzZPoo4SvFELl+lZPp1JHLYtCDgZWBbpBpcnfNlxcIgtoLIR5REgUZOolVdSdpAIRCLgVLpWtBtcuuIDwSvF+dnLKSAiYCkCJGoStaUKxsqJgNkIqGBVyzFxf3CzJcv6mkPAEaJm1HdYHEzP4uQkAukjINO1VLFmuYtZ+vJjifQQcCTqm0RNok5PTfk0EYhFwIl9wJuTA8maGmolAo4QNaO+wyI1GrzG9CwrpwfrVhkBp3Oro7EhWausLe7umyOubxI1idrd04a9VwUBFQLLIrHg/uCqaIa3+kGijpKnUQuX6VnemiAcjdoIqBJYFokS9wdXW2fc2DsSNYnajXrLPhOBRgSc3Ae8OTFwf3AqqJkIkKhJ1GbqE+siArYjoNpatQ4AdzGzXRU82yCJmkTtWeXmwPyDgHQ3d+veVbnNR0jW/tFBK0fqCFF37lRYHzmo7Ows7T/r6pr8rP2W6J6836JlLs6cPiv+0svKuupFueyM6nRbewtLFsCJc3qtVErWTQQyQUCldK3I/jtN1rL9QDCgbdAiL5l/Hrb6A41/V1dXa39XV30R8dsX2Fu+LxNxsIyJCKzb8DKmTpkWU6OV/JfFqO8w3kaD15ieZeJsYFWuRkBVF7hGjoIkrd4fXCdk6VkItRkQXoabxZ7kmxsJuLo6goSrQsTc5KNCELreX/13WYf2myB4SeKSuGU9JHD7posjFrW5RN0GNUePxyCWiAAzvScbyW+nVnskavsmC1tSHwGnT9dKhFBzW45KIsyU9GSdxXeLXdoEKctLWsV7y/dnXF8yCetjkM/pe51ven1LI3knK8/7mSHQPFFbx0e0qCNkRYs6M8VlKSIQDwE92rpfn4FKAhRN1jJiffS4USi+856U+6uTc/GwoZq1bCUxJ+uUPp5QjEDIeneyP8n669b7HrCoWwuL+oSNFrVa7dGiduvUY7+tQkDFdK3oseq7mP39//f3uOmmLuhxyw8SwhFNztKKjXRjW4VluvXq/dS9BDxZLF0E4z/vAaK2zvSPBxld3+YoHmshAlYhIMli8pSH8MSMp6xqwpR6pZteuq3ltWBeCV584aWYeiMJeuniZdoZ2G64Ii1t6Y4nYRuTmiOubx7KERYaT88ypsAsTQTiISAtuiFD71SSrKU13W9AX+Tl5TVGYn/99de45eZejUPRCVr+oKr1nKrm6duqSsJ2+1hSHbPZzzlyKAeJmkRttiKzPiIQjcDc557Bls1bLQusyhTxSGuzZ6/v45KcS5Al/vePk36i9VUSuQwOkxa0iu5tI+OWke+0sNNH0BGiNjfqW601Y+71nb4SsgQRsAIBSYjPzp+NMaMmWFG9KXXqKVXS6pQEJj0B0k2caRS4KZ2yuBL5ISID4UaPHOepDxErYfPAGjWJmhueWDlFWLdbEcjKyhJr1Q9i396PlCc+3YqeMX2mW+FOq996Xjmt69RgI1FH4WQ0XYoWdWqKx6eIgB0IBMUGHnOem4WxP77fjubSbkPftczrVnRzwNC6Tk1lSNQk6tQ0hU8RAZciIN3K9fX12LzpDaVGoHrOt11gOb3Fql3jNNIOiZpEbUR/WJYIuAKB2XN/hqeffEacJ1CnRH/lWrS0JrlsFRIHyTqxWjpC1Iz6DguF6VlKvDfZCY8jIIlRWtYqrAGTpOMrG8m6+UnoSNQ3iZpE7XFe4PAUREBasHJ7y31792uucCcuknRi1EnW8fFxhKiZnhUWhtHgNW4h6sTrlm26EQEtXWvebIwb84BjLvDmXJhuxNOqPnPtPhZZR1zfJGoStVWTnPUSgUQIhPKVnTmiUb5s/Rrdna5WSjnJYzW59WgIORJ1lAYZtXCZnpXulOTzRMA+BPRNUGS6lp3u79DpUl1JPGmIWuUjS9MYhimPkqhJ1KYoEishAm5BQFprVwauwC+X/Mq2LtPlnT7UdIGHMSNRk6jTn0EsQQRcjoC01uzaS5uWYebK4oYjSzMfXeolHSFqRn2HBcT0rNSVlU8SAbMQ0LewtCNdSxK1Ze10vg8l8yei12XAuQs1KFv+CB59tRojV76GXntG4MG1CRAbvQylPXZj2MQqTJ9+HebPD6B0EzCs+FmzYDZcjx4F7vd8c0eivknUJGrDM5gVEAGDCNhh6VprEXZHyc55aLtpMsYuPQz0fRylcwtRfu8IfDV3C3qXlWBjFVC5eTfEXXF1QO+h1+KSvx7Eu2XVwNXd0fuKKlRiKtbMvQSzp60E8sXzZ9oi+OVulH0GBIt6hv5Gdwzo0gbQy4ragkX9UdgeOHZgh/asVZeeVuflg0qSYecIUTPqOywWo8FrTM9KpuK8TwTiI2DHGqila9M9foEdc4CZfR4RRBq6xr3yOwz/7HvYePXvMC14CLs+zsONnauxqE8FBrx/H7718UGc7XgDsH4Cxp6fhbf67cbsXT1RMj4XG39eiQEPAA/+tgNW5P8cgx+G+BB4HGfHlyL40n3I1cr2RN7OezDs5Czs6HcKFVUBFIn654k+vGmRotnp/bBoCIardcT1TaImURvWXFZABExAwEqL13KCGboMeybVoMfApxuR0Ii6ShB1cBt67xqEsc8Dc7a/h/xPKtHpxlyU7ReW9GXfQa/Ld6Nb6Xc0oh486jq8tR0YPBAN/55C6fvX4cWZtZg0vQYPll6HNeK5/qNeAmSbE0WbL+Zhx/QOOPaHcpRtXolFW0W9Fl6WLh9Y2G+zqiZRRyFp1MJlepZZqsl6iID1CFhFpvKIzaHFd2kD2FS6xaKBTMT6fcNQNX0QHv2NbKInFu98AlgyCAeGb8PA/YNw76KAsIpX4ZLdVeh4k7CsV5ULou6ITtiN+XigGaJ+Gg+t34Jbc3JwTpD9vSdewI67DqL/8CXCZH8Be4b9ET0eF+vg3z2Cr1rdjkkTCnHo5iGw8oBOv7u/SdQkaoteIqyWCLgDASv2AZdEPfe5Z0QK2HJtgxWrruADy7BmYgfU1pxEzmX5qN2/BA8+vA4DXnkP066pwYGqPFyfswOPFpfjjrefQZcTlai9JoiTL4Vd34NH5aP094Nx7td/RquunwvLWljogpD3PpKLF787Cr8SHwBzZNmTwmouCKBm5SiM/fpRzaKu+vQkrr9CfAD0ewQbrRqkqFfKSH5UWffRY2HnTaiaRE2iNkGNWAURcDcCVqRrKe+uFWQccn0Ll7bil983jCFRk6gVn6LsHhGwHgGzXeAXX3wxtu94C/36iIVfJa+JWPx2f+GXfwRTn7d2fdmM4ZstHzP6ZGcdjhB1506FTY6uyc7O0sZcVxd7ok2ie7JMi5a5OHP6rPhLLyvrqkd2dnZGdbqtvYUlC3imrZ0zhm15FgEz10F11/fjP33Ss3jZPTBLI+jtHkya7a3b8DKmTpkWU8pK/sti1HcYb6PBa0zPSlPj+TgRaAYBszfXeOmVVRgzagLxNgkB5ZcSTBpnvGocsajNJeo2qDl6PGZsiQgw03uykfx2arVHorZwdrBq3yFgZrqWPFLziRlP2Xr4h1cFJj+iiu8e4ttDTZonauv4iBZ1xGyiRe3VVwvH5UYEzFoLtSvqG7NeQylGYFg4lToW9satQte5USRan838gHIjCB6wqFsLi/qEjRa1Wu3RonbjtGOfVUbArHQtM9e8Y/AS238O6NIKp3o8jCfPD8Hgn4ontN/a4Fzl22JHsogSEdHdHfrejoK8c3G3/Yy+16FvT3zrTA7atq9t2IZUbEHaNw+1OW3QtvbPePM3cmNSsTPZbTegLY6j4tflEDuWWnKRqF+MG4uU3846PjLZorbO9I+ncXR9WzIPWSkRUAoBM/YBty73dwzWiO1Asf8w8r7fHzm7OmPwm7NQOq8QNWVHkN/1Ohx6RmxAom2CIq4Gop7912EoKTiCsqp8FHWswTyR+6xv+1lUsiXmXtH2j3Hrud344CtBxmIns3vvbIUVnw5A7Z7dqAl2Q/6uUXin4yrc+vVBVIn/7vjlQvSf/LYlcrQifc6SjlpUqSOubx7KEZYmT8+ySLNZLREwgIAZgWWW7SUuiHeHvqXnvC14C8KixhbsFTuFfXDoHHBNNxSdWIgeExtIU7eo51fjoeEDcH3wWvTqeBLLb7kfq3WMOvePuVewfRtyJ4pdzz4THwYfDsbhWw6j185cPNhvOqoadihb9Hl/PNbxGA78thxbVy7BmxYdzuHnQDIpIkcO5SBRk6gNvENZlAjYgoAZrmsz6ogZ7Ojwlp7Bkm1YcX4QBl/Ygj3tSzFvaw1wvdgi9JN1mP/rhvzoBqL+oOVYdD+wEsvfaYWRc7thV78wUU/f9F7MPUnUebMHYeoeQdR7BqCihzi04/08zJaHgDwgthIdeBAPvHEMN/6pBq3unIjxXQ6j2+2JFsszE5vf3d6OEbW5Ud/W+ejju77Vao9r1JlNfpYiAskQMMuqnjJ1ssnnUYe39Ky9+jvC9d0Vg5cLMn1pLPKqKpFzTT4OPBXr+t54/j6MzD2MypwO6BI8iddvHiH2+27wjq/ZFnOv1fb9uPXiP+JIbQBt/7JGuLXF4R2fDEDO4SOobd8WlasG4YObt+Gxf6jCoTMFCH6+RDxTmgzWtO/7OX9aB4vBZFFqYzQKm4dypD0PWYAIKIuAtOYCwSsNpQW51W07Z7s4TGRg5GEb4lhM7ZQt863m5hTArCh8ZRUsxY6RqEnUKaoKHyMC/kTAaCCTWVHkdqP/0LJfAJMfEYdy6JfYdnQZMHXyStu6Iglq+TtAHgAAFlpJREFUxmMzLT3YxLbBGGiIRE2iNqA+LEoEvI+AGVadJWvVHodeYlZd9YVvT8yKFC+JmkTt8enO4REB4wgYJVoz1ruNj8I9NRCvprJyhKgZ9R0WAtOz3PPyYE/9i4AZxOFWF7gTUqfLuynqTM+K0kKjxHnh/PkYvU5Up9H2Vr6wjKdnOfEmYZu+Q8CMNCFpmctr6eLlvsMv1QGbsdlMqm255TlHiJrpWWH1MBplzvQst0w19tPtCJixVi0xIFk3rwmSpPeW7+O6dBREjri+SdQkare/tNl/fyIg3dfdunc1bBGTrGP1R5KR9DRIoubVFAESdZRGGLVwmUfNKUYEvI2A0XQtHR2SdVhPSNKJ5wyJmkTt7bcqR0cETEbALBc43eDi7C1xzvRzC+bQkk6ioyRqErXJrzFWRwS8j4CZAU/SnS6ta7+5fWVwnr69Kt3dClrUTM8KC4VR395/qXOE3kPA7JOxZH3asZgGtyt1A9K6FS3JmdHvqUnMkahvEjWJOjX15FNEQF0EzEjXih6d161rWtGZ6bMjRM2o77CwjAavMT0rM8VnKSJgFAEz16oj+yLrLb5bHAYSCGhpSl5wC0vXvvwIoRWdmdZxjZpr1JlpDksRASKgkY+0EmdMn2k6GjphFw8bKlzEy1yZW0yCNkctSNQkanM0ibUQAZ8iYGZgWTwIdcJ2i0XqhQ8M1VSZRE2iVk0n2R8i4CoEzNgHPJUBRwac6aS9t3y/Eq7x6I8JVfqVCq5ueIZETaJ2g56yj0RAaQSMnq6V7uAkMQaCAc3trl92rmfr7ctd2qRrflPpZvHBoMZHQ7pYuuF5EjWJ2g16yj4SAaURsMuqbg4E3dqWlra8ZJqXPMtZBm9VV4f+jbyysrK0/6yvr9f+1f878hl5Tyfkm7vdFKpXBLh1L+rWUG8106ts0kpHiLpzp8KQdjRc2dkhpamra/Kz9luie/J+i5a5OHP6rFS5htpkXfWiXHZGdbqtvYUlC3h6lk2Thc0QgUQIWJGulSnikmDlpRO3nqMtyVuSuE7Q8pkvqr/ElYErNGLXyFi/L16pX375V0H01di396MmZB9ZPtM+slzqCKzb8DKmTpkWU8BK/stielYYb6Znpa6sfJIIqI6ADCyzIgLcrnFHW9p2tct2EiPgiEVtLlG3Qc3R4zGjTESAmd6TjeS3U6s95lFzihMBdRCwMl1LnVGyJ3Yj0DxRW8dHtKgjpEyL2m6VZ3tEwFoE7A4ss3Y0rF0FBDxgUbcWFvUJGy1qtdqjRa3CNGIfiEAYAacDyygL7yHgAaK2zvSPJ266vr03CTgiImA2AjKwLF60tdntsD5/IOCI65uHcoSVi6dn+WOicZT+QoBWtb/kbfVoHTmUg0RNorZasVk/EXAaAWlV++HYSqdx9kP7jhC1uVHfaq0Z/+1v501bL5cV5bdLPD6uUfthmnKMbkVApmvJAzWkG5wXEcgUAQ+sUZOoR48cn6n8WY4IEAELEbDqKEwLu8yqFUSARB0lFKPpUrSoFdRydokIOIiA1adrOTg0Nm0TAiRqErVNqsZmiIA/EZBW9dpXV6Nfn4H+BICjNowAiZpEbViJWAERIAKJEVBpH3DKyn0IOELUjPoOKwrTs9w3adhjIpAuAlyrThcxPh+JgCNR3yRqEjWnIRHwGwLcB9xvEjdvvI4QNdOzwgI0GrzG9CzzJgNrIgJWI8B0LasR9mb9jri+SdQkam9OJ46KCCRGgC5wakgmCJCoo1AzauEyPSsTNWQZIuAfBHi6ln9kbdZISdQkarN0ifUQASKQAgLcBzwFkPhIEwRI1CRqTgkiQARsRoDpWjYD7vLmHCFqRn2HtYbpWS6fQew+EcgAAa5VZwCaj4s4EvVNoiZR+3jOcehEQEOA6VpUhFQRcISoGfUdFo/R4DWmZ6Wq6nyOCKiHAPcBV08mKvbIEdc3iZpEreJkYJ+IgN0IMLDMbsTd2R6JOkpuRi1cpme5cyKw10TAKQSYruUU8u5pl0RNonaPtrKnRMCDCNCq9qBQTR4SiZpEbbJKsToiQATSRUCmawWCV2Lp4uXpFuXzPkCARE2i9oGac4hEQH0EuA+4+jJyqoeOEHXnToX1kQPOzs7S/rOursnP2m+J7sn7LVrm4szps+Ivvaysq16Uy86oTre1t7BkAUaPHO+U/rBdIkAETEKAudUmAenBatZteBlTp0yLGZmV/JfFqO8w3kaD15ie5cFZySH5FgEGlvlW9AkH7ohFbS5Rt0HN0eMxg0xEgJnek43kt1OrPRI1JzYR8A4CDCzzjizNHEnzRG0dH9GijpAgLWoz1Zl1EQH3I8B9wN0vQ7NH4AGLurWwqE/YaFGr1R4tarOnBOsjAs4iwLVqZ/FXsXUPELV1pn88gdH1raIas09EwFsIyH3Au3XvynQtb4k149E44vrmoRxhefH0rIx1lwWJgKcRYLqWp8Wb1uAcOZSDRE2iTktL+TAR8CEC0S5w+d/V1V+kjYQsFwgGIP+Vl9xYRb8CgUDj39XV1drf1VXhNmR7e8v3pd0mC5iLgCNEbW7Ut1prxtzr21wFZW1EwM8IRJ6u9e8bX8UPh49sFg6dkKXLXCNkQcLShb6pdHMjAUcSfXVViJgjL0noobJhMpd16AQvSVwSNwncXq30wBo1iZobntg7adgaEbALAUmYa19dLdaql+G5BXPQr/fAJla1vF98t9h+tMEyllbx3vL9llnBsj2duOW/0jrf9PqWRvK2Cxe/tUOijpK40XQpWtR+m0IcLxGwBgGZpnVZ60sxcNCtmoVbe+4cRv9onNaYJOfiYUM1a9lKYk42Mp24Q8FvIevdyf4k669b75OoSdRu1V32mwh4FgFJgKPHjdLIOC+vlTbO2tpaHKs5rpGhtGIzWa+2GjDdwpekLV3kPGTEHMRJ1CRqczSJtRABImA6ApLwli7/V42sJVE/MH6SZW5tMzsfaWlLdzwJ2xi6jhA1o77DQmN6ljEFZmki4EUEdMtUjk26kvsN+AHGjP2xdgCP26KwpQtffnBIwlbVE6C6DjkS9U2iJlGrPjHYPyLgFALyYA4ZHCYDyCLd23pUt9uIWsdRTzejhZ2+ZjlC1EzPCgvKaPAatxBNX+lZggioiIB+IId0E7uVjFPBVX6IyLX30SPHKbnOnsoY7H7GEdc3iZpEbbeisz0ioDICuhU9Y/pMlbtpWt9oXacHJYk6Ci+jFi7Ts9JTQD5NBPyMgF+s6OZkTOs6Ne0nUZOoU9MUPkUEiICpCOibmfTrM9DUet1Wmf6xMuOxmXSFNyM8EjWJ2m3zmv0lAq5HQEZBS2uSuwqGREmyTqzSjhA1o77DQmF6luvfuRwAEUgLAZJ0fLhI1s2rkSNR3yRqEnVabzY+TAQ8ggBJOrEgSdbx8XGEqBn1HRaG0eA1pmd55A3OYfgCgeZcmL4YfIqD5Np9LFCOuL5J1CTqFOcsHyMCnkFAvmy9niNtlrDkbmbyZC5uPRpClEQdpVlGLVymZ5k1VVkPEfAOAqHTpbqSeNIQaeRZ3GkU8+SjJGoStScVm4MiAiohQJd3+tKgCzyMGYmaRJ3+DGIJIkAEUkaAlmHKUMU8KF3g8tpUuiXzSjxQ8qVXVmHMqAkxI8lv1xo1R0/E/J7IM5zqvSyuUYdxNepqZzCZB2Yhh+BpBCRR+2VrULMFqUeB+z3fXBL12B/fj/r6+iYQW0rUnTsVNmktOztLa7yurmkn5G+J7sn7LVrm4szps+Ivvaysq16Uy86oTre1t7BkATdNMPvtwPqIgEkI0CI0DqTcGEYe9enlg0qSofRvr63FtKn/FEPUVvIfLeoIqdCiTqaivE8E3IsA16aNy04/wMOvXglpdK5e+7z9FrW5ru82wkd/3BIffTwVy2+nVnt0fRt/EbAGImAFAn4nGDMx9fPywUUXZeP5Vb/C/eMfEl7nuijXt3V8RIuaFrWZc5h1EQElEaDb2zyx+Nn9rRP1+LETYwC1dI3aXIvauqi3+Ba1Wu3RojbvZcCaiICZCEgrcOniZY6fCNV7+gt4cmgBci8GvilbgwcffglVcQb65KbXgOIRIsQ69O9sM8EwWJfMQ5ceCr9Gf3sg6ts605+ub4Ozi8WJgI8RUMNdOxHr9/THgZEjMP+zAJ7c+goKNvwAY9cCHfrejoK8czh2YAfKPgPmbBcpUAOH4NW+PYHfHMPlffNQm9MKOBS67+Tl5w1jpEX94kvPN5OeZR3/ZfFQjrDK8/QsJ6c/2yYC1iGw8/3tcP6s6e6Y8/Yv0Ke2Au//dgfe3FCqkW5RyRaUFBxBWVU+ijrWYF6/R1DUQNTQ/q1Al096ofbjwzi0fjJmbrYOp1Rq9vN6vyTq1WtfwANx1qhbt70UJ479TwyEiXgl1Xsk6ghYSdSpTFM+QwTch4AaFrXELYCiHw7D8Dv7C1LOwydLfoAH9/fHQ8MH4PrgtejV8SSW33I/CqKJ+v08zO7zCMoUgd6vEfQ6UU+Is0ZtKVFzjTqs+UzPUuQtwG4QAZMRUIJYbp2Ptx4+iwfvfFpblw6WbMP6FiXYesUT6H5gJZa/0woj53bDrn5xiHo7MHjg0yajknl16nz4ZD6GTEt6YI1areAuHsqRqSqyHBHwFgJqEEsA49a8gknXn0TNyRzk5x/D64+Mwlf3b8PI3MOozOmALsGTeP3mEWgVbVErRNTS9V189xDfHmrCvb6j3g1GLVwStbdethwNEcgUAVWivjPtv0rl/J7qRqImUas0H9kXIuAZBPyc+2u2EEnUL8bdKpp51H87H1fXrAQmXoPJ2mMetdmvBNZHBMxBwO+5v+agGKrF794JRyxqpmeFVZhR32ZOZ9ZFBNRBgOcpmycLNdb7zRtPujW9/G+rMX7MAzHFLI36JlGTqNNVVD5PBNyIAN3fxqXmd7e3RNARomZ6Vlh5jQav0fVt/EXAGoiAVQj4eaMOszBVIs3NrMFkWI8jrm8SNYk6Q31lMSLgOgT87rY1IjB+6ITQI1FHaZFRC5fpWUamJcsSAe8hIIPKpPvWr+cpG5GoJKgZj810/GATI2MwoyyJmkRthh6xDiJABBIgwLXq9NVDYlZd9YVvT8yKRIxETaJOfwaxBBEgAmkhIF24zy2YEzcXNq2KfPIw8WoqaEeImlHfYSEwPcsnbx4O0/cI0AWeugrQ5d0UK0eivknUJOrUpyyfJALeQUC6c+W1dPFy7wzK5JHI4LtNpVuwt3yfyTW7tzpHiJpR32GFMRq8xvQs904+9tyfCJCsm5e7JGlJ0JKoeYURcMT1TaImUXMSEgE/I0CyjpW+JCPpaaAlHR+b0SPHx9xItsW0kSykLBI1idrPL2mOnQhIBEjWTS1GknTz84IWdRQ2Rl3RRr5g4okp2RcTXd986RMB9yLgd7LWo7tJ0ol1mERNonbvW449JwIeQEBGg0vC9htZyU1gpkydrG0EQ3c3iToGgURWMy1qD7z5OAQi4DIEpGWpHYsZvNLzEeG6FS3JmdHvqSmqIxZ1506F9ZHdy87O0v6zrq7Jz9pvie7J+y1a5uLM6bPiL72srKtelMvOqE63tbewZAE3UUhN1/kUEVAeAa9b17SiM1PBdRtextQp02IKW8l/DCaLgNuoBc816swUn6WIgKoISIuz+O4hCAQCnsknlq59+RFCKzozrXPEojY36rsNao4eN829nZw41WqPRJ2Z4rMUEVAdAZ2wi4cNFS7iZa7MLSZBm6NlzRO1dXxEi5oWtTnay1qIgA8Q0AnbLRapFz4wVFMrD1jUrYVFfcJGi1qt9mhRqzal2B8iYA0CkQFnOmnvLd+vRMR09MeEKv2yRhL21+oBorbO9I8njvx2arVHorZ/0rBFIuA0ApIYA8GAds61ftm5P7befrfuXUUfhgq3/GbxwaDGR4PTsrGifUdc3zyUIyxKnp5lhVqzTiLgLwR0a1ta2vKSaV7yLGcZvFVdHfo3kyuSkLV6RYCbbs1XV1czvSoTUDMo48ihHCRqEnUGusoiRIAIpIiAJFh56cSt52hL8pYkHnnpv8l/dZLX78vfJCHTWk4ReIsec4SozY36VmvNmFuIWqSprJYIEAEi4FMEPLBGTaKOd6qKT/WZwyYCRIAIeA4BEnWUSJPnUav1YcBgMs/NSQ6ICBABItAEARI1iZpTgggQASJABBRGgERNolZYPdk1IkAEiAARcISoGfUdVjymZ3ESEgEiQASIQCIEHIn6JlGTqDktiQARIAJEIDUEHCFqpmeFhWM0eI3BZKkpOp8iAkSACLgVAUdc3yRqErVbJwz7TQSIABGwGwESdRTiRi1cbnhitwqzPSJABIiAtxEgUZOova3hHB0RIAJEwOUIkKhJ1C5XYXafCBABIuBtBBwhakZ9h5WK6VnenmAcHREgAkTAKAKORH2TqEnURhWX5YkAESACfkHAEaJm1HdYvYwGrzE9yy9TleMkAkTArwg44vomUZOo/TrhOG4iQASIQLoIkKijEDNq4TI9K10V5PNEgAgQASKQCAESNYmaM4QIEAEiQAQURoBETaJWWD3ZNSJABIgAESBRk6g5C4gAESACREBhBBwh6s6dCusjMcnOztL+s66uyc/ab4nuyfstWubizOmz4i+9rKyrXpTLzqhOt7W3sGQBRo8cr7CKsWtEgAgQASJgBIF1G17G1CnTYqqwkv+yGPUdxtto8BrTs4yoP8sSASJABNRHwBGL2lyiboOao8djkE5EgJnek43kt1OrPRK1+pOMPSQCRIAIGEGgeaK2jo9oUUdIjBa1EfVlWSJABIiA9xHwgEXdWljUJ2y0qNVqjxa19ycpR0gEiIC/EfAAUVtn+sdTDbq+/T1hOHoiQASIgN0IOOL65qEcYTHz9Cy7VZ7tEQEiQATchYAjh3KQqM0j6rd+vQV7y/e5S+vYWyJABIgAEUgZgeBVAYwf80DM863bXooTx/4n5vdEBmCq9xhMFgGr0WAyu/cWZ3tN5wTlp1bMBvWT+hmJQH476mc0i6ea9USiJlE3IsCJdD7mazjViRQ/hoIvpkxfTMQzjECmOsgPV+/MPxI1iZpE/XcXaxjQAqQFSAsQ4IdB+u8CqTdWGjokahI1iZpEnfZHitUvJlrUtKglApl+NHhNP0nUJGoSNYmaRB3ny8BKC4kfIvwQSedDJItR32GFMZqedeF87BpnqlF98SaulVGEbC81uVN+QDy9luhRPznfI98jfH9aGPVNok7thc0XU/wXNomMRBb90ZepTvBFb92Lnh/mqb3nM9Vdq/mBrm+6vun6puubrm+6vhsRyHRdmFHm1kWZk6hJ1CRqEjWJmkRNolY4eI1ETaImUZOoSdQkahI1iZp5qunm6MpZw6hTbkASyR90LVrnWoy3hsv5x/mnyvyjRU2LmhY1LWpa1LSoaVGrbFEz6ju1aECro/oYlZmaHFSNyqT8KD+JAPWTWRDR74JMdSKyHPOoI1BlegjTQ8yaZPywYzpfOrpEfaG+JNIXur7p+qbrm65vur7p+qbrW2XXd/u2V9WnumDOYBYGs0S/zzLNuWSwXPob/3P+cf5x/oUR8NN8oEVNi5oWNS1qWtS0qGlR06JmehbTs2LfhEx/YfpLqt48emDogUnHm+A1faFFTYuaFjUtalrUtKhpUStsUf//vMDh6QCMBaYAAAAASUVORK5CYII=;" parent="1" vertex="1">
          <mxGeometry x="80" y="40" width="597.56" height="500" as="geometry" />
        </mxCell>
      </root>
    </mxGraphModel>
  </diagram>
  <diagram id="DmBtR2pw7tqzTNYMSXZX" name="Diagrama de Secuencia">
    <mxGraphModel dx="788" dy="598" grid="1" gridSize="10" guides="1" tooltips="1" connect="1" arrows="1" fold="1" page="1" pageScale="1" pageWidth="827" pageHeight="1169" math="0" shadow="0">
      <root>
        <mxCell id="0" />
        <mxCell id="1" parent="0" />
        <mxCell id="AvsTuHcZyifIrdtvjOMb-2" value="" style="shape=image;verticalLabelPosition=bottom;labelBackgroundColor=default;verticalAlign=top;aspect=fixed;imageAspect=0;image=data:image/png,iVBORw0KGgoAAAANSUhEUgAAAmwAAADaCAYAAAAbmR5kAAAgAElEQVR4XuxdC1zUVfb/IsggBPhgTJ0xFUpFM6GHUGvS30cqShaRi+kmPlFT040VS821tLJl01XDNE0oLTPCXB/5zHyUaLZgbqImqNvga/ABpAGC/u+dFzPDAL+Z3495MOe3u5825t77u/d7zz33+zv33HM8ujzQ/S7oIQQIAUKAECAECAFCgBBwWgQ8iLA57dw0qI7dxV14sP/QQwgQAoQAIUAIEALWI8B3ULKwWY8b1SAECAFCgBBoIAiEhYUhJyengYyGhtFQEfBoFdTWhLA1buylGevt2xUmY/ZpIkPpH2XVcJDf2xzqy9fqLEvtaiEiHAgH48VC8kDyQPJQfW+x97pYn/Ep4uP+Qvsb7fMaGXBWvkOErYbJsbfCcFYBIRyIUBChcDyhIP2glcL6woEIW/3iW1/z5m7tEmEjwmbYjy0JPxE2ImxE2Iiw1USWGop+iB/+Atav+5IsbGRhq9cPA7EEkwgbETYibHSkD3Jt0C4DwoFwMGZtJA8kD84kDx7t295v4sPm6emp6V9lZaXJ14bMR4ay0uo+bM2aB+L6taI6y1K7WogIB8LBeLGQPJA8kDxU31toXdC6oHVRfV2QhY0sbGRhIwsbWZZ0q4AsKu5pUaEjUe28iz2yayhH5M6KAxE2ImxE2IiwEWEjwmZySuJuxJUuHRBhM14ARNgoXIhGHugLRLssCAfCwVhBkjyQPDhSHoiwEWEjwmaEAClkUsiOVMjO+sVE64LWBa0Lx9/CpSNRImwuQdjatu5geunASxs4t7LCNHBuTZcOmgc1xbXCGybmdG+ZN8rLyk3+5kntavAgHLRiQTgQDsYKwlXkwaeJj6bb+sDipCdpvyB9VrWSXWUd63vsav31IMIGNHyCORObfnoSKCgGZAGQ5aXj1WN/wsv3TsCkN6sWWxUOf8GqtGCMTZgnHbF6YylWnU7E2PTqREUxZilWjwiC6rwM97e9iDV9XoaumKFzzeXNcJ19GNy9W/V9wT8i+IeB8d9qW4Cvvp+Cs5Om4HMjplDbB0fsii2IPzsYQ9/lBPNVrP/3/+H2uU/x4qQvDC3IEj7AovteRk7wCgQlJOJt3S91f8iMZRgHIXFsCn0guRCBDw7ugIrKO7h8+TIq2EctETYibETYiLDZy0BFlw6YrDX8gLGvY+sOYFD/uWy0CszZnArlT7lQF87ELr9UvNI7GAG3crFh5mbcO28GovwKgaI8LD4fgBe6hgL/+RTqjkMRpgRU36Ygy3cknniwLdr8noOc0s4Ia5mPdfOPoOukeDzSzhPndy1EwpsHNKtYOW4RVg7rgis3WeiXzOnY1XUhRnXzR8GhRRi74KDGUjE8bTuez5+LqW8eRvCk6Qj5eQPKn9WWU32fgoSDT2LdrCdwb/GvWDc9F8Fjf8Mbc7ZjwltzcWHfLURPeQIhlWexbtp0+L68Gj06KqBokot14xkZSlqE4R1luHD4X/jBMwqqlSfx1IJ4w1j2tXgZwx9siuITn2PqlHSojOWh50JsTS5CYszb8Pr7l0htdgr/+f0HbFH3w4xnQyE7tx+LtvniqZa/Qjk6Ecpvd2FXQCh6hQTgTt4mTFxwA9OM3rXJNw5D5O2hDCnBvsOliOmnxMGVicjp+DZe6nqPZqwfFsdq2vb57Xss/Mtb2GdshmL/392cwZ3pKLuNog1KG8kYYatEkK8Xfjv/P0rh10B8k+lIVKtonGm9Gas+ch3RokGEze0IGzBq7Sb0vX0Dty+/j32FEVAfzIfPSwl4obUPGme/gtj0kchcJsPmojA89d3zGFv4Ml72y0L2zT6YGC/DmWYR8Js6BD/P2YDIr4dgTdRaTCg7jJzsI8j3GoQXB95FfDwnhyORtjkCO4ZOx+1ln2JwWTGUjNwtXnsSvScNQ+nEYXg9jx29t4tG8huJiHlIDhR+j+U7mmFUT225pybGoyMzqp2fNQFTHpqAOSUyhDybj1F/+QQL1q5CSNM2uPzpMuxSDkNi2G783CIWmByLf09Lw4TbxQhoeRixI04i6c0n0DG4Kw59cQyBAUd0YwlFJbPcnf1yMfLuCYU6ZSm2MELba8ijCPC4icLsXAxetghlk6ejybLFKJt2Eh3mnYEqcBiU+1ZiS4UCzZuG4wmf0VCFbwKSM1HYU42sPB+MmjAEWauOGr1Lhm/vsLK7nkFC4Fqsb5UH/3Dg2fVKbB98Fos+PaEZa9e7Abi8eyV2eLSDz65FWGOWj5oIm1Zx2RuHJk180cSfzU2Zh+b9QT6N4FlRiguqCyaUmjY819z46dKBa86bu603ImxuR9gUmL9tNQJPXIZ/xRcoDp+KlqcPI9s3BI+38kHprjjEL2ZEa20ws+4o8MCoCZiblI69TxYhK6sEyi6lOMOIyv/GvYzbH32AkBFjMfvdVUhT+uD+5sXI/rkM8vbFOsI2Bes3ByN16Ezkv/UB5vuxjbZdCXJPlKPRPR5Qff463t9XgQmpqfBZOIlZ9IC+K3ZgeovfAF9tOfgC93fugJxhE/D3ByIxuCgCccn5SBixG++vexPKAAXunDrGLGPe8L55BL+H9EHemElYPS8VaYFAgGcmnk/8Bn1in8Gg52Lw83EfjIkq1o3FE5998xu693oMUV2AXY+PwEJE450NE/DQPWwsK0fgw4c2YIm8AB4tz2EoO7b9aM0ZLFwHPNPnSfT6kxznjlyF3x86wrY8H+HT5Mj7Pgf+D3bD/h88jd5VyghbW9z34mjMHsXw6lQAOSdsXyqx6fkSnPiFBaVmYy399QRKFE8iqmdLnHn3GUz92tTEZm+iUvqHabBsd/zSbdosEM2bt0DBrTuo0J3I+3h7IsjbA8XXrrLA4dcNk+RuG0hDkQcibETYjDWts65jImzuQth+7sXOM5kPm28AcDoNr/23N/7aRkvYAo4zC1tkDwTkbUdxq1YoUssRHpiD5UVVhO2bHldw4mYwIturkXcO2GuBsCn92G+3H0B4m0v4V8+xWMcI36jVqRjieRGlndqj9EvmPfYMs4AdL0Hbh0rwed8pWMWORJXjGIEZKQczwCEw8Hdsfn8nQqdoyym7FePg9wF4PLQIF/1CULY+E7KRg1B2ugRdO5Xju0MtENExH/myhxCUMwun2o9F/uhJSJu7FB+dOYTyoc8Cv5bj/g6nkXejFQ4xwjY8Uq0bSxn+d9UXFf/7H/w7Ahn9J2FNNXkYj7T/JMAjrRfGLp+rIWz7ymIRh3yUKOU4+1M5WjcajX3K7RhzTymK/AuRyyxsTzzeFN+uvYFIw7vUOPq/RrhmIGzsyDgyAb9/+wn8+zyHuz8z6yMb6695CtzH2v79vpb4dd5wzD5IhM2cNNrbwtbh/g64/MddlBklf/Hy8oRXI6BFo0pcv3oVJSUldKRkJKrOuuHVRDDpSJQIm0sQNvPUVF6625zcodb4EZuaitrVokk41D8O/NDqNk+tZnZBQUxqNZq3+p83/gZn0zut27RGI19/XCgxtTR66VL44U4lWsnuQn35CkpLS0F6UisnhAPhQPxBen1GFja3sLBVzwFLR2tadUI4EA7GG4uxPDRhITzkzOKsvsvCFJWahiniFjYtwayEH7so2dTrLvNnK4BXY0842iLY8C9RkT5zNQsm9VcaCyYRNiJshv2KFH3Ni6qh+OqQ4hSmOLlF9b529+FS6R3cbVw7YeMtBjLCdo/nXVy5cpkIWw061Zk/kOhIVNi6MP64of3C/vsFETYibETYKJcoWRp1q0BvYWujVKDUwxtFt+/C26duwsart/C+C5nHHRbug12aMXvIkuvclly6dECErS4y6gwfHETYiLARYSPCRoTNiLBVMJJmHMJDKGHzYs6TbQK8cUOtNrk56gyKnizE2gmuCQcibETYiLAZIUAKo3aFQUdVpDBcQWE09HXctl0bNPbywY1y44wazNJ2q6zaLVEfTw94sksHxo+frzc8ytjt43PnTP5OFjbntrDRkSjpX1fQvx7duoaZ5BJt1EgbGPLOHZM/s9uNnhoHW/PH188Ht26WmvzZUllqVwsR4UA4GC8Wkgfnkgd5yxa4XW56Q97Pzw+/3/XCDWZ50z+NPDzQlMVh82bBc8vY7VD948n0ZCXTkzdusMweRg/pSS0YhAPhQOvCdh5FR6JMesh5suavq4ZuUSHLh3NbPpzB8ty6zb0o8/TV+LPpH/5Ryglb+Q0KnMsx4SnmjB9nmDfS66TX65JJV9vfiLARYTPINCk4UnANTcFJoZCJsDX8dUFHojXPMf+FPmyd48OWCBsRNiJsdOmAFLJuFVjamIiwNXzCRpcOiLDV9bHqDMSVCBsRNiJsRNiIsBFhMznSdDeLChE2ImwuQdjMU1N56lKuVPLUPkaP2FQj1K4WTMKBcDBeVyQPzi8P97a6F+VeTUwuHXg2aqTxYassvobr128YppT0pBYKV8Mh7oVYZHyZabLn8X9p1jyQhWgxvUBiaWy0jp1/HTeEeSMLG1nYyMJGFjaysJGFza0tbHRJgixsLmFhaxXU1iR+hxROuuS8XrPwE75abAgHwsFYQTqzPJAPG+mzujZzZ5Zf2o8bjvyShY0sbGRhIwsbWdjIwubWFja6JUoWtrpIOf/d0b6dRNiIsBFhI8LmcEXkzBYKsrA1HAsFpaYiy76rWPYtWUY92rbuYHIk6unlpRlPZYVpIMSanEibBzXFtcIqp1te11vGkiWXlZt8sVG7WjgIB8LBeGGQPDi/PLRs1RIVjX1N0lU1YnqyaWOmJ4v4pYPrhiklPamFwtVw+PTzNfjLsFEmexb/F9rftJAQDs6BAxE2IpgGJUVEWwsF4UA4GO/cRNgavjy88Ofn8eUXXxFh85GxVGtlhIOT4kBHokw0ySlTuz4JB8LBWFOTPGjRoCNRWhe0LppDTa4jDncdIcJGRMWgi2iDpo2JNqbqGxMnbB7evig1Ck3ZuLEnfDw9UHy1kMXpqjoSpfAQNa8h/oujnbad2VeS9C/p37r0LxE2ImxE2OjLkTZS3SqwRCiaNguEh0cjk2Oixjpf35KSEvzxR2mta4iIShV0zkrY6JYoEe26yJIzrGMibETYiLARYSPCVgthI8tHw7d8UGoqImwuQdjMU1N56b4cKwTeEhWauoPa1YoD4UA4GCsGkgeSB5KH6o7u9l4XaZ+uQsJfxppYUfm/0P6mhYRwcA4cyMJGFjaysJGFjSxsZGEzISvOenRZXz6CdCRKFjaXsLBRaiq6HakXVDr6afhHP/W14VG7tOG5woZHlw60s0Q4uCYOZGEjCxtZ2MjCRhY2srC5tYWNPjjog8MVPjiIsBFhI8JGhI0IGxE2tyZsdCRKhI0ImxECZIJ1TRMszVv9zpu3d2PcZf+puF2Ju3e1WeI8PDw0QYz/uFUVLkK/lNzNt4gsH7SR2mMjpVuiJGf2kDOx+syjW9cwk1yijRp5aPp9547Jn9ntRk9UVBhFjtSNztfPB7dulqJlSzkGRg/EhQsXoVZfQU72MZMvNlvbNW7EUh+kardbt26s/wMMr2N7pubR7aFVf2f43DXDhv9oqW8eFspSu1ooCQdTHPh640RN/3DZuVN5x0Dg9H8nOdMiQTgQDnXtDdbo34jIHjicdcRkzyI5q4KD1ptt6+0//8nBN9u2G4Csi0fVKdNiLx0EtWyGV199FQUFBdj41SbN+7jwPxv7DF4aPtrwfme31AwcOABHDv/IxnGh2qKlPxAC9kLAmLTp36m3vNmrD/QeQoAQIAQIAfEITJ46EcuWLDc0JNrCJpaw/fVvr+Dg/h80ZMf4USja4J335htIGxE28ZNPLRAChAAhQAgQAoSAayDgdITtlb9Oxr/eX2YRvR4Rj2n+zskcETbXEDDqJSFACBAChAAhQAiIR8DpCFts3LPIzPja4si4le2554doTIJE2MRPPrVACBAChAAhQAgQAq6BgOSEzTw1laenpwaJykrTCwYyn+rpQ9q0aY1Bgwdh6b8+qJGwPdHzcWz+9xZY0y5vTGgqDKna7d+/H74/cIh82FxjHVAvCQFCgBAgBAgBp0bglemTseLDjwx9tMSjrOE7ouOwTXt1Chb/c6lF0J6LHWJw5CcLm1PLFXWOECAECAFCgBAgBCREQHILm9hLB6FdO6FPn94mNyH4eLn/Gj8S3ZipvTlKhE1CKaCmCAFCgBAgBAgBQsCpEXA6wsYDeXp7+Wh81fQPD02g+o2F+dCRNSJsTi1T1DlCgBAgBAgBQoAQkBgBpyRsal1qH25R45a1b77ZjtI/ykyGThY2iSWBmiMECAFCgBAgBAgBp0VAcsLWtnUHk5QGnl5emsFXVlSYgFCTs1zzoKa4VnhDU7YNI2yP9XhUE9m3vKzcpL6YdvUNecu8661dnuXg0PdZdOnAaUWfOmYLAvpAvBR81xb0qA4hQAgQArYjMHXay1j+wQpDA0J4VG18x8Nawjb/7XlmRM4bZaVacsYJG38uXbrM0uqY3jL1aNRI89vX7Jj0xyNHJRuAVERQKsKmD2WiUChsn2UXrcnj7dWVLYJfRFEo2zD/RvfDh7sIWAowzd0JpMLDmJiZkzX+WyPdOnQGEeNYGLtN6PtEa6j2jCu0hkyDtAuRZcKMMBMiJ/oylnS1NfX1ZSUnbGIvHRgno3b3I1F+HMwVw2vJs22ZW5evw+d/8tRJ7AJKqkVL5TsL52sIi6VN2uUHX8cA9CSEF9OnKuGywp/6wIOTNeNk8vw9zmZlM47TqIeP1hCtoZqWkqU1JERvkN7R6hnjFEl14UaYWY+ZJUwlPxIlwgbw/F5S5BLlQu6uZM3cOmKuHOqTnNSlfJzpd46DnqCRvGhvk/NHb3kkTKC5Xa8POG4su9KtIQVGrVyNMe1U+EUtR9fWBVg9ehJCVrIb/f2HQPO5+e4mbEUm1OFPYt96YMwkJYrUWr/kkuwVOPPoQkSenoS+Uw7oyuYA0b0AVbG2y+e24r3ivlgQXowz15W43+8wkmLmIkuCxWi8hupqTixmUe9u0IzhF3UAw6mY4VSAuM26cQYEQP31CCSkFGi6MX8Hw2+9Gk+ZYPUrroQ/gJAABZQoYPDko+BaMPw9yyAvSUPf8dtYzWis2PEicsfvQujHCZCfy0V5+1B4//gGYmcyfCV47ImZBN11iiaswaymDhNhq6fLDFIQNvPJcQqpc0AnLOFgHJPPAV1ymlfqceAd4mSlPqxrTjNYAR3RW+X1ONAa0oJWr2uo50JsTS5CYszbULF3Kd/YgDRlGrLaJdZI2OL6HMCgEemGGZ2/Yy8iUYwTC4dg6tOc3DHCFg4M6j+3qgzzZZZ/PB2JGbmIS5oCpCxFhgCZqKuINbrEmrLV3ttuHrZ+7IO3+iRriKYyeQNWhPwOtPtNO85xq7D1T3swKOFzE8IWboaV5kcNAR6CQTOBUWs3IWrPVvjEhyGj/yRkxKVia1wOMipi0T9rAOI1mR6fxJI9U1DQZygW1gWIgN+twcGasgJe7bJFpMCBCBsRNqdfAPW62Tj96GvvoMsQtnYRiGqtwr4srfWgvh7HEzYFIgcGo+ibA8itr0Ha0G69rqFRjGgYkwr27wdfyMd3nhE1W9imdwFuai1sZ77+P6h6M2vSwpMIT/bGe9nBmMEJW0w/BBZryxRlLcWgj2VImTUSkR0DUHoiE2+NSME+G7Awr2LNRmpN2WpdM8cJjMDteBhofY/GkhgoD4Bq4xuIf1trBTNY2MywSuCMqxphG4J9fTYg8uuhyHpW+0/1OCMLJ6uiJXZDkLBGPGjW4GBNWfE9c94WpMBBcsJmnprKS3dLtELgLVHjFFI8VdWjjz2CHTt2sYsIpmE9xLSrn1JLNyykaleK1FRkHdDOVL1uNs67vgX1zJkJm7HfW9iMdxGX/xrmZNyFyTVyQaMUXsjxhG08UhaVYfH0dI21yVmeel1DzMK2m90dm80sR8qXhkHV/jnMZxa2Xa2nInj1ACSy1NCRS7djTvHnUD+qPRKtbmHTkotdKZsw49EAIGu/mYUtGvNXRiBn/FxmVVMgeeNqhG4cgIRPxCNszUZqTdlqPdNY2ALwXp/pGqJZzcKGJGR+1wMFW7ZiXUo6BuuORIVZ2BgRK0lF5rMlKPfzxuLnpiN07Xb0PzoG8Yv5RxJZ2MRLirgWRMmO7tVOl5qKLh1UCYVdCVu717F+82Bg5RMaE/r8HUfxVGUBilh3An3VOF4YgkeaFYO7nci4Pn2D+aZ8K06Ahdau183GYif4l2/VcYzmS5cdNeStZn46zfPxS1kwujIfmlkxwIwzg1Cy+FHtscPrG3Ayrhh7TzCsmH+K1kWnBNkrR2A227Tq47EPYWN4CBnnR3kIf68HziQOxDQmG3M3f4nGG2+gW9R+PDPyUzb8kUjbwTbs/mMhwUe+RTjFEzZGDNYnIlwuhzKgGCp1IW42UqB9Y+P5ZONMqT7vCx8ei11vrMVWJhfLHxuBDycvwtboYAQq2Q1mFVtL5y5AHdKYjf8jBK6dhzg/JksIRUhRGhIS2PGgcV22wc7f/CbCi/JQogyB9/czETvrsM0iVN9riPtmzXmsHIUVwQhrrcbOBTPxXsCrSBspRxlzQ+M6ZPXIA4haWd2HjfunZYcM0lnjnkTKnlSE/php6sNWnIPvzoVhSCSztt2SIVCWi9WM+EghR9ZspNaUtTRZGh82htOZi95Qyguxbry6yoeNKVbZqY3Y1fI59PMtQ4DnMUxd3wIpRj5sHKtBk1ZatLAlrIlAyo4PEHriZQyazmSlHVtvzIct4GIeylsrgX0LEP+mdD5sdd3g149fLGZ1Cb3eL9DEt7HafmZsbdTp9/UKHNRj6xnAfAC3IjYupd4+tKTAQXILG106kO7SgT0Jm5IpkiVe7EtMmYvY+JVac7zOYZib0uNbAxfX6szpRub4uhaTFL/X92ZTvY8WCBtz/o3sfwR9GTb8iUrdjldUhyF7OgJllzIZZluZ9Wg1+vurcJw5XjeR6OihLvzsRti+EzJOhtvBCNz9/QT+MfBV9N2SAY/M63io1z5G2NbC02skVm/t6eSETYe40fFV9aMkNk4LeKxmfkghmxfB5ze2jE4M1fkO6Y62NGtJR1iZhWm4QZaYw/68kSiZm44wk7r8HXKsmcJ8ko7HYloSsDiFkRgbH7uuIXb8HfeYNzIypCEHNg5ZcDVrNlJrygrugAsWtAYHa8raAsV8C76NWbXsZ9AcRbMPckbYqo7y2drcwz4m+tTfx6QUOBBhIx82tkbYl9m2V6GO/ifk7J9FE4dCtlJvYZNB5pmLX9VhBquRzLcEu2aPwMKDtiwv6+vYdbPRdI8t6J+rbqgFso/T79jlq3Cdk6+miGZD9wXkl5F3S44T004gcoGc/bs//lCH4IlOzLamiRWdh82Pj5XE0dcScnYjbDsCBIyzAL2YInzveBhmyFKQ3ZGxDEZ0w3sfwOCXPoGHBydsT2B/dCLWsBhu9fGIt7BZImx7Mc1kPvk4q+Ox762riHtVjUH/lJs44Vd9/OgIW7YcccayxF/JHffN6vq/tBBzR/dAsF8ZTmQsQMJC2wmQ/ddQfcxu/bRpzUZqTdn66a1ztGoNDtaUtWl03YaZ+TYeQEy1/awGC5vGPxAsHSa78CJyjdXVdylwIMJGhI05lKRi9zgg53gJ0Ko7QtVzkd3l9SqHYc5PJHRYrUuwzX+3/2ZTg4Vt0DEkxC3VmMwNFrYo4K3ToZjGjotLj7INdeCTjLA1QAsbI2J1j1OP2252NJOEMD92dM5CFESOyUffmBSG2mR8tqs7tvQbh8+sFQKB5euHsJk7a2vHaY7HdZUSHXEMudeBoPDOKJw7BEnso6YaYeMWNiZLfZkssaAbSE6bh473KNGqyKjujhz4Nz+GxJnMqtaO+TZ93Blfsa//dQJxcPwasrGjDqhmzUZqTVkHDMVur7QGB2vKWj8AC76NZ/Oh7FrbfmZuYdvN9rfViFMtYLdubf8oqqvvUuBAhI0IG+JWb0Jc9hDtEQ47+89MV+KPMgXO6mMoEWHT+rClMR+2FiqcuamE0ms/3oqTYQY3rb8VgN1L/JHx8AFEMh8tbmGr8mFjNrZtLFSB5mq99I/9LGxCxpmDEOa/pQlR0Js5oi/vjKxOjKhtnYdIjxKU+TLnx8N/xzOv7UflHdeysE00+CTy+dSN02TeYyFn/oqb+zPfNTbNmtAW7daj75jM6oSN+bC1zHgXMb4sjhYjbEFXfkJB61Y4ZFL3J2S1HqAJdVGm8W1iMbYmVYXBsFaS7PXRoxyXyvzWgqA6J8P9ShaP7alJyK8We2wsi9F2HDHXl6K7xsWAEdJTsSh+9wXs62nmJzo5Hy/yWGLMD0vWXgkVv8QgheOaEYDWbKTWlDWfo1Fr90IvR4EBJdjxxgjIkqt8hYF8bI6erpEfSx/IcavZxY3WjMRHa8OCaB4H+R5bg4M1Za2Va14+irnoLDDybfzxXDBaV9vPeqCdzie7JPsq/B9loVSMj0S5v9+6WKhmMteFejo5kgIHyQlbt65hJpq4USMPzRzcMVPQXl6eqKgwTTfFy/n6+eDWzVJNnfDwMISx/336yafVyoppVy8UlvogVbv9nu6HPTv3isolak8fNlsWir3q2Guzsdd4pHyPfQiblD2u37Yks7DVbzft3rq91tDwtO14Pn8upr55GMpxUxB6LQhxk8xjj6Uhu91URN4qRMZzI7CFXbZIG+gPVY4aymZmfqIBKgSwyxmzp72NrLYjMS30JBZ/ZPvlC0vAW7ORWlO2OmEzstTyU434XGT59zU5ydDXqU7YGKHYHIHCm0EsxcBQjeWWP47yPbYGB2vK2n1h2PGFUuCQlDwd6WlVV6OF8Kja+I6HlJcO9Oksjh07hvy8cybQNm6sTSp/+7ZpUnmeZaDUzGrGyxnfPtU3ZKmsVO1S4FzpVoK9Nhvpemy/loiwmWJNhM2y7NltDbWLRvIbiYh5iPlzqg9g+Z4WeDHcOEiu9jgqG79eFIYAACAASURBVGEIOF2Glqem45fIecw6KUdAE6anf9UGg9U8Gj/Rn7H8RGdMjA5jJdTYv3wSktZJG8vPmo3UmrK1Ejad43s2BuFpZm3TZM++fgSLmfWMBwOuRtgms9vHD32GQT+/iK3hmRjELLeO9D22BgdrytpPc9r/TVLgILmFTSrCxjt25PBRFLDr8K/8dTJmvMp8qoweqYiVObmTql0ibNItCLttNtJ12W4tEWEjwiZE2Oy1hiakpsJn4SQsPq/185xxm1nDHjSPPcYtbCwLwlv56DLNH8Wlx1hcsr6IKmEWNrmZn2hQLtRHUpDI0zX1XoTdScXoG12V/UDI2OsqY81Gak3ZWgkbI6O72U3hrGb6cCampU0JmwJzNq9G11PH2BG6N4LD5djZhx29O9D32BocrClb11y58u9S4OCUhK1D+xDNvOjzAQaHtMe48WNN8mpKRaycmbBRHkTt8qxpsykouGCQEVdeyGL6ToStdsJGa8i+a0jJ0isZYq8xy9HmmSOQNdg89pg+z+jbCNizCAEbn8C+SH5cOAn7osz8RF8twKh05sN2iwVzY7k2S7bNZJkAHHskaqveqfJhY3HkAgot+LBVxWw09nfDld9R1lKF93S+a9yX7cXzY/BZu1SH+R5bQz54WVsxE6Mbna2uNZjV1HenI2zdwrrgb39LwkvDRxv6rE+mzv+gzxFIhM3ZxLH++sMF3TxHJj/6UrCApHpSX39vd+6W9YSE4zF56iSTjxrn7nn99M5cKRJh0+JMa6hmebNGRkjvaHEkzKzXX9ZgZjfCZp6aytPTU/PuykrTCwaW0kLxcu/+YwFm/m2WSX/1ZZ8ZMhhHf/wJFy5chLXtGqe80jduqQ9StStFaiquHJ57fojhaNh6EXH9GrWREL4JKZRtsPErFmPHDR8uGwWqCwYy21Dx4Cmu+HO3jthtPSIeA//fa8mzDdJAa4hbqGsm8g1VZoSqA/M1JKQeYWaqdwizuhGwRc4stepUqam4ue/06VPYud0055H+coCxFcEdLGx8wvRO1JyYuNtjTEZqGjvfoLVfve6HDyeq/KjB+GlI8qInaMY5SflY9QTOXCa4z6sli2tDwsRaHUBrqHbELK0hIRiT3jHVO4RZ/ciZeatOcyTKFwB/zp7Lg/ryNZN+Gt/m1JO2N2b/XVOmId8SFbIIqAwhQAgQAoQAIUAINHwEnIKwcRL2znvzNX5rQsJvcJO0J4vjtmnjv4mw1bOMclOuux451gUtx2bvt/tw4/qNuoq6xe/hD4dpsDh79pxbjFfIIDt0aI+mzZoi+z85Qoq7XRkuM/whfOqeesKqboxqKtFQdLVTEDZjZzwhhI1PStzQWPx45CjOn/ufyRw1pDhstounNDX9A/wxMmEEli1ZLk2DDawVvnjS09aipJil9KJH49jOjyTNj2ndGZoeEY/Cn91u3LPL1M3DnTExHnuffr3Z+inW+OnSUzsChJXtEtJQdLXkhK1t6w4mmQ48vbQBbisrTAPc6h3+J76cqLlIwMkXf5oHNcW1QlOLhbfMG+VlmtCChqftfW0xYdJ4zJo5x+TvNV1mENpuXf01F5ma2h0YPQCHvs+izcv2NUY1CQFCgBAgBAgBQkCHwNRpL2P5BysMeIjlOx7WELYWLVpoHMb1ZM0awsaJVZs2rfHwI+Gao1H9I3YARNhobRAChAAhQAgQAoSAsyEgOWGTKtMBB6px48bw9vZmiaIrqqWbcpdboo4UGG+Gf8dOHfHf//7iyG447bsffLArTp86jfLbt522j/bsWIcO7XHliho3b96052ud+l0tW7YEX0eqAmnTKTn1oK3onFKh0KyfK1euWFHLPYsSVrbPe0PR1ZIfiUpJ2AZG98fAQQMwI2kmETbbZdXmmq1at8KGr9ah1xN9bG6jIVfc/8MeDH1+OC5dvNSQhyl4bEs+eB9rVqczB/Jjgus09IKjxoxEq9b34p357zX0odo0vtdmJ2vWD5cbempHgLCyXUL2//At09UvuryudmrCpp+e+kzS7sypqWwXT6pJCBAChAAhQAgQAg0JASJsf5SZzKdUR61SJH9vSIJGYyEECAFCgBAgBAgB2xGQnLCZp6by0t0Srajhlqim6/fNQPqXA4GP/w/TvgzE9WtFhhENfHs5nj41DdPTTYmVoHaNcBGamkqqdqVITWX7tFJNQoAQIAQIAUKAEGhICDhFairluxuwxIs55SpzkfhKBmTPzMGS+GA0v1nK/vYAvE5+gWV7W2Eo+5tMfRKfJeeh69tRCAsoQGrMDGwxmhGKwyadeLZsKcfylcvw/LN/lq7RBtTSV19/gYnjJ2sc7ekB3pw/F1+s/xK//PcEwaFDYGh8HPjFg2VLUgkTCwjwPKf8wsGG9RmETx0IEFa2i0hD0dWSW9isv3QQgZRtr0Id/U/I2T/L52Sgxd+fRlbMWFyePR+jn3oMtzZswJ2YR7AlZhKy3tiAFc0K4dH1KiYNmodzt03juxFhs12ozWv6+Pgg8okIfMei+dNTHYGnekch64fDKC1lHxb0IOzh7jh39jxlfjCShfYd2sPHR4aTuadIQiwg0Dm0E1s/ZUxuzhE+dSBAWNkuIg1FVzuesMWlYvc4IOc4ixbfqju6lRzFRWVzZDBytqV3NP4xKRH37vwB98Q0x9SYZKjGrcLWP/mgsPEejE34lFJT2S7DVJMQIAQIAUKAECAEXAQBhxO2uNWbEJc9BPHLGGLtXsfmtR2Qd7olHkA+ykIUOH8WeKy5CocKQxDC/lasVKDwo1zInztHhM1FhIy6SQgQAoQAIUAIEALiEHA4YTPvvnEuUX6c0KFDOxw6lEVx2MTNs021/fz8MDgmWuOXRE91BP4c/wK2bN5GgWJ10Pxf76eY/9ov5NNnJCoPPtgFvmwd8Ryr9FRHoEcEc3lhgZb/S36PdYoHYVUnRDUWaCi6WnLC1q1rmEku0UaNPDQg3rlj8md4eXmioqKyGsC+fj5sAWt9gh559GE88sjD+Hj1mmplxbSrf6mlPkjVbr+n+2HPzr0unUu0RYvmmP/OPOZYP8X2ldKAay5fuRSzX5uLq1evNeBRCh/a9KSp2Lr5G5b94VfhlRp4Sf7B05yto0/S1jbwkdo2vJcSRuAaWz/8w4ee2hEgrGyXkIaiq5OSpyM97RMDEEJ4VG18x8P6Swemk2BsYdP/QoFzbRdUqkkIEAKEACFACBACro+A5BY2ImwAJ5gUONf1FweNgBAgBAgBQoAQcBYEiLBRpgNnkUXqByFACBAChAAhQAjUgIBTE7bnYofgueeHYPzYiXTpwAEirFC0wZ59O9D5/m4OeLvzv/LkmePoE9Xfpf0UpUT5k3UfswCxy8nB3ghUrmAVCgVeS54tJdQNpq13Fs5n66dAIzf01I4AYWW7hDQUXS05YTNPTeXp6alBubLS9IKBjAWTLGMBE80f4xRSPOAkD976BwtMal5WTLv6d1rqg1TtNoTUVBwL7jCtpkj+FjWFnGWC4A7T5rJtu1px7ZpNmzXV3Ji9XX7btQciYe/5DVFPz0YoKWZxJumphoB/gD9bP3c0N0XpqR0Bwsp2CWkoutopUlMZTwNdOrBdKKkmIUAIEAKEACFACDRMBCS3sNGlA7p00DCXCo2KECAECAFCgBBwHAJOTdjCHw5DeHh3fPbZevJhc4CM8COuv776Ct6YPc8Bb3f+V/Jk5+//81+UO1M3VaPHjMRelnf2LOWFNAgvDybctFkgNn61yfkF2gE95D7KN64XMbn5zgFvd61XEla2z1dD0dVOTdh4stvQ0M745pvtRNhsl1Wba3KfiZEssCU5BFuGkC+edBYQlfyTtPjwS0I8on9BwQWbZa4hVfTw8MBjPR6Bf0AA9uz6tiENTbKx9OnXm62fYiY3RyVrs6E2RFjZPrMNRVdLTtjatu5gktLA08tLg3JlRYUJ2jVdOmge1BTXCm+YlPWWeaO8rNzkb87e7sDoATj0fRZtXravMapJCBAChAAhQAgQAjoEpk57Gcs/WGHAQyyP8iDCBnCCSYSN1hghQAgQAoQAIUAISIWA5IRNyksHTZs2Zf4fTXHp0kU6EpVqxq1op3HjxujY6QGW0PuEFbXcp2hXltib5828fZvCWPBZb9+hvSYEDA/tQY8WAR5OwJutIzomtiwRPNZjOVs/FDqo7hVDWNWNUU0lGoqulvxIVErCNjC6PwYOGoAZSTOJsNkuqzbXbNW6FTZ89Rl6PdHb5jYacsX9P3yLoc+/iEsXLzXkYQoe25IPFmHN6nRk/ydHcJ2GXJD7sI0c9RJat2mFd+YvbMhDtXlsr81O1qwfLjf01I4AYWW7hDQUXe3UhE0/PZT83XZBpZqEACFACBAChAAh4PoIEGGjXKKuL8U0AkKAECAECAFCoIEjIDlhM09N5aW7JVoh8JaocWoqPfaWbkI4e7sNITVVA5d9Gh4hQAgQAoQAIeAyCDh1aqr/6x0FHnjy7QXvkg+bA0SqJXOYXr5yGZ5/9s8OeLvzv/Krr7/AxPGTcYVyrWomiwen/GL9l3RJxUh0h8bHoWXLliyWYarzC7QDejh56iS2fq5gw/oMB7zdtV5JWNk+Xw1FV0tuYZPy0gF3em/d+l7k5p50WsI2au1OTGuejcToZISuXYWQEWMxv4kMAwcOqCOI6Dykrc1Hwgjndbb18fHB409EaKLX19vz7iZsxRAMmllvbzBqWFrM+QfFoR8Oo7S0VFzn243Eio8TIL+YB1l7JVSrByBxjXGTVvb7pVSsCJmExLniumVt7fCHu7MsB+cp84MRcPzmbBMfGdNhp6yF0y3Kh7Lg6H+UluEcZceoc74JqzohqrGAZLra9i5IUtOpCZt+hM576WAk1n3TExeLAoFlQ/HLhA2IQQB8mp5DQdY3+PXeODzcUQbVviPwf/xJhFTkY9206Vhzno9MuwnP/qYL5g/vDqWnCvsWjsVb7hYQXUfYNmMVIjspofTNxbrx6xE463UMbleCwutqXMoDmnYJBfYsQO5DU9ArBMhbPx2f+SVhxrOhkJ3bj/fmnkXMgniEKQHVtylIePOARnyiklPxSu9gBNxi7U4rRtQCJyTJL63C7ueYLEx7G1ltR2Ja6Elk3IpFyujO8P/tMN5LkGEUJ/cfy7Fiul6OUoCkRRjO5ev7FMy+GIsl8cGQ8fJfy9BPORcfli3S/k19Ep/tLkXEU3KEtA5Gyb4FSMob7GJyNw9bdwCD+tuZhUqiZqkRQoAQqE8EeMiTHhGPiXrFxkznTx9HhE3MpYPJa7Hj0X+j/9FnsDU8ExmyeER+PRSvNP4Q2xJKcKxRF9wcOwhYvh0B6Uuws+2LmBi2C4M0VjUtYcs4GoDArBwUPZ2IEb4jEG8XS5MouZa2so6wZT/EFsvEIdiStBYTvEoR4L0NsWPUWHIwCa3OAbf2DEHC/Zuwu1k6Fu9UYMTE7mhUrsStfSuxpUIBf5ZII/D6EWTf7IOJ8TLEx/ONvTtGJUVAfTAfPi8lYPCPjPn1cULCBgUGvz4LE6PDIIca+5d/g6DRPZG39DPkRiXixbJfUaw8DlXzYVVy1NcfZYWZiB1xEtPeeBFPPOaHb2LGInfa64hsEYywxoywdo3AlphJyHpjA1Y84gGUbGGyF4D1GUFYe7DQxeROS9iWs/US1yoYypAS7HtzBHY9lIo5MQqUqEtw5Sqb38BQdMERrLkUhlHd/DVkNuHbMCxJHoQu3vyjKB3l8Zz0B6DsxOeYOiUdKiYpyuELXYzASrsMqTVCwJUReGfhfIglXJz0iW2jvjF0asLWoUN7TTDOQ4cOOeGRqAJzNq9G9/O5OMdOxILD5Si8WIriWWMx2+cf2PaRP45d9sPPL/wFIZu34/5Tx9jG4A3vm0cwde7nBsKW65OAXkVHkHVdga4VzkXY/Pz8MDgmWuOXVG+PnrApVyGPHSeveXcV0toGQH7tnxg0RYWUPam476Iap9lvs9/dgN3tzyKH7bDevkU4v7kAXn2eRK8/yZH3SwkeblOMrKwSKLuU6ghbNJbsmIqWpw8j2zcEoQelJWx/jn8BWzZvEx8odvIirPBJQWJKAdB7EXYn3QuVpx+Kj59Euac3cF6GoEcPQxU4rEqO2t4PZdFyxI7fhqiYdzFhfADWMXK2pXc0BofHIk5+EgFd5ZgakwzVuFXYOvReqH+KQcLMkexDIRi5Pr0klzvub/rLf3+pJ58+LWHLUIchipP3wLVY32oXSnWkVJ26FzPuZfP7xwEM2vkkdj+Tj8VrT+KpifEoPQlEBh7Ah98wYvbAPcCNY8jK88GLY6KRHcdkjgn34GlT6oXAPsiCK/uydcRzrNJTHQFuFbnFAi3/l4Jz1ykehFXNEJkTGfOSdelqvYXO7Qhbt65hJrlEGzViX/bsuXPH5M/w8vJEkFyO0aMTTLDlf6+oqNT8rVmzZmjWvCnzizmHu2b1WUxKzbNt63ZkZ1cF6jSub9ywr58PUwymvkaWytbWX32/NO0qX8HH7/hj1YQU/MDaHfzPzzEmxBONruTjV1kbtDi/Db82j9QQtnxGSuZ0ykeejFlQsmcidtZhI8I2DBEXc1HcMQL3X1yKngmczNnv4YKuUCgsvrBFUHN07PiAxk+rpqegoEBccnhLhO0Ksw49w3y6SooR2A648LOOsPVmm/YbocjLk+HhljnYfSUMjyEfJUo5zpxmm7JSjRM3gxHZXo1/9RyLddAStoDjzMIW2QP++7ZC3U64hY0rSJ7QvKaH+/fVhg2vxxVAnZs182FLS2fjvVUMsEThJdtSsKPjFMQhFyXtQ1GUfhgyZhlco4o1kqNvoX70UeB0GULa5+KgDouyEAVOHCiGsvFc7JOnsiP6fGadU6AwtxhBpWONCFuE1XLHlRp3fK53PCy+QE/YFBo/0dmjGLHvxEhpuALv9Z8OVcp2rOiggvpXNsZTjKC+UILcEyz/sC87Ij+0C0Vt+iEqqgfkpSzIcfNK5H2fA1mnzsjSEbbkjL02E9ja1hDPFMIfnhGj3tYQa3jU2k1aImvi+2g/PVLTm+paQxyfq1ev4mrhtRo7K2gN1TpU1zlO55aimh4hWInWx44XGZt6YEzYUpZ/hNb3Nje0c/HyNRTkHccna9YyWbMsZ65C2JKSpyM97RPD2MTyHQ9rLh1YcsyXM6DVDGDjpzYftsSJ40wIg6WyvC1r27192zRZvbXt1n3pwCa5lLSSFEJa15eNTR1++nUsefos3kv3R8rCHtgczcmX/R+xY5MCX/uPuuY3cvLKyaeYNEu2Y2qJsDFS2mo1xrQuRpFfMHApB+ozjLAt5wQ4FjjOrK3dirGOeSDEvcD8HosVaFl5A/6tbiOXWdgiI/3x3UNDMJsNOTlju9UEliMlxRzbjknVXGkJ21ao+vRAl9ZKyNhxb+KUEkzIGI9w5h9bUlTAUvwp0Co8oJpPbclE5obwWBCKWZ23s7pgcjWf2ieRvLL6MbIQ2RQ7Ninw5e4nrnCcrvfBqvMDrxbgxeItZE6dsYzxuNdlfoVHHupo6OZPP5/G8Njna+22NHJW/8g49EiUCFv9T3Btb5BCSOtHQTCfrmnj8RS/QMB81Bazo09HPGLHJgW+jhh3Te90LGGz1Ku+mJPaD/kL0+C/8F1EbmMWpqqPT7tAJ8Uci5UzPlAtYcuBPB5I7L8NMzLGIf9MAHrdmo7Y9GHITO+MiltynGZ+oqY+tYVQyztAtXEp8u4JhZJ9p+ab+9SGsYswPdXVjpGFACx2bFLgqydszn6cToRNiERZLmMsZ6vWrsOJnw+zD0vtvtFvYCzGjhhOhI1Fryg18tn39/eHzRY2S2bMJGY94w9Z2GwXZKGErTb8a2tDrEKun5FJ02pdZna9fNb0Nmk2G2nGIkUrxoTNWeRFGTMFE6I0zB4fLt6muUBgz8d4jh2FiWdjbySs/gJP7v3ZcKlmPgsxJGMEre2JIYhfzCyOe56E70XgG3acbOpTexpfZVeiV0wvRHVh7n0FCjQx96l9dhG2TmN+ombHyEJwdo415LzH6cYYGhM2R8lSVX9c5xiZ99lYzpZ+tBrt28oB7oXFXKfO/abGlHFjiLCZEbZmzZvZTthqM2MSYROiGq0vY7zZ2GJGNl8o1vfAuWu4i5ld6CwYEzaSFy1qzrKGRq35Cj33H0Plk3kYP3odOGHL+7gAcW9GAMw1Uh6gQt45YCcjbKY+tWk40SmW+c8WwJ+dIl0tCcY95j61nLBN8a92jCxEbpxjDTnncbo5fsaEzfHryzWOkfUYGsvZGwvfh58vu6yle27eKsebyX8lwmaJsJmnpvL09NQAVVmpvUigf3i6KZ6+6eiPP+HChYtYtupj5DIzpkqlM2NGx2Ly2NGa4pZSU+nbHTd+DD5cvtKk3TIWiNH8EZryqrb+1tRuzD/eRYc95ZAHv4LJzGdUP7bvDxyq0d9n+MpUBI+fhLcQgZRtr6M0hfnS2DkGm/Fms2rdumr4jx1euxm5/gib6dfd/B0s5Ed/ra+RPR8TM7sN+EhiYWPO9UdmKbE/YQCSDrLbjCv3IqXdfnSuKx5ZuySsX+yP5c8xPy+JQDMmbHaVF80FA35hQqKBsGbmsPWXz9afWN/I6mvoCNNhWjtfP6bD7LaG+C2su6YXuzCB3T4OXIm3TiRgxehSDGKyYO+n+hqyDh9J1pDFQTv+ON28W8aEza7ryyI+rnUrW+xJT/3JmbQrTsrUVM2aNbXdwsbNmO2UQcyC6cEsmXdxXlVoMGM63sL2JF5f9Qr+1OEebeymPcEsYCu7rdY6AFcOp2F/cCxCMhjR1AUrXTYsBM1LL2PxvJ/wxJSBhmCuxsFNvyuQoWTWSpQt1QY/LTy+nm3InTEjriq4abwu+Ku0U17VmrGQ1oZ/be8Xu1Ast22JsKWgLC0JkW3LoNq5FJsDWOiKdsznpnkuck4pEPpQObIWJCM/emFV/C2R+Jmb2WuSz5rwkUQJMLKydaQSZdlzETtdgRUZU9DVfz/iP/ExCqxbiH5rjZzNmXxOYLI4e1k05i9QYjaTMykeY8JmV3nREbY1142DIOsCUPecYhRjba7Z/DNippOZvPULkf1QsiHQcJasL1SzdiPcXKaMYrwJCWJtPMdLPlqFDsqWGv3F9dhZ1RVMHTe2TujrZw2x0yCPLnhxzkiEBxQhO/1trDteZ1ckL2A8NlvwkWQN1TAqRx+n10bY7Lq+aiVszncr21J3xa6h+pQzKReVlJcORB2J6s2YesJmbMZ0OGFjTrdJT93AwVOe2thNW4GYnjywK7DmmyEovXobV/cwvtYpE2VdY/HT0JcRsGgZmlw+i5LTe3TBXO9nN9nuIEsX3DSxTzAKMoEumnYOs5huqQjMUSO0A4sjpQtuGh9Xv1/ExkJaG/4OIWw/92J+Sewshz2BzEXpx21laMcdqNkRz4odsfBQB8F73wDM7rQBS4rZ34sXYn3PUgSxMBaG+Fvjh2K2JquEbY8lM7sl+ax3wtanBCV+5Vi8zp/5a5VB3jEIai8Pk8C6svCbBmdzLp9RGouUNuZawghp5MiYsNlVXjSEbSn2FRoHQR6hDWGxgMXmU+hirEX1xOCWx6rmP5utLy8mG0nMmpI2BOFem3SBhhm57dgdJ1Q6p3yDTPnD2xDjTVhMRPM1dI+vzEDYfr9VVudRDJcdsZuNbdJtn1rma8hafFxlI5UCTWMLm13Xl2DC5vhb2TXhLHYNuYqc1UTYmjTxYb7+TQzwBMmboVB93QQuHx9vlkaRhTrSPU1Y6kmbLx3oG7E2/IZdwnowH45t01vizMFsbewmviF2nYuEJGDpN0vRlMV2Oa8hbNro8puGTgdenQH/oG4Y37FQF8y1LUr9biBDF9z0H5NiUfafAHRpzjeUAu0tr2I18zeRfqOtT0IhdqFY7lt1C9t958tw58ehSPhIgZQdLJiuWh9Ml23mpxhmLLVV2mDmq9PEKP7WZ8lYzI4RbX3Ejk0SJcAtbH0OYJfXIIRVFKP4wwKEzHmA5UOoHliX56XV+C4xWRRL2HjfzcN3OOyWqIawZaI43DgIso6wdeuLUdG6GGuVRYDn2ar4a006oNevQxH7dgQGp0zD6IBPdYGGo/Hsn2PZrUkWoNmSTFlxBCvFHIuVM82c86DTOkHnISqND0c1bh5376DSLJZljetCwly0YscmGl8r5lKonpDqON38fc5/S9T5jpH1GDpczoQKj8hyNRE2bi1rEtAUpTrPs+ZBgbhWyPSh0SNjhK3MiLDxnxouYZsaiBNnvLWxmxapETneB3knvNFethfb8QhaaAjbWBasdBNe8DwHny6dceznInRrUWAI5nr4lBzBzALEg5tWsKCwpycfgHwlS111mgU6bX8VazJbYLCElhFLm67xBIpWhvVmHbBwJLowB/cnK3CFWUW6yA6whPHd0UKT/cCIsD3CCPODRvG3nppk2MSsWSd6xdkj4lFRQYGlwBc6wjboaD8ciSnA1D6lmLPDDxkXH6wWWNdA2D68irj5CuZL5Y/wwBz0iLHOwsb7vezDJTh54iQbf6qBuDkDYasKgvwoBs1iszoqlQXJ1cVYu3wUpd1ZMGF9/LXZavSfE4IrF/3RpfJ/yFPeZwg0nF+kwCHmlN/fkkyZbfK1baRSzLHYzUZD2GbtQVddLt3f9qRg1FvaXLrPv/MpJvaQ4/Kx9Zi9vSVee/lxdKg8h8/++lfs6puCxfEh8FEdwT9YOJRRyRFQ3mL5jrcWI8THLBdtch5CFxjHeNOm9KrrETs20fg68XG66xE2tsc5+FZ2TfLmcDmrayFI9HtthM3DrymKbms/1ZoxwnbdjLB5M8JWbk7Y2rbuYOL56unlpWmgssI0EC13zB8wsD9+PHIUFwouGIbTPKgpY4Y3TIbnLWMvKqsy5fEf9e2OTxyD5R+sMJS3dEGB/2htu5b6a7h0MHIFVnVMxFi2YdTU7sDoATj0fZaoIKNi9/ketwAAIABJREFU55hvNK/8dQpm/HWmxX6IVob1RtjEjlxcfY7L5m824vq1G3gteXbdmQpqeJ0U+IobSfXavE91PQqWGWH4X4ah/4B+DIPryGeZRrgMcXlyXODcunpdf7/XJg9SzLHYzUZD2L44hsAA41y6f2eAxCNtR7whxlrUU9EoWpuK7+4bitEPXcCFgBY4/Ox45E5JxivPhEE1dhhz/ZiJOd2DEVJqlou2WSE7X1ZXHbvrMkTUhbrYsYnG14mP012RsNU134763eFyZqeBT532skW+w7NCedwTiBvlWvoV2CwARde1LkX6p7F3Y9wuv23yNw97E7aPVi/XED798Y0XI4gVZuSQ97CJrw/+uGWamsqTpcH67X+m34mNGjXSDOjOnTsmA/NqzNrVZz+4/wn0DPwBG/59Af6B97Ao4r9XKxsW1l3Tdk1R4Qt0t2GtnWdro8xv2/lvNGva1LDpGtcXrQxZ540XCrfA6K0R1o7L2coHh3RA97CHNISFx/KJezbeavJtjq8+7Yw+oKP5mI1ThFkqY55CzLxMXb9bwrhAVfWxZPy7JqXQ80NQXFzMSNpRvDN/oWSEraZUaM4mA8b9MZeHxx9jPpbskXoN2YKBhrAd98GYKPNcugpEPTsIvQazfLtdPPDH1SDc0uU0lt1iOrGrJ3PfmIatvfrj47+NxMmY4Xgv8mkMjIrFCwGnTHPR/smH+U3uYv6QumN3oyPY2vrs8I3UiY/TzXFzmiNRFzpG1mPocDmzZeHaUEdywuasqam6hXXBNbWp5c7SmS4nZvwxkDOulJnFwVvWmFn5TNkpL9e0mT9uXC8xgZ6X5YStps1Q6DwplHVbQyy1Zbwhdu7SCaGhnTXE4/qNGxg3aoKBeDjDZiMUC3uX+2Tdx3jwwa64fv0GXho+ymqyJtVmbu9x69+3cfOXCPAPMBm7w45EHQWC0Xu5PHQO7YSTuafw2ozZTrWG9IRteKR5Lt0IzM943RBjLTtbgUhNTuPuLKfx69giT8IQj/OouF+Jq2dvo02TK1A364yysxfgU/QmDsgXYxDOa3PRfpSLoGe1eXjNfeZchbA54jjdGtF1NsLmjLeya8LTXQib5EeizkrYrL3M0FByif6HxbbjR3vcF4knUTZ+iLBZXv6cmPAk5/z4jx+J2vpIga+t7xZbz6kuHdg0GOluyHJ54NZGY6Km75IUcyx2s7EJHlbJg50m8AsKxqcJHjyem+bRhYnn/888vpsVLxQ7NinwtaK7Di3qXITNOW9lE2GbaDF3Ol06aADJ3/lGwx9zotYQNht7aFbabExRdg0L25OYs34WovyYz1VRHvp+XIIV059ESAVzpp+mi90mofBIQSjEypmEw5G8KbFjkwJfyQdVTw06F2FzzlvZRNgsEzYK69EACFtdekUKZShWIdfVR0f+LnZsUuDryPGbv9sVCJvyXRaXT5PwfCQyl8lwwjMCAelLsLPti5gYtovFOEyXFFIp5lisnEk6IIkbEzs2KfCVeEj11pwzEjZnP0bWT4a7yFlNR6LmQinkRFETONc8NRW/BMAf84sA5qmp9C8UmkJK3+7YcaMlTU1VW3+tSXnF027Vlpqq3la9FQ1LoQzFLhQrumv3omLHJgW+dh90LS90BcIWuXQDpuUN1SY8Z0GDVYERuF/naO998wimzv1cUkilmGOxcmbTgPThcPTB22xqpO5KYscmBb5199K8hHTH6da822kImzWddpKyriln1oPnNKmp9F0Xwgx52ca6ywF2CZzL3mcp2wLvR039HThwgOgQCNZPp3U1pFCGYheKdT22b2mxY5MCX/uOuPa3uQJhQ+95WM9iqxWp5ZoYdH/7JQxzNI72YczRfiZiZx2WFFIp5lisnFkzIOU4ll80PhTqW+zKf+Z07OqqTeX22/csdpvIVG6W+iF2bFLgKxwf+x6nm/eLCJvwmTIv6VpyJt04reUlpX9U5VkXlZqKCJvtk2hrTSmUodiFYmvf7VFP7NikwNce4xT6DpcgbEIHI1E5KeZYrJwJHwqzHG2OwBaWbQWrN2BwGQvY3bIqldsfLJXbHBGp3FydsNn7ON0tCZsuZEhe81Tkj5+EdcKFt9aSYteQFOtYoqFYNU4ibDrLXUO5JVrb7EshpGIXij2E3NZ3iB2bFPja2vf6qEeErTqqUsyxWDkTPtdTsH5zMBbHTIcqZRXm+7ETgnbSpXJzdcJm7+N0pyZsz87DkmdZ4vfWAVB9uxRvqQZj/vDuUHqqsG/hWKifXoWnwgNQ/lsh7mkbjIBbuVWXenpOwZLkQejirS27/7FUvNJbV+agP6LkY5FVOQ+qH4Gn40LRBbvRd8RK4WJsoaTYNSTFOhY1AIGVJfdho7Ae2uNTOhIVKIFOXMxdlIDQKSDC5uqETYFRq1MRgwKUdwlG6ZfMn+8Z8ancapMfl1pDdj5Od2rCxixhmT23IXYMsGJzNIr3HENOVg6Knk7ECN8ROPMQCxE18Q3kvRAB9cF8+LyUgME/6vL7LtiA3YoD+PAblsrK9yKKWjSvKuPBgtcXjYVKqc15HMfyJEtxEcil5EyowhVATMVY2HjzDTOXKBuYtcAQYRMhlU5S1V2UgFC4HUXYJrBI/nIWWf8tgR2NXLQJM9STWNL3QeziQRASdiqxImQSEq1LqSrobVJ8mYuVM0EddVAhsWOTAl8HDd3q1zqVDxs/uuw6FwlJQMrmRWhfJkeToiPIuq5A1wpG2DjhGpGJ8B1T0fL0YWT7hiD0oI6wdeuLUdH9EBXVA/K8Xcjr2KuqTLkpYYvS5M62GqpqFdxFzqS0sGkIW7euYSa5RBs10gZivHPH5M/wYmmh+j3dD9nZObh08ZJhAnz9fHDrpmkKKV62okKXhl5XUt/uyISRWPNxmqG+pbL8R2vbtdRf8z7U1i4f256de22KkC9efIW1IIUyFLtQhPXUMaXEjk0KfB0zcstvdQxhY35X/0mE8tsVSMjugpTRneH/22G897UMz8cp0KW1HCeyT0LZrTvKv1+A5WXDqo5fDvljYrwS+/cfRukZo2TmvP7cs4jRJUtXfZuCLb6JmPBYEIpPfI6pU4QlNucoSTHHYuXMmWTEvC8vT5mAD5Z+aHMXpcDX5pfbuaKzEbbd432Qd8IbSmzFfwKHoevFXBR3ZLeuLy7Fd159DISt1tAfzIx25dFoGMpcyoH6TJWFjQibdUKWlDwd6WmfSMZ3yMLGoKQjUeuE0FlLi91IG9pm4xjCBszfwY5f+q+Hcs8g5C39DLlRiXjxvmIE/MF8X2Z1YfHWijA1pgQpGR2xI+u40RFNHuTxwKD1CqR1ykRZ11hkxYxF7rTXEenF0sld1CdLD0UpS5as2rgUefewG5QpS7FFoFBKMcdi5UxgV+1ejGdNmDQ5kQibQOSdjbClSWT9Ejh8UcXEriEp1rGoAQisLLmFjXzYiLAJlD2nL+YuSkDoRDiWsGVCuSMWxcdPotzTG2imRNClF9hxyjx27MlzXIL9MwrF8jZGRzTGhO0A0DUCGeyG5Jbe0Rjc50XMDNcnS/fE8vWn0SumF6K6ALseH4GFAkGRQtGLlTNDV3u/jvVv9oP3qVygUyjKd76BeLNQHcNXpiKY3c4TerwsEAaLxZyHsHHfvdUY0zwfv5QFo6vfYczKZH8zIiSWcBnMLmY8/fNYHO5pH8ycirD1HIlRrdKxJkOMBNivrtg1JMU6tsdoibAZxSXhgOvju9EtUWHiJ3ahCHuLY0qJHZurKAGh6DqKsI1aux1jindjtW9fxCEXJe1DUZSrgow5L1sibFVHNEuh/lMCivPzEHBlLPbJN7H6+SgLUeDE8XJEKvXJ0suQd0kGj4sF8O8IZPSfBKHxZKWYY7Fypp+/Ces3ITxjCBI1m2wsVnwXj/zFufBXzsXsZdGYv0CJLCignLUbgSunoFcIkLd+Ona2T0Jcq2AoQ0qw780RWNN6YdXRc8JJ9MsYj8hmxTjByk79qECouMDT0xMTJo1zvIWN+WPt7n8EfeO1NxGjUrfjlUAVEMD+6x2APHYLcnNAX4bLSpSkaOPSqb7fDdWfhuEpdSa2nvfH9d8C0OWeFExN6Y75S8Pw35/lGBofDJn6JD7boELEqKpbkW99Kxgik4JORdhsG4LDaoldQ1KsY3sMnggbEbYac40KEUCxC0XIOxxVRuzYXEUJCMXXUYRNaP8cUU6KORYrZ/pxa4+Oh2C27g/zd+yF/FQeZLc4sdVG79/HCFvIeTkjYOlYvFOBERO74zoLMtxkzxAkBK7F+lZbUfqY0dFz22LIfPOxeSm7CdhJjcWLtwmGmRO28RPGYPkHtodskAJfvLuJeWENwSC9czsjcFtHtEbZudWGW5B3ioCrO4HIZ6ri0t1XIsOtrUOwr88qhMzKx/3/BJLWK1m4i0oUB3pq4tllvbEBK57yg+x/23W3Ivdj8ZpjgjEyLkiEzSbYNJXEriFJ5Mz27guuKTlhM09NxRctfyorTS8NiE1NpW933Pgxkqamqq2/lJqqulyJXSiCJdUBBcWOzVWUgFBoibBVR4rP8XPPD8HGrxhZsvHh9ZctWW5j7apqE9bvxVMH/w/xOcMwvBnQ69XnkJ9ejFDN0Z8RYVMFILL9WeQwI5O3bxE8AoJRxG7hztYENWVHx+FGR883fsF3V1sipmcvdPXajZ5xKTX2kx+BJr+ehHcX/MNQhvuwpS5bYfPYJFlD3MI26BgS4paCDdlgYSu+WHUL8t6iYpxnYSbCX6iKS9eibWd4ZOoI24i5KGO3JZVXWQNbjkA+Us78JpOhGsfIX38VMn5sorsV+Q8MmiKc1Lo0YaslvdkodrM7hMuUzTNvXUV30dVSpqbiCNOlAwYCXTqwbrE5a2l3UQJC8SfCVjNhE4qhpXIFqguirNyGNtuNxIqVwyC/XoyW3ULhnZuOqZ/JMWeqAiqVvyZV1/IiZmH7uADhb4QiL0+Gh1vmYDf7m5eBsM3Fvlarq46e2Q3bwIgQXGH1Q5CJQWPSax3qtp3/xvVr1/G/87/hteTZmksHK5avqvbBLhQvSQgbsyqOSmM+bC1UOHNTCaXXfry1NRhzjG5B7pY9iRazDkCZXhWXbktWEOI65eLQTQXKOD6TV+HIcyWY2icFoZp4dvkoVipQmFuIUHaUnlesQMu8txFvY/ozV7Gw1ZTeTMXSmyXofCa1hC0dJZqj9wCUWXn7Wqh86Mu5i66W3MJGlw6IsFm72Jy1vLsoAaH4S0XYOEExfxTKNkK74ZLlFApFvfS7oKBmn7KgLqFoXpCL0+y4r74f/fge/1MkvNipSpA8CHyejxz+UUPcbH2kIWx1v31axloExY2wm0XIUo9cg7DVnt6slKU3m83Sm2kIW8oBFPZUIyvPBy+OiUZ23FjBvqF1z5hpCXfR1UTYyIdN1Ne92IVi7cK0Z3mxY7PXZmMvTKQgbO8snM+O/1Lt1WWnjoNoNxDs+KJ1X3yCBx4IQUnx73hp+CjNcbGY4167rKG4KUjpUojVb37OrrQ47nENwiYsvZmGsGWUIHyaHHnf50DWqTOyiLCJFi4ibETYiLDVsIyIsJkCIwVhE4upaI1HDdQbApxcLfvwX5g84RUDURY733YhbPWGiHUNuwZhE5bezEDYpvgjl1nYIiP98d1DVRdirEOm7tLuImeSE7a2rTuYpDTw9PLSoF1ZUWGCOr90MGBgf/x45CguFFQdkTQPaoprhTdMynrLvFFeVm7yN3274xP5LaQqp1berqXLAda2a6m/1rQ7MHoADn2f5dRf+FIoQ7ELpe6l6LgSYscmBb6OG331NxNhc6bZqKEv3I/t4wTIL7Lboe2VUK0egEShMUrqYXhSrKHHejyKrzf+W1Tv5jOLTx7zQ7MERW2/oR2Lbbd5MLDyCcQv40Gcj+KpygLwU+ZAXzVWbwbGsGwaReoylk6HxQnJeoPdRmUXN2x4XIOw2TAwO1SRQs44/hszbb88ZIdhYuq0lyXlOx5E2NjNK0YwibDZQ3zr9x3uogSEokiETShSDiz3ErsR+Vw+Zk97G1ltR2JaaCGKHhqJ4R1lKDy+HkkHO2OGhZReSRdjsUQfVyz5MEL/aVvsNfORO3YNMWvQ0lQM76JGcTGw+bl0tDSKP6ePKachbLP2oKtRqjK987zy3Q1Y4sX8BJW5iGVx3IxDp4xauwlRJWrI/fUJzOdh6w6WWaO/bUlribDZvm4cK2e299vampITNrp0QJcOrBVCZy3vLkpAKP5E2IQi5chyCgx+fRYmRodBDjX25xQjuMlGFm/sMOZsTkVgjhphHQ6YpfR6HKWyG1VxxR5m+Z+9T9gUe01KwsbDhLRp0xo2Wz5YOI/MntsMsdayWLDb4Ubx53b011rcNITti2MIDNCnKpMhPp6TrgikbHsV6uh/Qs7+WTRxKGQr9RY2GWSeuVi33h9jJuktbDKU7JyL+LcP2yQArkDYOFaBt8pxxYpsGXNYdo18Vn4dxiNtTw/sG81wZxcTpHzcRVdLfiRKhI0Im5QL0ZFtuYsSEIoxETahSDmw3ORFWOGTgsQUZhXqvQi7Fz6K4n3xiE0qYDf3mEWoWA0Um2eIGIKAwF+r4or1OYflB+8Iir1W10gduoamrUVmyFLETlEhZe08/MLizw03ij93eNLbjEToCNtxH4yJ0qcqK9UStrhU7B4H5BxneWdbdUeoei6yu7xuEpwYPAhvH72FrS40av/dKQhbu2FIMbI0ZshiEacIhrxFAfYvmgT/0asgO1/ALJIrUbZ0kcZyy8N5zM4bjPnDu0PpqcK+hXOheq7qtyxZX6hYdo3wtCREti2DaifPLMHaNcquYWt2CD2iDpUzcdNuVW0ibHTpQNS5vdiFYpW02rmw2LGRD1v1CROLqZ1FwPVex3zY0tKZD9stdgYYEICSg9+iKLwbcLoYyvZXsSazBQZrAuka52Dthn1lD1TFFfsuF8qnhMdeqw0ksfPN19Cjjz2CTV8zZzFrH01cukGAqhxdQ0rZLdACxBnFn0uKmctSdVURtuGR+lRlavyr51iUrWapzLKHaHzXuC9bZroSf5QpcNYom0SDI2wxUzDNyNK4oyIUkV8PBQt/jMxnD+MEWLw6BsfVjHJ0iTuM2BEnMe2NHuwjAFBn5aDo6USMCC2Gd2XVb106dscJRpZ73ZqO2DcjsILlBPZQ+8PbkF1jBOL1WSisnWNdeSnkzGZLro19tqUaETYibETYalg57qIEhCoOsrAJRYrKuZvlQ4oZdwoLW/JaHDSyNO6oUKDrrLFIwkJkLmOEtqizlrCxrBBdHs9E7PhtiIqJRt+Rf8PDRUeQdZ2V71AK76tVvz3751hU3AqA/MehSPhIgZQdqbhPrcZpQ7Bm/gEhDkF30dWSEzbz1FReuluiFRZuifbv3w9Hf/wJFy5cNMxWs+aBLFK2aaRHSzc/9e2OHTda0tRUtfWXUlO5l8XEXZSAUFVJhE0oUlTOmLCJSdulYJkEuJXN2W/vSTHjzkLYdhtZGg+fUyLcJx+/yFjg539PgjpqnpawjTgAObOU4XQZQtrn4r9lEbjvYi6KO0bg/otH8EvrDobf8lkmjUMsu0b/ZAXLmBGALrIDLLdrd7Qgwma12FBqKrKwiVKGYkmN1RJrxwpix0ZHou5F8O0omi7zKk5CekQ8Kqq/Rw4f1WRMaGgP/wAyJqJOQdjMQLZ3TlBb59hddLXkFja6dECXDmxddM5Wz12UgFDcycImFCkqZw8E+C1S/XP3rkn4T3u8XvQ7/rXsfTz4YFdN5g9O3JyRsEWOGwnlR+nIED3a+m3AXXQ1ETaysJGFrQZd4i5KQKgqlYqwWcolKrQPVI4Q4AhwgmZM2FwRFZ4/N37YUHiy3KuXLl/ByRMnNbpYjDVRrM5yRRx5n8WO21VOQ4iwEWEjwkaETZCeloKw8Vyi7uCPJAhQKiQZAq5K4N5f/J4m0DrPvcotbQUs6w8RNuvFggibKWbye5tDffmayR99mshQasZ3POhIlI5ErV9uzlnDXZSAUPSlIGxiMRXaVyrnPgjoLW2udiyqPxJ9afgoDVFzxiNRV5EisXrFbS1s3bqGmTgTNGqk9TO4c8fUx8DLyxP9nu6H7OwcXLp4ySAXvn4+uHWz1EROeNmKikqTv+nbHZkwEms+TjP8Zqks/9Hadi3117wPtbXLx7Zn517KJeoqK95CP91FCQidIiJsQpGicoRA3QhwksCJmv4hwlY3ZjWVcBddnZQ8Helpn0jGd8jCxqDkpseBAwdoTNvGC9J2cayfmlJ8VYhdKPUzMmlaFTs2KfCVZiTStEKETRocqRVCwBICRNhslwt30dXkw0Y+bKJ8isQuFNuXaP3XFDs2ImzV50gspvU/6/QGQsAxCBBhsx13sXrFVXQ1ETYibETYatAT7qIEhKpJsrAJRYrKEQLWI0CEzXrM9DXcRVcTYSPCRoSNCJsgTUmETRBMVIgQsAkBImw2waapRITNFDvBt0TNU1PxGDP8qaw0vTTA002JSU2lb3fc+DGSpqaqrb+Umsq9jrjcRQkIVZNE2IQiReUIAesRIMJmPWbuZmGj1FRkYSMLG1nYBGlKImyCYKJChIBNCBBhswk2srCZcRgOiGALG8Vho1uiti8756pJFjbT+SDC5lzySb1pWAgQYbN9Pt1FV5MPG1nYyMJGFjZBmpIImyCYqBAhYBMCRNhsgo0sbGRhA27frjCRHktpHWozPVIcNtsXn7PUdJevNqF4E2ETihSVIwSsR4AIm/WY6Wu4i66W3MLWtnUHk5QGnl5eGkwrK0wJEL90MGBgf/x45CguGEV7bh7UFNcKb5jMHM+1Vl5WbvI3fbvjE8dg+QcrDL/xdi1dDrC2XUv9tabdgdEDcOj7LAqca/sadHhNd1ECQoEmwiYUKSpHCFiPABE26zFzN8I2ddrLkvIdDyJs0CTzJcJm++JzlppE2Exnggibs0gm9aMhIsAJG19jYh6Fsg1eGj5aTBNOXZfjszFzU7U+uouulpyw0aUDunTg1Cveis65ixIQCgkRNqFIUbmGiICrJplvSHPBddDEl8dj7959eGf+e4ahuYuulvxIlAgbEbaGoiDcRQkInS+pCFuBqirhtdB3UzlCwB4IcAvV3bsmXj2G13LCdufOHeiJm/6f9ugXvUOLgEKhwJO9/oQK5mJVXl5uIG7uoquJsNEtUbolWoM2dBclIHQzkIKwvbNwPpYtSRX6SipHCBAChIABAX5s/NrsGZp/37NrL15Lnq35/+6iq4mwEWEjwkaETdCWIAVhE6tYBXWUChEChECDRGDj5i9x8sQpA1HTD1KsXnHb5O/mqam8dLdEuQnT+BGbmkrf7thxoyVNTVVbfyk1VXUdIHahOLNWETs2V1ECQueACJtQpKgcIUAI2BMBd9HVlJqKLGxkYSMLmyDdSoRNEExUiBAgBOyMgLsQNjoSJcJGhI0ImyD1SoRNEExUiBAgBOyMABE2U8Apl2gTGUqtSAFBmQ7svGLr4XXuogSEQkeETShSVI4QIATsiYC76GqysJGFjSxsZGETpFuJsAmCiQoRAoSAnREgwkYWNhMEKJeo5RUodqHYeV1b9TqxY6NLB9XhFoupVRNIhQkBQsAtEBCrV1xFV0tuYevWNcwk6mCjRh4agblzxzQYoZeXJ/o93Q/Z2Tm4dPGSQah8/Xxw62apiZDxshUVlSZ/07c7MmEk1nycZvjNUln+o7XtWuqveR9qa5ePbc/OvZRL1IXVhbsoAaFTRBY2oUhROUKAELAnAu6iq5OSpyM97RPJ+I4HZTqgTAf2XKj1+S53UQJCMSTCJhQpKkcIEAL2RMBddLXkFjYibETY7LlQ6/Nd7qIEhGJIhE0oUlSOECAE7ImAu+hqImx06YAuHdSgWdxFCQhVrETYhCJF5QgBQsCeCLiLribCRoSNCBsRNkG6lQibIJioECFACNgZASJspoALjsNmnprK09NT01JlpemlAbGpqfTtjhs/RtLUVLX1tyGmpnru+SHY+NUmm5cXr79syXKb6ztzRa4ExGCjUCrAbx9tzLQdX2fChxO2goILKFAV2NythiwvNoNCFd0XAQ92Ke+u6YW8msCwoqjb4ekuhI1SU7m5hY1voGKeAtWFBkNIzHHoEfEYekQ8KgYeHDl8lP3vR1FtOEtlTj5JXpxlNqgfzoDAqLV7MbF1MdRlvDclyF6ZB2VcPhJGpFfr3vCVqQgePwlv6X7xYAxs9ooPkL+tGH17H8OYaes10RR4pIO7dypx5642woL2GYePP2mB/2/vXICius44/kcWFjE85aHupiomKjgGbEylM0adWhVNqY9a3YpGMQi+J07sOKNJnHZ8ZtLRqtVaMEKKkRiGxtJkJlZbnw1RE3DSYm0LaWZYnQaQ16i4rNhz9wH3LguCstnL3f+dcRh37z177+9859z//b7z3W/5kp14KI6TvnnYTaG3LT8HFYszcLQrYLtykHsjA8vc7JQujh8hjn/d7fHzcPjsZhhL1+ClDZ95rUt8RbAxJOrDgs1ro4s/TAIkQAIaIJCefxKTz8yWCZ1fIDffKdgyse+gHm+t3o+k7Xsw19iIK0uvwViYieSIRpQXbED5sCxE+Cdi7sRqnDpbi0FjE2DU3cLFPWtQ88NDSB5lxJD+11Hw1xBkLTDg/OGdqB2/FhPjHqLy/dewPrvKRnH+rnysfCEKjeXHsaMkAWvTEmH0r8K53RnQL5cEWx5ifrcOk0YAFeJ312fbveTGFXtw2BSP6ruNQNEG/HnMbqSPDUHVpbex7JcXbPvYBNuWMwjabkKSEaj6S/t3SM9B0cRaWCKBvXM3IUpc53xDHKIHmnF+TxlClichITIOlvI8bNx4HPaz7f2Ngk3JtNshUWaJ9p0s0d4fNmyRBEiABHyHgORhe3WU8K1ZpWuuQPH3zYhvE2wGvFG4G3itCMYDs9DaANSeAsaZzCjeX4mgUdVQiN2xAAAJfElEQVSIGj8PFWeE4Jp6AYeuhiKspAwN0zPxs6B0fPVcAbAhDR+ty0FWWSUiFvhhzufP4VT4u9h32oC0lYn4JGUFjj40IfcTE6r+sB8VT8XDKM6l0tZOFhYHL8Z/jEKwfR2NtIg87D1lwOJV4rgZksdtKXKLJ+BPqauBIyfwo/uNMMZUYm/+PzFllQnNmQvw+tcOwfb+NdSEXkbpnalYZdLDZNpq6+SVBScxrmA2Sk3ib+FslMw5geQPFyALB1E0JxwI+zvWp+YhvXgP9Gvt7Xlio2CjYFMQ0GKlA08MHLZJAiRAAr5CoGsPm/BgvXkC+4YK7xU+RrF+lvBU5aEk9UWkTpyEMbrTONs8uk2wnQ9ahkkNl1FSZ8AYqyS0slGxJBNHd2aLcKUZ4Qv7YeG1kfho6H9RJlxVgcEN+Gz1DhyDAZPnvIRJqZMwOQGoNxvQX9GOEGxVoUgb9pXLcetQUByHvakbUPV2DrYNAKKHNuF6uUW8aV540t7bhL0XHYLtyyBMmdyIkpImGBOa7YJt6GYU5SWg8qrw1umHIyn6NI5Zv4cxWzKwEbtRdOBZNDactIWH0/OFkCsUQu5Dz1gGBdtjCranBw9XrKD01+lsLT2w2h5B2jYp6SBl5gxcuXwVN8VCZucWGRWO2zX1in0D9YGw3BdGJNuc7WZmvYJDvzmsaNddckBP23V3vj1pd+asFHx6qUTVlQ48M3TYKgmQAAn4BgHlGjbhY/u4DKHJ8jVsmcj9Yh4a16egdKUILf7WjGfeGIFvqkIwAkUo1b+Iii1mpBbEQ3c3FNby62gcOQHP3NqPs7ofyASbCE++/DLqv7iAZ59PQEWFHt+NKcPG1K0owQRsK9wsjjEjZKTw4jXF4alb8namouIdM+a/Ge9ynAHpRw4iFWZYEuLQ/MFx4MfzgC+FKBvbiGNTVtvWvdlCokKwJSdXo/xOHJKHVePXEzNwTojRwxG/cqxdk9aymRBSE4rvoBL/0BuAP/4b0auEaCutRnSYGW/N34pzHjILXxFs619d06t6x4+CTTz5CIFJweahkclmSYAESMAHCEhJCVIGqS3JQEowkP7v2LqbcPBtY1ImKMjX83n2TCjYlHy766BiaSrBTQqfzpyZYssOlF6DwI0ESIAESIAEtE4gecVSGLPzUGi70HlIX2HG0WzPZ4/6imBjliizRLU+h/D6SIAESIAENEyAgk3ZucwSFV6zZhdxJyHqDAw9bBqeHXhpJEACJEACqiFAwdZHBVvciGGIioru8LLS7irOgAB7kkRLizJJglmiqhmbPBESIAESIAESaCNAwfaYgs21NJXOkSVqdZMlOmPGNFy98jlu3rzV9msRkWGouy1eWCPbpIxS1wxNZ7sZK5bbSlMNGTIYaYsXIWXWdGz6+WZbu/Ktp+26O1+tlabieCcBEiABEtAeASlhwZa0ILbW1tY+fYFShZVHbU9aYrGvlBHURGmqkNAQUULoBcTHj8aNG/9C7pF3O/RvSNgANDXcUXweEKhDi0XpSfMXZUGkbdCgWMW+kkB0FXHSDsED+uPunXsd9o2NtR9vNj9+3cVHGanWvzcYRGq4Sjdf6Vf2gfcNkH3g3T5QO3/XjFGnUJM+l/45/+/8612a6v31vlBGUBNJB5/+rQTpryyz1X20WFqw8CeLOlhFZLR4v1u18v1u+qBA4blTvt9N5wiJWl1Cou72lX6ks3YTExOfuFB2Z6bNzFP1DnqeGQmQAAmogYBcuKnhfHgOT05AE4LtwL5DNhLPjx+HNetW4eKFS3gnR1l8l2vYntxY2AIJkAAJkAAJkIB3CGhKsEkIe5oc4Jr5yaQD7xgif5UESIAESIAESKBzAhRsfA8bxwcJkAAJkICPEpBCp2qtnOCjXdLpZfe6YBs7JklRS7RfP2emiuJj6MTi/mnTp2HcuCTFyUmfW60PFJ/5iTYetiqPd1bpkCp27Ni+q21/d8dLXwYPCBLJAc2P/K2uztf1vLpqV7q2+NHxtDcSIAESIAES8BoBpxiTJx04ExKkk7JllIq/rbIEBdeTZcKC17pP8cNSBLE39U6PSlP15EW0ngpdsl33YeTeCg2TL/k6Zxx3yxVoZ3Y65KAtDgWFv4dp/pIOd/lvey11V/OvXIRJSXXyfZ3fRcVEoOaburbrkIQex7EdhxY4ULBppCN5A9HWDUQtazsp4LUx0XN+6Hp+6AuCTa4mOT90LsKkb9QktHuz3yjYKNja7EkLTyC8MVG4yidI2gPtoTv2YEr7KQqOfaBqD9ujbvzSsqOB0ZHCw3a7Q1iOD17aePCiYKNgo2D7Hyc4rT6RUrBRsHVHsGnBYyWFRQdGSyFRzmdanc/8XEtT+fvbKwc8eKBMJHBXbkrar7slpNiufdogB3KQ30BoD7QH2kPHUoYcFxwXHBcdxwU9bPSw0cNGD5tm13z0hoctPCJMZOb1U4SZAhw1l5uamnDvXns2uxY8NdKFatVD0Zk9mBaJkOh7fTsk6ov95mvjjYKNgo2CjYLN527QPZnoBw+JhV9gMJplQYeAAH8E+fuhsbYGdbfbs/J60i7XjNqnHjVwYNJB531BIdj+rObtBxkKNpVMGJzoOWHIXTi0B/XYgyTY7vsHo6Gl/d2S0vsjwwP9YKmvpWATXdXiUsu5r9kvBZt6xpsaBLxa7ZeCjYKNHjZ62Ohhc4wCd0/QFGzq8YR56kaqhSxResLU4wnrjaUY7mzd7+nBwxUlCfwdazMeWK2KNRudJR1ERoXjdk29Yt9AfSAs9y2Kz9iuYxEp+dpA0B5oD/IJQs32EDMoBtaAYNRb2qfKfmIchweI5KyG26iraw+Jcp609yo5kIN8fNMeesceKNgERwpMuzGRAznIJ1nag50GBRvHBccFHTOSDXjbQcWQqOgExszt0xE5kIP8xkR7sNNgSFT744Ih0c77WPrG24vtPRVi7GvtUrBRqLTdo3mD1v6NyVNrgLTcLgWb9scFkw4o2B71sKoG4UrBRsFGwcakAz5BO0YBkw7sIHzNo0LBRsFGwSYj0Ndcjzxfe+eRAznIJzJftAd62LTvYWNItPM+lkpeRcVEoJoPtl5/kOlQmkrnyGK0djNLtLulqdiufUCQAznIBRDtQf32EDsoFhZdf9TL38MmSvhJ72GzNoj3sNW1Z8k/aQk/2oP67cFdH2u936RqH/V1DfKpy20msNY5eFvvMCTKkChDonxy9PqTo5o9d/Swad/DpuU1mFybrB37/T+xI1jUwX9vFwAAAABJRU5ErkJggg==;" vertex="1" parent="1">
          <mxGeometry x="30" y="50" width="790" height="277.78" as="geometry" />
        </mxCell>
        <mxCell id="AvsTuHcZyifIrdtvjOMb-4" value="" style="rounded=1;whiteSpace=wrap;html=1;" vertex="1" parent="1">
          <mxGeometry x="80" y="360" width="740" height="220" as="geometry" />
        </mxCell>
        <mxCell id="AvsTuHcZyifIrdtvjOMb-5" value="Visitante" style="shape=umlActor;verticalLabelPosition=bottom;verticalAlign=top;html=1;outlineConnect=0;" vertex="1" parent="1">
          <mxGeometry x="40" y="370" width="30" height="60" as="geometry" />
        </mxCell>
        <mxCell id="AvsTuHcZyifIrdtvjOMb-7" value="" style="rounded=0;whiteSpace=wrap;html=1;" vertex="1" parent="1">
          <mxGeometry x="45" y="480" width="20" height="100" as="geometry" />
        </mxCell>
        <mxCell id="AvsTuHcZyifIrdtvjOMb-8" value="" style="endArrow=none;dashed=1;html=1;dashPattern=1 3;strokeWidth=2;rounded=0;exitX=0.5;exitY=0;exitDx=0;exitDy=0;" edge="1" parent="1" source="AvsTuHcZyifIrdtvjOMb-7">
          <mxGeometry width="50" height="50" relative="1" as="geometry">
            <mxPoint x="10" y="480" as="sourcePoint" />
            <mxPoint x="55" y="430" as="targetPoint" />
          </mxGeometry>
        </mxCell>
        <mxCell id="AvsTuHcZyifIrdtvjOMb-9" value="" style="rounded=1;whiteSpace=wrap;html=1;" vertex="1" parent="1">
          <mxGeometry x="140" y="370" width="100" height="30" as="geometry" />
        </mxCell>
        <mxCell id="AvsTuHcZyifIrdtvjOMb-10" value="" style="rounded=1;whiteSpace=wrap;html=1;" vertex="1" parent="1">
          <mxGeometry x="250" y="370" width="100" height="30" as="geometry" />
        </mxCell>
        <mxCell id="AvsTuHcZyifIrdtvjOMb-11" value="" style="rounded=1;whiteSpace=wrap;html=1;" vertex="1" parent="1">
          <mxGeometry x="600" y="370" width="100" height="30" as="geometry" />
        </mxCell>
        <mxCell id="AvsTuHcZyifIrdtvjOMb-12" value="" style="rounded=1;whiteSpace=wrap;html=1;" vertex="1" parent="1">
          <mxGeometry x="480" y="370" width="100" height="30" as="geometry" />
        </mxCell>
        <mxCell id="AvsTuHcZyifIrdtvjOMb-13" value="" style="rounded=1;whiteSpace=wrap;html=1;" vertex="1" parent="1">
          <mxGeometry x="364" y="370" width="100" height="30" as="geometry" />
        </mxCell>
        <mxCell id="AvsTuHcZyifIrdtvjOMb-14" value="" style="rounded=1;whiteSpace=wrap;html=1;" vertex="1" parent="1">
          <mxGeometry x="710" y="370" width="100" height="30" as="geometry" />
        </mxCell>
        <mxCell id="AvsTuHcZyifIrdtvjOMb-15" value="Tem치ticas&amp;nbsp;" style="text;html=1;strokeColor=none;fillColor=none;align=center;verticalAlign=middle;whiteSpace=wrap;rounded=0;" vertex="1" parent="1">
          <mxGeometry x="160" y="370" width="70" height="30" as="geometry" />
        </mxCell>
        <mxCell id="AvsTuHcZyifIrdtvjOMb-16" value="Familia" style="text;html=1;strokeColor=none;fillColor=none;align=center;verticalAlign=middle;whiteSpace=wrap;rounded=0;" vertex="1" parent="1">
          <mxGeometry x="379" y="370" width="70" height="30" as="geometry" />
        </mxCell>
        <mxCell id="AvsTuHcZyifIrdtvjOMb-17" value="Hospital" style="text;html=1;strokeColor=none;fillColor=none;align=center;verticalAlign=middle;whiteSpace=wrap;rounded=0;" vertex="1" parent="1">
          <mxGeometry x="495" y="370" width="70" height="30" as="geometry" />
        </mxCell>
        <mxCell id="AvsTuHcZyifIrdtvjOMb-18" value="Escuela" style="text;html=1;strokeColor=none;fillColor=none;align=center;verticalAlign=middle;whiteSpace=wrap;rounded=0;" vertex="1" parent="1">
          <mxGeometry x="615" y="370" width="70" height="30" as="geometry" />
        </mxCell>
        <mxCell id="AvsTuHcZyifIrdtvjOMb-19" value="Volver a Home" style="text;html=1;strokeColor=none;fillColor=none;align=center;verticalAlign=middle;whiteSpace=wrap;rounded=0;" vertex="1" parent="1">
          <mxGeometry x="725" y="370" width="70" height="30" as="geometry" />
        </mxCell>
        <mxCell id="AvsTuHcZyifIrdtvjOMb-20" value="Saludos" style="text;html=1;strokeColor=none;fillColor=none;align=center;verticalAlign=middle;whiteSpace=wrap;rounded=0;" vertex="1" parent="1">
          <mxGeometry x="265" y="370" width="70" height="30" as="geometry" />
        </mxCell>
        <mxCell id="AvsTuHcZyifIrdtvjOMb-21" value="" style="rounded=0;whiteSpace=wrap;html=1;" vertex="1" parent="1">
          <mxGeometry x="180" y="420" width="20" height="130" as="geometry" />
        </mxCell>
        <mxCell id="AvsTuHcZyifIrdtvjOMb-22" value="" style="endArrow=none;dashed=1;html=1;dashPattern=1 3;strokeWidth=2;rounded=0;exitX=0.5;exitY=0;exitDx=0;exitDy=0;" edge="1" parent="1" source="AvsTuHcZyifIrdtvjOMb-21">
          <mxGeometry width="50" height="50" relative="1" as="geometry">
            <mxPoint x="189.5" y="450" as="sourcePoint" />
            <mxPoint x="189.5" y="400" as="targetPoint" />
          </mxGeometry>
        </mxCell>
        <mxCell id="AvsTuHcZyifIrdtvjOMb-23" value="" style="endArrow=classic;html=1;rounded=0;entryX=0;entryY=0.5;entryDx=0;entryDy=0;" edge="1" parent="1" target="AvsTuHcZyifIrdtvjOMb-21">
          <mxGeometry width="50" height="50" relative="1" as="geometry">
            <mxPoint x="65" y="485" as="sourcePoint" />
            <mxPoint x="115" y="435" as="targetPoint" />
          </mxGeometry>
        </mxCell>
        <mxCell id="AvsTuHcZyifIrdtvjOMb-24" value="El visitante ingresa a navegar por las tem치ticas&amp;nbsp;" style="text;html=1;strokeColor=none;fillColor=none;align=center;verticalAlign=middle;whiteSpace=wrap;rounded=0;" vertex="1" parent="1">
          <mxGeometry x="80" y="450" width="90" height="70" as="geometry" />
        </mxCell>
        <mxCell id="AvsTuHcZyifIrdtvjOMb-25" value="" style="rounded=0;whiteSpace=wrap;html=1;" vertex="1" parent="1">
          <mxGeometry x="750" y="420" width="20" height="150" as="geometry" />
        </mxCell>
        <mxCell id="AvsTuHcZyifIrdtvjOMb-26" value="" style="rounded=0;whiteSpace=wrap;html=1;" vertex="1" parent="1">
          <mxGeometry x="640" y="420" width="20" height="100" as="geometry" />
        </mxCell>
        <mxCell id="AvsTuHcZyifIrdtvjOMb-27" value="" style="rounded=0;whiteSpace=wrap;html=1;" vertex="1" parent="1">
          <mxGeometry x="520" y="420" width="20" height="70" as="geometry" />
        </mxCell>
        <mxCell id="AvsTuHcZyifIrdtvjOMb-28" value="" style="rounded=0;whiteSpace=wrap;html=1;" vertex="1" parent="1">
          <mxGeometry x="404" y="420" width="20" height="50" as="geometry" />
        </mxCell>
        <mxCell id="AvsTuHcZyifIrdtvjOMb-29" value="" style="rounded=0;whiteSpace=wrap;html=1;" vertex="1" parent="1">
          <mxGeometry x="290" y="420" width="20" height="30" as="geometry" />
        </mxCell>
        <mxCell id="AvsTuHcZyifIrdtvjOMb-31" value="" style="endArrow=none;dashed=1;html=1;dashPattern=1 3;strokeWidth=2;rounded=0;exitX=0.5;exitY=0;exitDx=0;exitDy=0;" edge="1" parent="1" source="AvsTuHcZyifIrdtvjOMb-29">
          <mxGeometry width="50" height="50" relative="1" as="geometry">
            <mxPoint x="250" y="450" as="sourcePoint" />
            <mxPoint x="300" y="400" as="targetPoint" />
          </mxGeometry>
        </mxCell>
        <mxCell id="AvsTuHcZyifIrdtvjOMb-32" value="" style="endArrow=classic;html=1;rounded=0;" edge="1" parent="1">
          <mxGeometry width="50" height="50" relative="1" as="geometry">
            <mxPoint x="200" y="440" as="sourcePoint" />
            <mxPoint x="290" y="440" as="targetPoint" />
          </mxGeometry>
        </mxCell>
        <mxCell id="AvsTuHcZyifIrdtvjOMb-33" value="Ingresa a navegar por los saludos" style="text;html=1;strokeColor=none;fillColor=none;align=center;verticalAlign=middle;whiteSpace=wrap;rounded=0;" vertex="1" parent="1">
          <mxGeometry x="200" y="410" width="80" height="40" as="geometry" />
        </mxCell>
        <mxCell id="AvsTuHcZyifIrdtvjOMb-34" value="" style="endArrow=none;dashed=1;html=1;dashPattern=1 3;strokeWidth=2;rounded=0;exitX=0.5;exitY=0;exitDx=0;exitDy=0;" edge="1" parent="1" source="AvsTuHcZyifIrdtvjOMb-28">
          <mxGeometry width="50" height="50" relative="1" as="geometry">
            <mxPoint x="364" y="450" as="sourcePoint" />
            <mxPoint x="414" y="400" as="targetPoint" />
          </mxGeometry>
        </mxCell>
        <mxCell id="AvsTuHcZyifIrdtvjOMb-35" value="" style="endArrow=classic;html=1;rounded=0;entryX=0;entryY=1;entryDx=0;entryDy=0;" edge="1" parent="1" target="AvsTuHcZyifIrdtvjOMb-28">
          <mxGeometry width="50" height="50" relative="1" as="geometry">
            <mxPoint x="200" y="470" as="sourcePoint" />
            <mxPoint x="250" y="420" as="targetPoint" />
          </mxGeometry>
        </mxCell>
        <mxCell id="AvsTuHcZyifIrdtvjOMb-36" value="Ingresa a navegar por conceptos de familiaas" style="text;html=1;strokeColor=none;fillColor=none;align=center;verticalAlign=middle;whiteSpace=wrap;rounded=0;" vertex="1" parent="1">
          <mxGeometry x="320" y="430" width="80" height="50" as="geometry" />
        </mxCell>
        <mxCell id="AvsTuHcZyifIrdtvjOMb-37" value="" style="endArrow=classic;html=1;rounded=0;entryX=0;entryY=1;entryDx=0;entryDy=0;" edge="1" parent="1" target="AvsTuHcZyifIrdtvjOMb-27">
          <mxGeometry width="50" height="50" relative="1" as="geometry">
            <mxPoint x="200" y="490" as="sourcePoint" />
            <mxPoint x="250" y="440" as="targetPoint" />
          </mxGeometry>
        </mxCell>
        <mxCell id="AvsTuHcZyifIrdtvjOMb-38" value="Ingresa a navegar por conceptos de Hospital" style="text;html=1;strokeColor=none;fillColor=none;align=center;verticalAlign=middle;whiteSpace=wrap;rounded=0;" vertex="1" parent="1">
          <mxGeometry x="430" y="440" width="80" height="50" as="geometry" />
        </mxCell>
        <mxCell id="AvsTuHcZyifIrdtvjOMb-39" value="" style="endArrow=classic;html=1;rounded=0;entryX=-0.1;entryY=0.9;entryDx=0;entryDy=0;entryPerimeter=0;" edge="1" parent="1" target="AvsTuHcZyifIrdtvjOMb-26">
          <mxGeometry width="50" height="50" relative="1" as="geometry">
            <mxPoint x="200" y="510" as="sourcePoint" />
            <mxPoint x="250" y="460" as="targetPoint" />
          </mxGeometry>
        </mxCell>
        <mxCell id="AvsTuHcZyifIrdtvjOMb-40" value="" style="endArrow=none;dashed=1;html=1;dashPattern=1 3;strokeWidth=2;rounded=0;exitX=0.5;exitY=0;exitDx=0;exitDy=0;" edge="1" parent="1" source="AvsTuHcZyifIrdtvjOMb-27">
          <mxGeometry width="50" height="50" relative="1" as="geometry">
            <mxPoint x="480" y="450" as="sourcePoint" />
            <mxPoint x="530" y="400" as="targetPoint" />
          </mxGeometry>
        </mxCell>
        <mxCell id="AvsTuHcZyifIrdtvjOMb-41" value="" style="endArrow=none;dashed=1;html=1;dashPattern=1 3;strokeWidth=2;rounded=0;exitX=0.5;exitY=0;exitDx=0;exitDy=0;" edge="1" parent="1" source="AvsTuHcZyifIrdtvjOMb-26">
          <mxGeometry width="50" height="50" relative="1" as="geometry">
            <mxPoint x="600" y="450" as="sourcePoint" />
            <mxPoint x="650" y="400" as="targetPoint" />
          </mxGeometry>
        </mxCell>
        <mxCell id="AvsTuHcZyifIrdtvjOMb-42" value="Ingresa a navegar por conceptos de Escuela" style="text;html=1;strokeColor=none;fillColor=none;align=center;verticalAlign=middle;whiteSpace=wrap;rounded=0;" vertex="1" parent="1">
          <mxGeometry x="550" y="450" width="80" height="50" as="geometry" />
        </mxCell>
        <mxCell id="AvsTuHcZyifIrdtvjOMb-45" value="" style="endArrow=classic;html=1;rounded=0;entryX=1;entryY=0.75;entryDx=0;entryDy=0;" edge="1" parent="1" target="AvsTuHcZyifIrdtvjOMb-7">
          <mxGeometry width="50" height="50" relative="1" as="geometry">
            <mxPoint x="750" y="555" as="sourcePoint" />
            <mxPoint x="800" y="505" as="targetPoint" />
          </mxGeometry>
        </mxCell>
        <mxCell id="AvsTuHcZyifIrdtvjOMb-46" value="El visitante decide volver al Home" style="text;html=1;strokeColor=none;fillColor=none;align=center;verticalAlign=middle;whiteSpace=wrap;rounded=0;" vertex="1" parent="1">
          <mxGeometry x="380" y="510" width="265" height="50" as="geometry" />
        </mxCell>
      </root>
    </mxGraphModel>
  </diagram>
  <diagram id="tApGUFHJtGwhS-CMYkaJ" name="UML">
    <mxGraphModel dx="670" dy="508" grid="1" gridSize="10" guides="1" tooltips="1" connect="1" arrows="1" fold="1" page="1" pageScale="1" pageWidth="827" pageHeight="1169" math="0" shadow="0">
      <root>
        <mxCell id="0" />
        <mxCell id="1" parent="0" />
        <mxCell id="KgBTbcX2BGC-NgcoeETN-1" value="Visitor" style="swimlane;fontStyle=1;align=center;verticalAlign=top;childLayout=stackLayout;horizontal=1;startSize=26;horizontalStack=0;resizeParent=1;resizeParentMax=0;resizeLast=0;collapsible=1;marginBottom=0;whiteSpace=wrap;html=1;fillColor=#e51400;fontColor=#ffffff;strokeColor=#B20000;" vertex="1" parent="1">
          <mxGeometry x="240" y="20" width="160" height="120" as="geometry" />
        </mxCell>
        <mxCell id="KgBTbcX2BGC-NgcoeETN-2" value="-name:String&lt;br&gt;-entryDate: DateTime" style="text;strokeColor=none;fillColor=none;align=left;verticalAlign=top;spacingLeft=4;spacingRight=4;overflow=hidden;rotatable=0;points=[[0,0.5],[1,0.5]];portConstraint=eastwest;whiteSpace=wrap;html=1;" vertex="1" parent="KgBTbcX2BGC-NgcoeETN-1">
          <mxGeometry y="26" width="160" height="54" as="geometry" />
        </mxCell>
        <mxCell id="KgBTbcX2BGC-NgcoeETN-3" value="" style="line;strokeWidth=1;fillColor=none;align=left;verticalAlign=middle;spacingTop=-1;spacingLeft=3;spacingRight=3;rotatable=0;labelPosition=right;points=[];portConstraint=eastwest;strokeColor=inherit;" vertex="1" parent="KgBTbcX2BGC-NgcoeETN-1">
          <mxGeometry y="80" width="160" height="8" as="geometry" />
        </mxCell>
        <mxCell id="KgBTbcX2BGC-NgcoeETN-4" value="+Visitor(name, entryDate)" style="text;strokeColor=none;fillColor=none;align=left;verticalAlign=top;spacingLeft=4;spacingRight=4;overflow=hidden;rotatable=0;points=[[0,0.5],[1,0.5]];portConstraint=eastwest;whiteSpace=wrap;html=1;" vertex="1" parent="KgBTbcX2BGC-NgcoeETN-1">
          <mxGeometry y="88" width="160" height="32" as="geometry" />
        </mxCell>
        <mxCell id="KgBTbcX2BGC-NgcoeETN-6" value="MainMenu" style="swimlane;fontStyle=1;align=center;verticalAlign=top;childLayout=stackLayout;horizontal=1;startSize=26;horizontalStack=0;resizeParent=1;resizeParentMax=0;resizeLast=0;collapsible=1;marginBottom=0;whiteSpace=wrap;html=1;fillColor=#fa6800;fontColor=#000000;strokeColor=#C73500;" vertex="1" parent="1">
          <mxGeometry x="240" y="190" width="160" height="130" as="geometry" />
        </mxCell>
        <mxCell id="KgBTbcX2BGC-NgcoeETN-7" value="-visitorList: List&amp;lt;Visitor&amp;gt;" style="text;strokeColor=none;fillColor=none;align=left;verticalAlign=top;spacingLeft=4;spacingRight=4;overflow=hidden;rotatable=0;points=[[0,0.5],[1,0.5]];portConstraint=eastwest;whiteSpace=wrap;html=1;" vertex="1" parent="KgBTbcX2BGC-NgcoeETN-6">
          <mxGeometry y="26" width="160" height="34" as="geometry" />
        </mxCell>
        <mxCell id="KgBTbcX2BGC-NgcoeETN-8" value="" style="line;strokeWidth=1;fillColor=none;align=left;verticalAlign=middle;spacingTop=-1;spacingLeft=3;spacingRight=3;rotatable=0;labelPosition=right;points=[];portConstraint=eastwest;strokeColor=inherit;" vertex="1" parent="KgBTbcX2BGC-NgcoeETN-6">
          <mxGeometry y="60" width="160" height="8" as="geometry" />
        </mxCell>
        <mxCell id="KgBTbcX2BGC-NgcoeETN-9" value="+MainMenu(VisitorList)&lt;br&gt;+build(context)&lt;br&gt;-ElevatedButton(Salir)" style="text;strokeColor=none;fillColor=none;align=left;verticalAlign=top;spacingLeft=4;spacingRight=4;overflow=hidden;rotatable=0;points=[[0,0.5],[1,0.5]];portConstraint=eastwest;whiteSpace=wrap;html=1;" vertex="1" parent="KgBTbcX2BGC-NgcoeETN-6">
          <mxGeometry y="68" width="160" height="62" as="geometry" />
        </mxCell>
        <mxCell id="KgBTbcX2BGC-NgcoeETN-10" value="Quienes Somos" style="swimlane;fontStyle=1;align=center;verticalAlign=top;childLayout=stackLayout;horizontal=1;startSize=26;horizontalStack=0;resizeParent=1;resizeParentMax=0;resizeLast=0;collapsible=1;marginBottom=0;whiteSpace=wrap;html=1;fillColor=#76608a;fontColor=#ffffff;strokeColor=#432D57;" vertex="1" parent="1">
          <mxGeometry x="240" y="380" width="160" height="70" as="geometry" />
        </mxCell>
        <mxCell id="KgBTbcX2BGC-NgcoeETN-12" value="" style="line;strokeWidth=1;fillColor=none;align=left;verticalAlign=middle;spacingTop=-1;spacingLeft=3;spacingRight=3;rotatable=0;labelPosition=right;points=[];portConstraint=eastwest;strokeColor=inherit;" vertex="1" parent="KgBTbcX2BGC-NgcoeETN-10">
          <mxGeometry y="26" width="160" height="8" as="geometry" />
        </mxCell>
        <mxCell id="KgBTbcX2BGC-NgcoeETN-13" value="-ElevatedButton(Quines Somos quienesSomos)" style="text;strokeColor=none;fillColor=none;align=left;verticalAlign=top;spacingLeft=4;spacingRight=4;overflow=hidden;rotatable=0;points=[[0,0.5],[1,0.5]];portConstraint=eastwest;whiteSpace=wrap;html=1;" vertex="1" parent="KgBTbcX2BGC-NgcoeETN-10">
          <mxGeometry y="34" width="160" height="36" as="geometry" />
        </mxCell>
        <mxCell id="KgBTbcX2BGC-NgcoeETN-14" value="Tem치ticas" style="swimlane;fontStyle=1;align=center;verticalAlign=top;childLayout=stackLayout;horizontal=1;startSize=26;horizontalStack=0;resizeParent=1;resizeParentMax=0;resizeLast=0;collapsible=1;marginBottom=0;whiteSpace=wrap;html=1;fillColor=#f0a30a;fontColor=#000000;strokeColor=#BD7000;" vertex="1" parent="1">
          <mxGeometry x="30" y="380" width="160" height="70" as="geometry" />
        </mxCell>
        <mxCell id="KgBTbcX2BGC-NgcoeETN-16" value="" style="line;strokeWidth=1;fillColor=none;align=left;verticalAlign=middle;spacingTop=-1;spacingLeft=3;spacingRight=3;rotatable=0;labelPosition=right;points=[];portConstraint=eastwest;strokeColor=inherit;" vertex="1" parent="KgBTbcX2BGC-NgcoeETN-14">
          <mxGeometry y="26" width="160" height="8" as="geometry" />
        </mxCell>
        <mxCell id="KgBTbcX2BGC-NgcoeETN-17" value="-ElevateButton(Tem치tica tematica)" style="text;strokeColor=none;fillColor=none;align=left;verticalAlign=top;spacingLeft=4;spacingRight=4;overflow=hidden;rotatable=0;points=[[0,0.5],[1,0.5]];portConstraint=eastwest;whiteSpace=wrap;html=1;" vertex="1" parent="KgBTbcX2BGC-NgcoeETN-14">
          <mxGeometry y="34" width="160" height="36" as="geometry" />
        </mxCell>
        <mxCell id="KgBTbcX2BGC-NgcoeETN-18" value="Objetivos de la App" style="swimlane;fontStyle=1;align=center;verticalAlign=top;childLayout=stackLayout;horizontal=1;startSize=26;horizontalStack=0;resizeParent=1;resizeParentMax=0;resizeLast=0;collapsible=1;marginBottom=0;whiteSpace=wrap;html=1;fillColor=#6d8764;fontColor=#ffffff;strokeColor=#3A5431;" vertex="1" parent="1">
          <mxGeometry x="450" y="380" width="160" height="90" as="geometry" />
        </mxCell>
        <mxCell id="KgBTbcX2BGC-NgcoeETN-20" value="" style="line;strokeWidth=1;fillColor=none;align=left;verticalAlign=middle;spacingTop=-1;spacingLeft=3;spacingRight=3;rotatable=0;labelPosition=right;points=[];portConstraint=eastwest;strokeColor=inherit;" vertex="1" parent="KgBTbcX2BGC-NgcoeETN-18">
          <mxGeometry y="26" width="160" height="8" as="geometry" />
        </mxCell>
        <mxCell id="KgBTbcX2BGC-NgcoeETN-21" value="-ElevateButton(Obetivos_App objetivosApp)" style="text;strokeColor=none;fillColor=none;align=left;verticalAlign=top;spacingLeft=4;spacingRight=4;overflow=hidden;rotatable=0;points=[[0,0.5],[1,0.5]];portConstraint=eastwest;whiteSpace=wrap;html=1;" vertex="1" parent="KgBTbcX2BGC-NgcoeETN-18">
          <mxGeometry y="34" width="160" height="56" as="geometry" />
        </mxCell>
        <mxCell id="KgBTbcX2BGC-NgcoeETN-28" value="" style="endArrow=none;html=1;edgeStyle=orthogonalEdgeStyle;rounded=0;entryX=0.438;entryY=0.008;entryDx=0;entryDy=0;entryPerimeter=0;" edge="1" parent="1" target="KgBTbcX2BGC-NgcoeETN-6">
          <mxGeometry relative="1" as="geometry">
            <mxPoint x="310" y="140" as="sourcePoint" />
            <mxPoint x="310" y="180" as="targetPoint" />
          </mxGeometry>
        </mxCell>
        <mxCell id="KgBTbcX2BGC-NgcoeETN-29" value="parent" style="edgeLabel;resizable=0;html=1;align=left;verticalAlign=bottom;" connectable="0" vertex="1" parent="KgBTbcX2BGC-NgcoeETN-28">
          <mxGeometry x="-1" relative="1" as="geometry" />
        </mxCell>
        <mxCell id="KgBTbcX2BGC-NgcoeETN-30" value="child" style="edgeLabel;resizable=0;html=1;align=right;verticalAlign=bottom;" connectable="0" vertex="1" parent="KgBTbcX2BGC-NgcoeETN-28">
          <mxGeometry x="1" relative="1" as="geometry" />
        </mxCell>
        <mxCell id="KgBTbcX2BGC-NgcoeETN-31" value="name" style="endArrow=block;endFill=1;html=1;edgeStyle=orthogonalEdgeStyle;align=left;verticalAlign=top;rounded=0;entryX=0.563;entryY=0;entryDx=0;entryDy=0;entryPerimeter=0;exitX=-0.025;exitY=0.016;exitDx=0;exitDy=0;exitPerimeter=0;" edge="1" parent="1" source="KgBTbcX2BGC-NgcoeETN-9" target="KgBTbcX2BGC-NgcoeETN-14">
          <mxGeometry x="-1" relative="1" as="geometry">
            <mxPoint x="130" y="260" as="sourcePoint" />
            <mxPoint x="290" y="260" as="targetPoint" />
          </mxGeometry>
        </mxCell>
        <mxCell id="KgBTbcX2BGC-NgcoeETN-32" value="1" style="edgeLabel;resizable=0;html=1;align=left;verticalAlign=bottom;" connectable="0" vertex="1" parent="KgBTbcX2BGC-NgcoeETN-31">
          <mxGeometry x="-1" relative="1" as="geometry" />
        </mxCell>
        <mxCell id="KgBTbcX2BGC-NgcoeETN-33" value="name" style="endArrow=block;endFill=1;html=1;edgeStyle=orthogonalEdgeStyle;align=left;verticalAlign=top;rounded=0;entryX=0.375;entryY=-0.043;entryDx=0;entryDy=0;entryPerimeter=0;" edge="1" parent="1" target="KgBTbcX2BGC-NgcoeETN-10">
          <mxGeometry x="-1" relative="1" as="geometry">
            <mxPoint x="300" y="320" as="sourcePoint" />
            <mxPoint x="300" y="370" as="targetPoint" />
          </mxGeometry>
        </mxCell>
        <mxCell id="KgBTbcX2BGC-NgcoeETN-34" value="1" style="edgeLabel;resizable=0;html=1;align=left;verticalAlign=bottom;" connectable="0" vertex="1" parent="KgBTbcX2BGC-NgcoeETN-33">
          <mxGeometry x="-1" relative="1" as="geometry" />
        </mxCell>
        <mxCell id="KgBTbcX2BGC-NgcoeETN-35" value="name" style="endArrow=block;endFill=1;html=1;edgeStyle=orthogonalEdgeStyle;align=left;verticalAlign=top;rounded=0;entryX=0.456;entryY=-0.011;entryDx=0;entryDy=0;entryPerimeter=0;" edge="1" parent="1" target="KgBTbcX2BGC-NgcoeETN-18">
          <mxGeometry x="-1" relative="1" as="geometry">
            <mxPoint x="400" y="254.5" as="sourcePoint" />
            <mxPoint x="520" y="370" as="targetPoint" />
          </mxGeometry>
        </mxCell>
        <mxCell id="KgBTbcX2BGC-NgcoeETN-36" value="1" style="edgeLabel;resizable=0;html=1;align=left;verticalAlign=bottom;" connectable="0" vertex="1" parent="KgBTbcX2BGC-NgcoeETN-35">
          <mxGeometry x="-1" relative="1" as="geometry" />
        </mxCell>
      </root>
    </mxGraphModel>
  </diagram>
</mxfile>
